<?xml version="1.0" encoding="utf-8"?>
<!-- Generator: Adobe Illustrator 24.0.2, SVG Export Plug-In . SVG Version: 6.00 Build 0)  -->
<svg version="1.1" id="Calque_1" xmlns="http://www.w3.org/2000/svg" xmlns:xlink="http://www.w3.org/1999/xlink" x="0px" y="0px"
	 viewBox="0 0 1100 230" style="enable-background:new 0 0 1100 230;" xml:space="preserve">
<style type="text/css">
	.st0{fill:#707372;}
	.st1{fill:#291F1D;}
	.st2{fill:#464648;}
	.st3{fill:#E32119;}
	.st4{fill:#8C734B;}
	.st5{fill:#4D1C6B;}
	.st6{fill:#491D74;}
	.st7{fill:#A2864C;}
	.st8{fill:#FFFFFF;}
	.st9{fill:#9CA47E;}
	.st10{fill:#F8AF39;}
	.st11{fill:#A67B94;}
	.st12{fill:#BBCE00;}
	.st13{fill:#2580C3;}
	.st14{fill:#D8EEF9;}
	.st15{fill:#00B3D4;}
	.st16{fill:#E20613;}
	.st17{fill:#1D1D1B;}
	.st18{fill:#20255F;}
	.st19{fill:#E1DDD0;}
	.st20{fill:#5F255F;}
	.st21{fill:#5D544F;}
	.st22{fill:#FFF000;}
	.st23{fill:#414445;}
	.st24{fill-rule:evenodd;clip-rule:evenodd;fill:#F8AA00;}
	.st25{fill-rule:evenodd;clip-rule:evenodd;fill:#FFFFFF;}
	.st26{fill-rule:evenodd;clip-rule:evenodd;fill:#1D1D1B;}
	.st27{fill:#002E66;}
	.st28{fill:#1A1617;}
	.st29{fill:#002F5F;}
	.st30{fill:#D0A65A;}
	.st31{fill:#E6A500;}
	.st32{fill:#002B41;}
	.st33{fill:#0072C6;}
	.st34{fill:#43180B;}
	.st35{fill:#B7371F;}
	.st36{clip-path:url(#SVGID_4_);fill:#796A48;}
	.st37{clip-path:url(#SVGID_6_);fill:none;stroke:#796A48;stroke-width:0.283;stroke-miterlimit:3.864;}
	.st38{clip-path:url(#SVGID_8_);fill:#796A48;}
	.st39{clip-path:url(#SVGID_10_);fill:none;stroke:#796A48;stroke-width:0.283;stroke-miterlimit:3.864;}
	.st40{clip-path:url(#SVGID_12_);fill:#796A48;}
	.st41{clip-path:url(#SVGID_14_);fill:none;stroke:#796A48;stroke-width:0.283;stroke-miterlimit:3.864;}
	.st42{clip-path:url(#SVGID_16_);fill:#796A48;}
	.st43{clip-path:url(#SVGID_18_);fill:none;stroke:#796A48;stroke-width:0.283;stroke-miterlimit:3.864;}
	.st44{clip-path:url(#SVGID_20_);fill:#796A48;}
	.st45{clip-path:url(#SVGID_22_);fill:none;stroke:#796A48;stroke-width:0.283;stroke-miterlimit:3.864;}
	.st46{clip-path:url(#SVGID_24_);fill:#796A48;}
	.st47{clip-path:url(#SVGID_26_);fill:none;stroke:#796A48;stroke-width:0.283;stroke-miterlimit:3.864;}
	.st48{clip-path:url(#SVGID_28_);fill:#796A48;}
	.st49{clip-path:url(#SVGID_30_);fill:#796A48;}
	.st50{clip-path:url(#SVGID_32_);fill:#796A48;}
	.st51{clip-path:url(#SVGID_34_);fill:#796A48;}
	.st52{fill:#796A48;}
	.st53{fill:#007A4E;}
	.st54{fill:#D50032;}
	.st55{fill:#E35205;}
	.st56{fill:#3F3E3E;}
	.st57{fill:#000018;}
	.st58{fill:#D4DF5B;}
	.st59{fill:#231F20;}
	.st60{fill:#888C8D;}
	.st61{fill:#006D6E;}
	.st62{fill:#004E59;}
	.st63{fill:#00A0DF;}
	.st64{fill:#12284C;}
	.st65{fill:#746661;}
	.st66{fill:#1F1F1F;}
	.st67{fill:#BE1818;}
	.st68{opacity:0.94;}
	.st69{clip-path:url(#SVGID_36_);fill:#BE1818;}
	.st70{clip-path:url(#SVGID_38_);}
	.st71{clip-path:url(#SVGID_40_);}
	.st72{fill:#E50A7B;}
	.st73{clip-path:url(#SVGID_44_);fill:url(#SVGID_45_);}
	.st74{clip-path:url(#SVGID_44_);fill:#E50A7B;}
	.st75{clip-path:url(#SVGID_44_);}
	.st76{fill:#F18826;}
	.st77{fill:#E30762;}
	.st78{fill:#3D3C3B;}
	.st79{fill:#64C3DC;}
	.st80{fill:#F8AE42;}
	.st81{fill:#C91430;}
	.st82{fill:#1B1464;}
	.st83{fill:#666666;}
	.st84{fill:#FFCB08;}
	.st85{clip-path:url(#SVGID_47_);fill:#FFCB08;}
	.st86{fill:#1A1C3A;}
	.st87{fill:#18103A;}
	.st88{fill:#997300;}
	.st89{fill:#C3A572;}
	.st90{fill:#BD2B0B;stroke:#BD2B0B;stroke-width:1.0606;}
	.st91{fill:#F49800;stroke:#F49800;stroke-width:1.0606;}
	.st92{fill:#A6CA56;stroke:#A6CA56;stroke-width:0.7071;}
	.st93{fill:none;}
	.st94{fill:#545456;}
	.st95{fill:#EE2424;}
	.st96{fill:#D9956E;}
	.st97{fill:#0084CB;}
	.st98{fill:#C0AE00;}
	.st99{fill:#2B5034;}
	.st100{fill:#00A1DF;}
	.st101{fill:#474547;}
	.st102{fill:#AE0A3B;}
	.st103{fill:#AC9976;}
	.st104{fill:#35414C;}
	.st105{fill:#3C3C3B;}
	.st106{fill:#0592FF;}
	.st107{fill:#3C3C3C;}
	.st108{fill:#432975;}
	.st109{fill:url(#SVGID_48_);}
	.st110{fill:#00D7B0;}
	.st111{fill:#949698;}
	.st112{fill:#221F1F;}
	.st113{fill:none;stroke:#231F20;stroke-width:0.75;stroke-miterlimit:10;}
	.st114{fill:#6AB023;}
	.st115{fill:#E20026;}
	.st116{fill:#0065A6;}
</style>
<g>
	<rect x="429.1" y="-5.9" class="st93" width="241.8" height="241.8"/>
	<g>
		<path class="st115" d="M629.4,35.6c1.3,1.3,1.4,3.2,1,4.3c-2,5.6-3.9,14.4-6.1,26.1c-2.2,11.7-4.1,26.6-4.1,49
			c0,22.4,1.9,37.3,4.1,49c2.2,11.7,4.1,20.5,6.1,26.1c0.4,1.1,0.5,2.8-1,4.3c-1.5,1.5-3.2,1.4-4.3,1c-5.6-2-14.4-3.9-26.1-6.1
			c-11.7-2.2-26.6-4.1-49-4.1c-22.4,0-37.3,1.9-49,4.1c-11.7,2.2-20.5,4.1-26.1,6.1c-1.1,0.4-3,0.4-4.3-1c-1.3-1.3-1.3-3.1-0.9-4.3
			c2-5.6,3.9-14.4,6.1-26.1c2.2-11.7,4.1-26.6,4.1-49c0-22.4-1.9-37.3-4.1-49c-2.2-11.7-4.1-20.5-6.1-26.1c-0.4-1.1-0.5-2.8,1-4.3
			c1.5-1.5,3.2-1.4,4.3-1c5.6,2,14.4,3.9,26.1,6.1c11.7,2.2,26.6,4.1,49,4.1c22.4,0,37.3-1.9,49-4.1c11.7-2.2,20.5-4.1,26.1-6.1
			C626.3,34.2,628.1,34.3,629.4,35.6z"/>
		<g>
			<g>
				<path class="st8" d="M509.3,138.1v-1.5V99.4c0-1.7-0.7-2.7-2.6-2.7h-7.9v38.6c0,1.7,0.7,2.7,2.6,2.7H509.3z M509.3,90.7v-6.9
					c0-1.8-0.7-2.7-2.6-2.7h-7.9V88c0,1.8,0.7,2.7,2.6,2.7H509.3z M527.9,108.1c2.4-2.4,4.7-3.9,7.7-3.9c4.5,0,6.9,4.4,6.9,13.6
					c0,9-2.8,13.1-9.5,13.1c-1.6,0-3.4-0.3-5.1-0.9V108.1z M517.4,134.2c0,1.8,0.7,2.3,2.6,2.8c3.4,1,8.2,1.7,12.4,1.7
					c15.2,0,21-8.8,21-22.5c0-11.4-3.5-20.5-15-20.5c-3.9,0-7.7,1.7-10.6,4.5V83.8c0-1.8-0.7-2.7-2.6-2.7h-7.9V134.2z M569.9,138.1
					v-1.5V99.4c0-1.7-0.7-2.7-2.6-2.7h-7.9v38.6c0,1.7,0.7,2.7,2.6,2.7H569.9z M569.9,90.7v-6.9c0-1.8-0.7-2.7-2.6-2.7h-7.9V88
					c0,1.8,0.7,2.7,2.6,2.7H569.9z M604,126.2c0-14.3-17.7-13.1-17.7-18.7c0-2,1-3.4,5.8-3.4c2.9,0,6.6,0.7,9.7,1.6v-5.3
					c0-1.2-0.7-2.4-1.8-2.8c-2.7-0.8-5.7-1.5-9.8-1.5c-9.8,0-14.1,5.4-14.1,11.9c0,13.6,17.6,12,17.6,18.7c0,2.6-1.9,4-6.6,4
					c-2.8,0-7.2-0.7-10.6-1.6v5.3c0,1.2,0.7,2.3,1.8,2.8c2.9,0.9,6.6,1.5,10.6,1.5C597.7,138.7,604,133.9,604,126.2"/>
			</g>
		</g>
	</g>
</g>
</svg>
