<?xml version="1.0" encoding="UTF-8" standalone="no"?>
<!-- Created with Inkscape (http://www.inkscape.org/) -->
<!DOCTYPE svg PUBLIC "-//W3C//DTD SVG 1.1//EN" "http://www.w3.org/Graphics/SVG/1.1/DTD/svg11.dtd">
<svg
   xmlns:svg="http://www.w3.org/2000/svg"
   xmlns="http://www.w3.org/2000/svg"
   version="1.1"
   width="400"
   height="500"
   id="svg2816"
   xml:space="preserve"><defs
     id="defs2820" /><g
     transform="matrix(1.25,0,0,-1.25,-110.00538,500.46668)"
     id="g2826"><g
       transform="matrix(14.507278,0,0,14.507278,-6191.6511,-1987.3623)"
       id="g5526"><path
         d="m 454.00536,141.88771 -0.002,16.958 c 0,0 -3.85,1.31 -10.111,1.321 -6.22,0.012 -10.114,-1.334 -10.114,-1.334 l 0,-16.945 20.227,0"
         id="path4420"
         style="fill:white;fill-opacity:1;fill-rule:nonzero;stroke:none" /><path
         d="m 454.00536,141.88771 -0.002,16.958 c 0,0 -3.85,1.31 -10.111,1.321 -6.22,0.012 -10.114,-1.334 -10.114,-1.334 l 0,-16.945 20.227,0 z"
         id="path4430"
         style="fill:none;stroke:white;stroke-width:0.727;stroke-linecap:butt;stroke-linejoin:miter;stroke-miterlimit:4;stroke-opacity:1;stroke-dasharray:none" /><path
         d="m 454.00536,139.48471 c 0,0 -4.059,-1.439 -10.085,-1.431 -6.054,0.009 -10.143,1.428 -10.143,1.428 l 0,3.213 c 0,0 4.082,1.347 10.108,1.338 6.055,-0.008 10.12,-1.338 10.12,-1.338 l 0,-3.21"
         id="path4432"
         style="fill:white;fill-opacity:1;fill-rule:nonzero;stroke:none" /><path
         d="m 454.00536,139.48471 c 0,0 -4.059,-1.439 -10.085,-1.431 -6.054,0.009 -10.143,1.428 -10.143,1.428 l 0,3.213 c 0,0 4.082,1.347 10.108,1.338 6.055,-0.008 10.12,-1.338 10.12,-1.338 l 0,-3.21 z"
         id="path4442"
         style="fill:none;stroke:white;stroke-width:0.727;stroke-linecap:butt;stroke-linejoin:miter;stroke-miterlimit:4;stroke-opacity:1;stroke-dasharray:none" /><path
         d="m 446.50136,162.19471 c 0,0 0.383,0.938 1.501,0.858 0.6,-0.054 1.092,-0.644 1.102,-1.078 0,0 0.034,-0.446 -0.341,-0.852 0,0 0.823,-0.009 1.173,-0.408 0,0 0.413,-0.37 0.342,-0.99 -0.068,-0.599 -0.533,-1.054 -0.812,-1.16 -0.416,-0.158 -0.874,-0.177 -1.218,-0.106 0,0 0.344,-0.888 -0.136,-1.415 -0.48,-0.527 -1.706,-0.681 -2.304,0.592 0,0 -0.639,-1.013 -1.74,-0.255 0,0 -0.782,0.586 -0.249,1.611 0,0 -0.49,-0.071 -0.52,-0.077 0,0 0.439,-1.694 -0.627,-2.104 0,0 -0.625,-0.323 -1.125,-0.14 -0.397,0.145 -0.561,0.248 -0.821,0.639 0,0 -1.37,-0.676 -2.013,-0.202 -0.676,0.499 -0.894,1.401 -0.498,2.227 0.284,0.591 0.458,0.661 0.458,0.661 0,0 -0.799,0.656 -0.594,1.755 0.219,1.172 1.41,1.167 1.498,1.167 0.089,0 0.835,0.005 1.279,-0.492 0,0 0.444,1.094 1.575,1.125 1.125,0.031 1.428,-0.772 1.469,-0.983 0.043,-0.22 0.024,-0.651 -0.296,-1.065 0,0 0.277,0.026 0.526,-0.057 0,0 0.07,1.24 1.125,1.374 0.779,0.09 1.246,-0.625 1.246,-0.625"
         id="path4444"
         style="fill:white;fill-opacity:1;fill-rule:nonzero;stroke:none" /><path
         d="m 446.50136,162.19471 c 0,0 0.383,0.938 1.501,0.858 0.6,-0.054 1.092,-0.644 1.102,-1.078 0,0 0.034,-0.446 -0.341,-0.852 0,0 0.823,-0.009 1.173,-0.408 0,0 0.413,-0.37 0.342,-0.99 -0.068,-0.599 -0.533,-1.054 -0.812,-1.16 -0.416,-0.158 -0.874,-0.177 -1.218,-0.106 0,0 0.344,-0.888 -0.136,-1.415 -0.48,-0.527 -1.706,-0.681 -2.304,0.592 0,0 -0.639,-1.013 -1.74,-0.255 0,0 -0.782,0.586 -0.249,1.611 0,0 -0.49,-0.071 -0.52,-0.077 0,0 0.439,-1.694 -0.627,-2.104 0,0 -0.625,-0.323 -1.125,-0.14 -0.397,0.145 -0.561,0.248 -0.821,0.639 0,0 -1.37,-0.676 -2.013,-0.202 -0.676,0.499 -0.894,1.401 -0.498,2.227 0.284,0.591 0.458,0.661 0.458,0.661 0,0 -0.799,0.656 -0.594,1.755 0.219,1.172 1.41,1.167 1.498,1.167 0.089,0 0.835,0.005 1.279,-0.492 0,0 0.444,1.094 1.575,1.125 1.125,0.031 1.428,-0.772 1.469,-0.983 0.043,-0.22 0.024,-0.651 -0.296,-1.065 0,0 0.277,0.026 0.526,-0.057 0,0 0.07,1.24 1.125,1.374 0.779,0.09 1.246,-0.625 1.246,-0.625 z"
         id="path4454"
         style="fill:none;stroke:white;stroke-width:0.727;stroke-linecap:butt;stroke-linejoin:miter;stroke-miterlimit:4;stroke-opacity:1;stroke-dasharray:none" /><path
         d="m 454.00536,141.88771 -0.002,16.958 c 0,0 -3.85,1.31 -10.111,1.321 -6.22,0.012 -10.114,-1.334 -10.114,-1.334 l 0,-16.945 20.227,0"
         id="path4456"
         style="fill:#ed1b2e;fill-opacity:1;fill-rule:nonzero;stroke:none" /><path
         d="m 437.99336,147.53071 0,3.089 c -0.013,0.555 -0.038,0.78 -0.178,1.032 0,0 0.594,-0.074 1.368,0.307 l 0,-4.428 -1.19,0"
         id="path4458"
         style="fill:white;fill-opacity:1;fill-rule:nonzero;stroke:none" /><path
         d="m 438.59236,152.27571 c 0.381,0 0.689,0.308 0.689,0.689 0,0.38 -0.308,0.688 -0.689,0.688 -0.38,0 -0.689,-0.308 -0.689,-0.688 0,-0.381 0.309,-0.689 0.689,-0.689"
         id="path4460"
         style="fill:white;fill-opacity:1;fill-rule:nonzero;stroke:none" /><path
         d="m 444.92036,147.53071 0,3.089 c -0.013,0.555 -0.037,0.78 -0.177,1.032 0,0 0.593,-0.074 1.367,0.307 l 0,-4.428 -1.19,0"
         id="path4462"
         style="fill:white;fill-opacity:1;fill-rule:nonzero;stroke:none" /><path
         d="m 445.51936,152.27571 c 0.381,0 0.689,0.308 0.689,0.689 0,0.38 -0.308,0.688 -0.689,0.688 -0.38,0 -0.688,-0.308 -0.688,-0.688 0,-0.381 0.308,-0.689 0.688,-0.689"
         id="path4464"
         style="fill:white;fill-opacity:1;fill-rule:nonzero;stroke:none" /><path
         d="m 449.44836,151.00371 c -0.209,0.157 -0.542,0.207 -0.661,0.207 -0.132,0 -0.39,-0.046 -0.39,-0.297 0,-0.288 0.218,-0.362 0.377,-0.427 0.238,-0.102 0.508,-0.204 0.72,-0.399 0.277,-0.251 0.502,-0.613 0.502,-1.086 0,-1.244 -0.984,-1.522 -1.685,-1.522 -0.37,0 -0.747,0.102 -1.11,0.213 l -0.145,1.068 c 0.35,-0.297 0.753,-0.511 1.169,-0.511 0.186,0 0.469,0.065 0.469,0.408 0,0.622 -1.579,0.66 -1.579,1.913 0,0.501 0.186,0.882 0.489,1.123 0.304,0.251 0.644,0.297 0.987,0.297 0.344,0 0.643,-0.043 1.032,-0.177 l -0.175,-0.81"
         id="path4466"
         style="fill:white;fill-opacity:1;fill-rule:nonzero;stroke:none" /><path
         d="m 440.51136,152.94771 c -0.03,0.232 -0.162,0.412 -0.162,0.412 0.823,-0.025 1.354,0.297 1.354,0.297 l 0,-5.277 c 0.069,-0.027 0.128,-0.034 0.197,-0.034 0.598,0 0.788,0.597 0.788,1.292 0,0.749 -0.333,1.402 -0.959,1.438 l 0.69,0.83 c 0.371,0 0.809,-0.269 1.071,-0.617 0.281,-0.366 0.432,-0.928 0.432,-1.446 0,-0.687 -0.206,-1.32 -0.625,-1.766 -0.433,-0.455 -0.976,-0.55 -1.527,-0.55 l -1.256,-0.002 0,4.545 c 0,0 0.013,0.754 -0.003,0.878"
         id="path4468"
         style="fill:white;fill-opacity:1;fill-rule:nonzero;stroke:none" /><path
         d="m 454.00536,139.48471 c 0,0 -4.059,-1.439 -10.085,-1.431 -6.054,0.009 -10.143,1.428 -10.143,1.428 l 0,3.213 c 0,0 4.082,1.347 10.108,1.338 6.055,-0.008 10.12,-1.338 10.12,-1.338 l 0,-3.21"
         id="path4470"
         style="fill:#00685d;fill-opacity:1;fill-rule:nonzero;stroke:none" /><path
         d="m 446.50136,162.19471 c 0,0 0.383,0.938 1.501,0.858 0.6,-0.054 1.092,-0.644 1.102,-1.078 0,0 0.034,-0.446 -0.341,-0.852 0,0 0.823,-0.009 1.173,-0.408 0,0 0.413,-0.37 0.342,-0.99 -0.068,-0.599 -0.533,-1.054 -0.812,-1.16 -0.416,-0.158 -0.874,-0.177 -1.218,-0.106 0,0 0.344,-0.888 -0.136,-1.415 -0.48,-0.527 -1.706,-0.681 -2.304,0.592 0,0 -0.639,-1.013 -1.74,-0.255 0,0 -0.782,0.586 -0.249,1.611 0,0 -0.49,-0.071 -0.52,-0.077 0,0 0.439,-1.694 -0.627,-2.104 0,0 -0.625,-0.323 -1.125,-0.14 -0.397,0.145 -0.561,0.248 -0.821,0.639 0,0 -1.37,-0.676 -2.013,-0.202 -0.676,0.499 -0.894,1.401 -0.498,2.227 0.284,0.591 0.458,0.661 0.458,0.661 0,0 -0.799,0.656 -0.594,1.755 0.219,1.172 1.41,1.167 1.498,1.167 0.089,0 0.835,0.005 1.279,-0.492 0,0 0.444,1.094 1.575,1.125 1.125,0.031 1.428,-0.772 1.469,-0.983 0.043,-0.22 0.024,-0.651 -0.296,-1.065 0,0 0.277,0.026 0.526,-0.057 0,0 0.07,1.24 1.125,1.374 0.779,0.09 1.246,-0.625 1.246,-0.625"
         id="path4472"
         style="fill:#ed1b2e;fill-opacity:1;fill-rule:nonzero;stroke:none" /><path
         d="m 440.65336,157.10671 c 0,0 0.899,-1.262 2.322,-0.242 0.327,0.235 0.707,0.851 0.483,1.993 l 0.195,0 c -0.343,-0.973 0.333,-1.558 0.341,-1.564 l 0.004,-0.004 0.005,-0.003 c 0.372,-0.256 0.738,-0.35 1.085,-0.279 0.522,0.107 0.696,0.404 0.708,0.423 l 0.004,-0.008 c 0.275,-0.585 0.623,-0.787 1.153,-0.867 0.465,-0.07 0.947,0.097 1.244,0.411 0.491,0.52 0.236,1.278 0.221,1.317 l 0.005,-0.002 c 0.034,-0.014 0.712,-0.231 1.291,0.093 0.419,0.235 0.689,0.655 0.801,1.312 l -0.234,0.059 c -0.063,-0.558 -0.319,-0.974 -0.675,-1.169 -0.576,-0.316 -1.306,-0.016 -1.313,-0.013 l -0.248,0.104 0.097,-0.25 c 0.003,-0.009 0.311,-0.83 -0.115,-1.297 -0.237,-0.261 -0.655,-0.397 -1.04,-0.339 -0.32,0.049 -0.766,0.244 -1.075,0.902 l -0.089,0.189 -0.111,-0.176 c -0.002,-0.004 -0.247,-0.379 -0.672,-0.465 -0.284,-0.058 -0.589,0.024 -0.907,0.243 l 0.008,-0.006 c -0.027,0.022 -0.659,0.574 -0.219,1.473 l 0.09,0.183 -0.686,-0.066 -0.125,-0.012 0.024,-0.123 c 0.203,-1.036 -0.118,-1.578 -0.424,-1.85 -0.365,-0.324 -0.806,-0.397 -1.141,-0.33 -0.447,0.09 -0.601,0.271 -0.839,0.629 l -0.058,0.088 -0.092,-0.051 c -0.011,-0.005 -1.101,-0.558 -1.849,-0.107 l 0.006,-0.004 c -0.438,0.314 -0.666,0.657 -0.725,1.043 -0.07,0.464 0.155,1.06 0.57,1.654 l -0.315,-0.044 c -0.375,-0.543 -0.591,-1.115 -0.51,-1.651 0.067,-0.358 0.307,-0.944 0.98,-1.252 0.644,-0.295 1.254,-0.176 1.825,0.058"
         id="path4474"
         style="fill:white;fill-opacity:1;fill-rule:nonzero;stroke:none" /><path
         d="m 442.09136,160.31871 c 0.066,-0.003 0.148,-0.021 0.212,-0.016 0.104,0 0.36,-0.12 0.36,-0.12 0.102,-0.05 0.21,-0.104 0.324,-0.167 0.286,-0.141 0.261,-0.078 0.356,-0.159 0.049,-0.054 0.075,-0.04 0.086,-0.071 0,-0.03 -0.045,-0.041 -0.117,-0.041 -0.073,0 -0.218,0.004 -0.33,0.015 -0.087,0.01 -0.306,-0.003 -0.306,-0.003 -0.087,-0.016 -0.198,-0.029 -0.271,-0.048 -0.073,-0.019 -0.169,-0.014 -0.241,0.002 -0.073,0.015 -0.274,0.008 -0.304,-0.004 -0.039,-0.029 0.031,-0.169 0.052,-0.221 0.098,-0.296 0.082,-0.511 0.126,-0.753 0.011,-0.139 -0.014,-0.222 -0.024,-0.361 -0.025,-0.113 -0.017,-0.189 -0.033,-0.274 -0.061,-0.169 -10e-4,-0.272 -0.062,-0.299 -0.023,0.02 -0.046,0.009 -0.069,0.059 0,0 -0.115,0.299 -0.123,0.356 -0.008,0.058 -0.065,0.257 -0.103,0.364 -0.038,0.107 -0.079,0.227 -0.125,0.316 -0.091,0.2 -0.193,0.412 -0.218,0.44 -0.018,0.05 -0.051,0.184 -0.064,0.218 -0.025,0.038 -0.072,0.015 -0.11,0.005 -0.031,-0.035 -0.103,-0.084 -0.131,-0.128 -0.129,-0.169 -0.307,-0.308 -0.485,-0.437 -0.087,-0.077 -0.486,-0.337 -0.538,-0.389 -0.058,-0.04 -0.109,-0.027 -0.132,0.013 0,0.07 0.212,0.241 0.248,0.302 0,0 0.054,0.094 0.071,0.12 0.017,0.026 0.061,0.117 0.088,0.173 0.087,0.33 0.417,0.522 0.504,0.851 0.014,0.034 0.04,0.095 0.006,0.125 -0.251,0.212 -0.574,0.3 -0.842,0.484 -0.037,0.018 -0.078,0.087 -0.134,0.141 -0.046,0.03 -0.113,0.084 -0.143,0.108 -0.049,0.035 -0.115,0.064 -0.118,0.107 0.047,0.059 0.175,0.048 0.242,0.014 0.096,-0.018 0.136,-0.087 0.253,-0.095 0.117,-0.033 0.918,-0.294 1.322,-0.329 0.123,0.011 0.186,0.391 0.282,0.509 0.016,0.069 0.041,0.118 0.066,0.21 0.041,0.073 0.057,0.141 0.106,0.202 0,0 0.024,0.051 0.063,0.141 0.046,0.104 0.061,0.14 0.085,0.199 0.031,0.054 0.167,0.173 0.178,0.072 0.007,-0.061 -0.039,-0.154 -0.039,-0.154 -0.004,-0.047 -0.023,-0.054 -0.044,-0.156 -0.011,-0.052 -0.02,-0.081 -0.016,-0.111 0.006,-0.038 -0.002,-0.147 -0.002,-0.147 -0.018,-0.091 -0.03,-0.158 -0.051,-0.259 0.005,-0.104 0.012,-0.201 -0.002,-0.344 -0.002,-0.029 -0.012,-0.081 -0.028,-0.127 -0.008,-0.059 -0.05,-0.258 -0.032,-0.277 0.031,-0.033 0.192,-0.052 0.207,-0.056"
         id="path4476"
         style="fill:white;fill-opacity:1;fill-rule:nonzero;stroke:none" /><path
         d="m 442.51936,159.92571 c -0.047,-0.002 -0.205,0.009 -0.266,0.006 -0.062,-0.004 -0.08,-0.008 -0.162,-0.018 -0.083,-0.011 -0.294,0.041 -0.352,0.045 -0.018,0.002 -0.046,0.001 -0.089,0.004 -0.045,-0.009 -0.046,-0.059 -0.048,-0.09 0.01,-0.027 0.004,-0.096 0.014,-0.119 0.016,-0.037 0.085,-0.242 0.085,-0.242 0.029,-0.191 0.047,-0.269 0.055,-0.411 0.037,-0.147 0.067,-0.378 0.036,-0.375 -0.038,0.013 -0.227,0.527 -0.257,0.628 -0.042,0.075 -0.068,0.14 -0.106,0.246 0,0 -0.082,0.151 -0.092,0.183 -0.014,0.03 0.001,0.069 -0.01,0.098 -0.011,0.015 -0.029,0.025 -0.06,0.021 -0.014,-0.014 -0.039,-0.039 -0.067,-0.05 0,0 -0.026,-0.015 -0.044,-0.034 0,0 -0.131,-0.082 -0.191,-0.129 -0.06,-0.048 -0.112,-0.138 -0.193,-0.229 -0.081,-0.092 -0.206,-0.186 -0.24,-0.225 -0.023,-0.027 -0.057,-0.015 -0.087,-0.017 -0.037,-0.002 0.018,0.061 0.059,0.113 0.041,0.053 0.052,0.069 0.074,0.113 0.021,0.044 0.117,0.147 0.178,0.23 0.061,0.082 0.079,0.121 0.13,0.189 0.051,0.067 0.072,0.075 0.126,0.126 0.011,0.026 0.036,0.025 0.032,0.075 0.005,0.089 -0.068,0.162 -0.089,0.188 -0.052,0.029 -0.107,0.081 -0.149,0.099 -0.181,0.124 -0.538,0.215 -0.471,0.271 0.035,0.018 0.333,-0.068 0.45,-0.096 0.037,-0.014 0.068,-0.019 0.097,-0.03 0.033,-0.009 0.054,-0.02 0.085,-0.028 0.034,-0.018 0.073,-0.034 0.095,-0.044 0.051,-0.023 0.105,-0.033 0.268,-0.07 0.069,-0.002 0.09,-0.004 0.126,0.073 0.064,0.137 0.119,0.239 0.17,0.339 0.06,0.12 0.044,0.187 0.07,0.229 0.011,0.022 0.057,0.1 0.072,0.111 0.015,0.011 0.011,0.014 0.022,0 0.01,-0.015 -0.028,-0.138 -0.028,-0.156 0,-0.057 -0.017,-0.125 -0.014,-0.233 0.004,-0.115 -0.056,-0.259 -0.056,-0.259 -0.033,-0.068 -0.004,-0.097 -0.043,-0.188 -0.011,-0.068 0.041,-0.06 0.112,-0.086 0.032,-0.005 0.061,-0.013 0.098,-0.019 0.043,-0.003 0.167,-0.061 0.309,-0.059 0.052,-0.008 0.093,-0.033 0.136,-0.035 0.033,0.002 0.07,-0.01 0.114,-0.011 0.025,-0.003 0.135,-0.052 0.173,-0.065 0.038,-0.013 0.125,-0.088 0.051,-0.079 -0.074,0.009 -0.123,0.01 -0.123,0.01"
         id="path4478"
         style="fill:#ed1b2e;fill-opacity:1;fill-rule:nonzero;stroke:none" /><path
         d="m 447.45036,160.31871 c 0.066,-0.003 0.147,-0.021 0.211,-0.016 0.105,0 0.361,-0.12 0.361,-0.12 0.101,-0.05 0.209,-0.104 0.323,-0.167 0.287,-0.141 0.261,-0.078 0.357,-0.159 0.049,-0.054 0.075,-0.04 0.086,-0.071 0,-0.03 -0.044,-0.041 -0.118,-0.041 -0.072,0 -0.218,0.004 -0.328,0.015 -0.089,0.01 -0.307,-0.003 -0.307,-0.003 -0.088,-0.016 -0.199,-0.029 -0.272,-0.048 -0.072,-0.019 -0.168,-0.014 -0.241,0.002 -0.073,0.015 -0.273,0.008 -0.304,-0.004 -0.038,-0.029 0.031,-0.169 0.053,-0.221 0.097,-0.296 0.081,-0.511 0.125,-0.753 0.012,-0.139 -0.014,-0.222 -0.024,-0.361 -0.025,-0.113 -0.016,-0.189 -0.033,-0.274 -0.061,-0.169 -10e-4,-0.272 -0.062,-0.299 -0.023,0.02 -0.045,0.009 -0.069,0.059 0,0 -0.114,0.299 -0.122,0.356 -0.008,0.058 -0.065,0.257 -0.103,0.364 -0.039,0.107 -0.08,0.227 -0.126,0.316 -0.091,0.2 -0.193,0.412 -0.217,0.44 -0.018,0.05 -0.051,0.184 -0.065,0.218 -0.024,0.038 -0.072,0.015 -0.109,0.005 -0.032,-0.035 -0.104,-0.084 -0.131,-0.128 -0.13,-0.169 -0.308,-0.308 -0.486,-0.437 -0.087,-0.077 -0.485,-0.337 -0.538,-0.389 -0.057,-0.04 -0.108,-0.027 -0.132,0.013 0.001,0.07 0.212,0.241 0.248,0.302 0,0 0.054,0.094 0.071,0.12 0.017,0.026 0.061,0.117 0.088,0.173 0.088,0.33 0.417,0.522 0.505,0.851 0.013,0.034 0.04,0.095 0.005,0.125 -0.251,0.212 -0.574,0.3 -0.842,0.484 -0.036,0.018 -0.077,0.087 -0.133,0.141 -0.046,0.03 -0.114,0.084 -0.143,0.108 -0.049,0.035 -0.115,0.064 -0.118,0.107 0.046,0.059 0.175,0.048 0.241,0.014 0.096,-0.018 0.137,-0.087 0.254,-0.095 0.117,-0.033 0.917,-0.294 1.321,-0.329 0.124,0.011 0.186,0.391 0.283,0.509 0.016,0.069 0.041,0.118 0.066,0.21 0.04,0.073 0.057,0.141 0.106,0.202 0,0 0.024,0.051 0.063,0.141 0.045,0.104 0.061,0.14 0.085,0.199 0.03,0.054 0.167,0.173 0.178,0.072 0.007,-0.061 -0.039,-0.154 -0.039,-0.154 -0.004,-0.047 -0.024,-0.054 -0.045,-0.156 -0.011,-0.052 -0.02,-0.081 -0.015,-0.111 0.005,-0.038 -0.002,-0.147 -0.002,-0.147 -0.018,-0.091 -0.031,-0.158 -0.052,-0.259 0.006,-0.104 0.013,-0.201 -10e-4,-0.344 -0.002,-0.029 -0.013,-0.081 -0.029,-0.127 -0.007,-0.059 -0.05,-0.258 -0.031,-0.277 0.03,-0.033 0.192,-0.052 0.207,-0.056"
         id="path4480"
         style="fill:white;fill-opacity:1;fill-rule:nonzero;stroke:none" /><path
         d="m 447.87836,159.92571 c -0.047,-0.002 -0.205,0.009 -0.266,0.006 -0.062,-0.004 -0.08,-0.008 -0.163,-0.018 -0.083,-0.011 -0.294,0.041 -0.351,0.045 -0.018,0.002 -0.046,0.001 -0.089,0.004 -0.046,-0.009 -0.046,-0.059 -0.049,-0.09 0.011,-0.027 0.005,-0.096 0.014,-0.119 0.017,-0.037 0.086,-0.242 0.086,-0.242 0.029,-0.191 0.047,-0.269 0.054,-0.411 0.038,-0.147 0.067,-0.378 0.037,-0.375 -0.039,0.013 -0.227,0.527 -0.258,0.628 -0.042,0.075 -0.067,0.14 -0.106,0.246 0,0 -0.081,0.151 -0.092,0.183 -0.013,0.03 0.002,0.069 -0.009,0.098 -0.012,0.015 -0.029,0.025 -0.06,0.021 -0.015,-0.014 -0.04,-0.039 -0.067,-0.05 0,0 -0.026,-0.015 -0.045,-0.034 0,0 -0.131,-0.082 -0.19,-0.129 -0.06,-0.048 -0.113,-0.138 -0.193,-0.229 -0.082,-0.092 -0.207,-0.186 -0.241,-0.225 -0.023,-0.027 -0.057,-0.015 -0.087,-0.017 -0.036,-0.002 0.018,0.061 0.059,0.113 0.042,0.053 0.053,0.069 0.074,0.113 0.021,0.044 0.117,0.147 0.178,0.23 0.061,0.082 0.079,0.121 0.131,0.189 0.05,0.067 0.072,0.075 0.126,0.126 0.011,0.026 0.035,0.025 0.032,0.075 0.005,0.089 -0.069,0.162 -0.089,0.188 -0.052,0.029 -0.107,0.081 -0.15,0.099 -0.181,0.124 -0.538,0.215 -0.471,0.271 0.036,0.018 0.333,-0.068 0.45,-0.096 0.037,-0.014 0.068,-0.019 0.097,-0.03 0.033,-0.009 0.054,-0.02 0.086,-0.028 0.034,-0.018 0.072,-0.034 0.094,-0.044 0.052,-0.023 0.106,-0.033 0.269,-0.07 0.069,-0.002 0.089,-0.004 0.125,0.073 0.065,0.137 0.119,0.239 0.17,0.339 0.061,0.12 0.045,0.187 0.071,0.229 0.01,0.022 0.057,0.1 0.071,0.111 0.015,0.011 0.012,0.014 0.022,0 0.011,-0.015 -0.027,-0.138 -0.027,-0.156 0,-0.057 -0.017,-0.125 -0.014,-0.233 0.004,-0.115 -0.057,-0.259 -0.057,-0.259 -0.033,-0.068 -0.002,-0.097 -0.042,-0.188 -0.012,-0.068 0.04,-0.06 0.111,-0.086 0.033,-0.005 0.061,-0.013 0.099,-0.019 0.043,-0.003 0.167,-0.061 0.309,-0.059 0.052,-0.008 0.093,-0.033 0.135,-0.035 0.034,0.002 0.071,-0.01 0.115,-0.011 0.025,-0.003 0.135,-0.052 0.173,-0.065 0.038,-0.013 0.124,-0.088 0.05,-0.079 -0.074,0.009 -0.122,0.01 -0.122,0.01"
         id="path4482"
         style="fill:#ed1b2e;fill-opacity:1;fill-rule:nonzero;stroke:none" /><path
         d="m 439.34136,140.05371 0,0.821 -0.863,0 0,-0.821 -0.504,0 0,2.033 0.504,0 0,-0.778 0.863,0 0,0.778 0.505,0 0,-2.033 -0.505,0"
         id="path4484"
         style="fill:white;fill-opacity:1;fill-rule:nonzero;stroke:none" /><path
         d="m 441.92936,141.67971 c -0.274,0 -0.516,-0.207 -0.516,-0.602 0,-0.355 0.16,-0.613 0.504,-0.613 0.285,0 0.531,0.187 0.531,0.602 0,0.402 -0.211,0.613 -0.519,0.613 z m -0.04,-1.661 c -0.664,0 -1.016,0.411 -1.016,1.028 0,0.665 0.516,1.075 1.091,1.075 0.578,0 1.024,-0.329 1.024,-1.028 0,-0.668 -0.508,-1.075 -1.099,-1.075"
         id="path4486"
         style="fill:white;fill-opacity:1;fill-rule:nonzero;stroke:none" /><path
         d="m 444.84036,141.65671 0,-1.603 -0.504,0 0,1.603 -0.531,0 0,0.43 1.567,0 0,-0.43 -0.532,0"
         id="path4488"
         style="fill:white;fill-opacity:1;fill-rule:nonzero;stroke:none" /><path
         d="m 446.41536,140.05371 0,2.033 1.251,0 0,-0.395 -0.746,0 0,-0.407 0.711,0 0,-0.382 -0.711,0 0,-0.446 0.746,0 0,-0.403 -1.251,0"
         id="path4490"
         style="fill:white;fill-opacity:1;fill-rule:nonzero;stroke:none" /><path
         d="m 448.88536,140.05371 0,2.033 0.504,0 0,-1.587 0.661,0 0,-0.446 -1.165,0"
         id="path4492"
         style="fill:white;fill-opacity:1;fill-rule:nonzero;stroke:none" /></g></g></svg>