<?xml version="1.0" encoding="UTF-8"?>
<svg version="1.1" xmlns="http://www.w3.org/2000/svg" width="600" height="600">
<path d="M0 0 C198 0 396 0 600 0 C600 198 600 396 600 600 C402 600 204 600 0 600 C0 402 0 204 0 0 Z " fill="#FEFEFE" transform="translate(0,0)"/>
<path d="M0 0 C0.99 0.33 1.98 0.66 3 1 C4.04119351 3.70123724 4.90328845 6.28814435 5.6875 9.0625 C5.91244141 9.82111328 6.13738281 10.57972656 6.36914062 11.36132812 C6.9237805 13.23766304 7.46332298 15.11844855 8 17 C8.43183594 16.41605469 8.86367188 15.83210937 9.30859375 15.23046875 C10.84327137 13.20667909 12.41993118 11.24913486 14.0625 9.3125 C14.56910156 8.71050781 15.07570313 8.10851562 15.59765625 7.48828125 C17.76816718 5.18475851 18.84412983 5.00677696 22.0546875 4.8671875 C28.15292808 4.87965834 34.17179446 4.94163466 40.25 5.5 C52.39655022 6.60571006 63.15149294 6.15726076 74 0 C72.63016497 3.16115776 72.0109362 3.9927092 69 6 C69.495 7.485 69.495 7.485 70 9 C67.19195732 11.96404505 64.81684226 14.44499019 61 16 C61 16.66 61 17.32 61 18 C57.37 18 53.74 18 50 18 C51.32 18.99 52.64 19.98 54 21 C53.34 21 52.68 21 52 21 C52 21.66 52 22.32 52 23 C50.35 23 48.7 23 47 23 C47 24.32 47 25.64 47 27 C47 27.66 47 28.32 47 29 C45.1875 29.625 45.1875 29.625 43 30 C42.01 29.34 41.02 28.68 40 28 C40.495 29.98 40.495 29.98 41 32 C39.02 32.33 37.04 32.66 35 33 C35 33.66 35 34.32 35 35 C33.68 35.66 32.36 36.32 31 37 C31.33 37.66 31.66 38.32 32 39 C30.02 39.66 28.04 40.32 26 41 C26 41.66 26 42.32 26 43 C25.01 43.495 25.01 43.495 24 44 C24.556875 44.474375 25.11375 44.94875 25.6875 45.4375 C31.74070307 52.1451034 33.57092127 57.64834455 33.17578125 66.69140625 C33.11777344 67.45324219 33.05976563 68.21507812 33 69 C35.07817314 65.88274028 35.22917037 65.45089463 35.01953125 61.98046875 C34.99052734 61.20509766 34.96152344 60.42972656 34.93164062 59.63085938 C34.85275354 58.01302755 34.76177062 56.3957364 34.65820312 54.77929688 C34.5231977 50.59412861 34.63679826 47.85729094 37.29296875 44.49609375 C40.64949277 41.40111705 42.45518403 40.83768514 47 41 C50.42741629 43.08625339 51.72481037 44.1744311 53 48 C49.96967558 49.51516221 47.34885038 49.17028053 44 49 C41.0625 48 41.0625 48 39 47 C39.14042877 48.64630328 39.28749329 50.29204179 39.4375 51.9375 C39.51871094 52.85402344 39.59992188 53.77054687 39.68359375 54.71484375 C39.76044976 56.96159732 39.76044976 56.96159732 41 58 C41.40232945 63.83377708 40.98468106 67.80087815 38 73 C30.96921736 80.54025964 24.50362324 80.25705055 14.52783203 80.61254883 C12.50623951 80.68726938 10.48575168 80.77795152 8.46484375 80.86914062 C7.18738281 80.91619141 5.90992188 80.96324219 4.59375 81.01171875 C2.84094727 81.08072388 2.84094727 81.08072388 1.05273438 81.15112305 C-1.92670017 81.00362865 -3.50666573 80.56906783 -6 79 C-4.125 75.125 -4.125 75.125 -3 74 C-0.34536879 73.54540142 2.32189138 73.29756762 5 73 C4.195625 72.34 3.39125 71.68 2.5625 71 C-0.75148924 67.12020772 -0.74577025 64.99985175 -1 60 C-2.65 60 -4.3 60 -6 60 C-6.09087891 61.04800781 -6.09087891 61.04800781 -6.18359375 62.1171875 C-6.26738281 63.02726562 -6.35117187 63.93734375 -6.4375 64.875 C-6.51871094 65.77992188 -6.59992188 66.68484375 -6.68359375 67.6171875 C-7 70 -7 70 -8 72 C-8.66 72 -9.32 72 -10 72 C-9.67 74.97 -9.34 77.94 -9 81 C-9.66 80.01 -10.32 79.02 -11 78 C-13.43379708 78.41962019 -14.72746073 78.72746073 -16.5 80.5 C-18.27253927 82.27253927 -19.56620292 82.58037981 -22 83 C-21.67 81.68 -21.34 80.36 -21 79 C-22.65 79 -24.3 79 -26 79 C-25.67 77.68 -25.34 76.36 -25 75 C-22.36 74.67 -19.72 74.34 -17 74 C-17.19335938 73.41476562 -17.38671875 72.82953125 -17.5859375 72.2265625 C-20.11108602 63.90107283 -20.94818886 55.60474796 -21.77709961 46.98681641 C-21.97381581 45.23339207 -22.26687202 43.49135615 -22.57421875 41.75390625 C-22.98576727 39.09205571 -22.99543082 36.91566983 -22.6875 34.25 C-22.60886719 33.49203125 -22.53023437 32.7340625 -22.44921875 31.953125 C-22 30 -22 30 -20 28 C-20 27.34 -20 26.68 -20 26 C-19.34 26 -18.68 26 -18 26 C-18 25.34 -18 24.68 -18 24 C-16.37446717 22.29319053 -14.70884005 20.62339805 -13 19 C-14.1859733 15.4420801 -14.71068486 14.72689045 -18 13 C-21.01709022 12.75030977 -23.98005968 12.82577267 -27 13 C-26.8937566 9.28148107 -26.00176341 8.00189244 -23.4375 5.25 C-18.95221766 2.23160245 -13.82872949 2.36422573 -8.59936523 2.27636719 C-4.85526617 2.20689182 -3.20114704 2.13409803 0 0 Z " fill="#696460" transform="translate(274,211)"/>
<path d="M0 0 C6.80030174 3.57437347 10.1842729 7.53489878 12.84228516 14.81420898 C15.12153081 22.71921177 14.8569263 33.27720153 11.55078125 40.8046875 C8.51249412 45.68282628 4.92236211 49.0673665 -0.51171875 51.0546875 C-6.73656636 51.94793918 -12.29976502 52.06364885 -18.07421875 49.4296875 C-25.97423296 41.73223776 -28.61447147 35.70177209 -28.94921875 24.5546875 C-28.76195987 17.06433242 -27.81998564 11.57311068 -22.60546875 6.02734375 C-15.83585861 -0.14866252 -9.14801385 -3.44295389 0 0 Z " fill="#FCFCFC" transform="translate(439.51171875,336.9453125)"/>
<path d="M0 0 C6.27 0 12.54 0 19 0 C19 0.66 19 1.32 19 2 C18.01 2.66 17.02 3.32 16 4 C16.93780003 15.72250032 21.19447963 26.94779721 25 38 C27.15536031 33.78448185 28.92716437 29.45451977 30.6875 25.0625 C31.18733398 23.86463867 31.18733398 23.86463867 31.69726562 22.64257812 C34.04925 16.93185307 34.04925 16.93185307 33 11 C31.87897979 8.85031323 31.87897979 8.85031323 30.5 6.875 C28.90608165 4.49338944 27.91833329 2.75499986 27 0 C33.27 0 39.54 0 46 0 C45.34 1.32 44.68 2.64 44 4 C43.02259621 11.10497373 45.99112424 17.20281372 48.5 23.75 C49.34789487 25.99322936 50.19184095 28.23795649 51.03125 30.484375 C51.59682617 31.96502441 51.59682617 31.96502441 52.17382812 33.47558594 C53 36 53 36 53 39 C53.66 39 54.32 39 55 39 C55.08636719 38.44054687 55.17273438 37.88109375 55.26171875 37.3046875 C56.20279994 31.9344811 57.65899784 27.09044184 59.625 22 C61.66632962 16.43328807 63.53454192 10.9159237 62 5 C60.68 3.35 59.36 1.7 58 0 C63.94 0 69.88 0 76 0 C74 4 74 4 72.125 6.5 C69.55077325 10.2805987 68.42447126 14.4740445 67.0625 18.8046875 C66.0419279 21.87390801 64.85454284 24.78637674 63.5625 27.75 C61.16675457 33.3351279 59.34257417 39.01578228 57.61157227 44.83300781 C56.09297559 49.90702441 56.09297559 49.90702441 55 51 C52.66702567 51.04092937 50.33294775 51.04241723 48 51 C46.57180601 47.05043587 45.14775072 43.09941203 43.72753906 39.14697266 C43.24365357 37.80216068 42.75863256 36.45775672 42.27246094 35.11376953 C41.57449334 33.18367547 40.88060102 31.25215863 40.1875 29.3203125 C39.76855469 28.15773926 39.34960938 26.99516602 38.91796875 25.79736328 C38 23 38 23 38 21 C37.34 21 36.68 21 36 21 C35.773125 22.175625 35.54625 23.35125 35.3125 24.5625 C33.29083889 33.65997499 30.34579282 42.75186261 26 51 C23.69 51 21.38 51 19 51 C18.57702637 49.6699292 18.57702637 49.6699292 18.14550781 48.31298828 C17.08235429 44.97594006 16.01588604 41.63998726 14.94726562 38.3046875 C14.48828207 36.86988176 14.03056573 35.43466993 13.57421875 33.99902344 C10.15083636 23.2333867 6.77656326 12.7604 1 3 C0.67 2.01 0.34 1.02 0 0 Z " fill="#6E6A66" transform="translate(76,337)"/>
<path d="M0 0 C27.72093023 0 27.72093023 0 33.9375 5.6875 C36.47576668 9.76411012 36.82996817 12.33725745 36 17 C34.6631957 21.08904843 33.18746107 23.14219069 29.5625 25.3125 C26.88427835 26.58113131 24.82511368 27.37288685 22 28 C23.93651931 30.75069178 25.87438842 33.50042994 27.8125 36.25 C28.35970703 37.02730469 28.90691406 37.80460937 29.47070312 38.60546875 C30.00244141 39.35957031 30.53417969 40.11367188 31.08203125 40.890625 C31.56905518 41.58188477 32.0560791 42.27314453 32.55786133 42.98535156 C33.56520822 44.39260169 34.61025167 45.77328655 35.68237305 47.13183594 C37 49 37 49 37 51 C33 51 33 51 31.59960938 49.62646484 C31.18517578 48.99434082 30.77074219 48.3622168 30.34375 47.7109375 C29.87839844 47.01613281 29.41304688 46.32132812 28.93359375 45.60546875 C28.46050781 44.86941406 27.98742187 44.13335937 27.5 43.375 C26.79037109 42.30572266 26.79037109 42.30572266 26.06640625 41.21484375 C25.36837891 40.16103516 25.36837891 40.16103516 24.65625 39.0859375 C24.19766602 38.39483887 23.73908203 37.70374023 23.26660156 36.99169922 C22.14114278 35.22194349 21.13147993 33.37973568 20.140625 31.53125 C18.13514712 28.63989917 18.13514712 28.63989917 14.328125 28.1953125 C12.96978949 28.13722338 11.60956991 28.12059915 10.25 28.125 C7.8575 28.08375 5.465 28.0425 3 28 C3 35.59 3 43.18 3 51 C2.01 51 1.02 51 0 51 C0 34.17 0 17.34 0 0 Z " fill="#FAFAFA" transform="translate(339,337)"/>
<path d="M0 0 C27.7 0 27.7 0 32.875 4.5 C36.13297014 8.33290605 36.34828906 10.77657829 36.27734375 15.6796875 C35.84203773 19.32154351 34.43146136 21.31259534 32 24 C28.24779819 26.34512613 26.47038145 27 22 27 C26.2231686 33.82305677 30.65555154 40.38314881 35.49609375 46.78515625 C37 49 37 49 37 51 C35.68 51 34.36 51 33 51 C31.49194336 49.41113281 31.49194336 49.41113281 30.08984375 47.203125 C29.57486328 46.4090625 29.05988281 45.615 28.52929688 44.796875 C28.00400391 43.95640625 27.47871094 43.1159375 26.9375 42.25 C25.88487845 40.6088848 24.83151696 38.96824392 23.77734375 37.328125 C23.31577881 36.5949707 22.85421387 35.86181641 22.37866211 35.10644531 C21.00971113 32.95137737 21.00971113 32.95137737 19.32641602 30.85449219 C18 29 18 29 18 27 C13.05 27 8.1 27 3 27 C3 34.92 3 42.84 3 51 C2.01 51 1.02 51 0 51 C0 34.17 0 17.34 0 0 Z " fill="#FBFBFA" transform="translate(286,337)"/>
<path d="M0 0 C2.36125183 0.22622681 2.36125183 0.22622681 5 1 C6.28462219 2.8843689 6.28462219 2.8843689 7.2199707 5.38037109 C7.75996452 6.7771962 7.75996452 6.7771962 8.31086731 8.20223999 C8.67878891 9.21573517 9.04671051 10.22923035 9.42578125 11.2734375 C9.81823532 12.30812164 10.21068939 13.34280579 10.61503601 14.40884399 C11.44192943 16.59945483 12.25921356 18.79371319 13.06762695 20.99121094 C14.30741854 24.36118769 15.5736792 27.72019848 16.84570312 31.078125 C17.6447894 33.20514366 18.44236666 35.33272998 19.23828125 37.4609375 C19.61632401 38.47038422 19.99436676 39.47983093 20.38386536 40.51986694 C20.72810043 41.457388 21.07233551 42.39490906 21.42700195 43.36083984 C21.731689 44.18611176 22.03637604 45.01138367 22.35029602 45.86166382 C23 48 23 48 23 51 C22.01 51 21.02 51 20 51 C19.16280617 48.70967689 18.3301071 46.41789043 17.5 44.125 C17.26152344 43.47402344 17.02304687 42.82304687 16.77734375 42.15234375 C15 37.2265625 15 37.2265625 15 35 C6.75 35 -1.5 35 -10 35 C-10.33 37.31 -10.66 39.62 -11 42 C-11.97265625 44.65234375 -11.97265625 44.65234375 -13.0625 46.9375 C-13.42472656 47.70964844 -13.78695312 48.48179687 -14.16015625 49.27734375 C-14.43730469 49.84582031 -14.71445313 50.41429687 -15 51 C-15.99 51 -16.98 51 -18 51 C-17.34977438 45.16071892 -15.27668151 40.01205901 -13.18359375 34.5703125 C-12.61971703 33.084814 -12.61971703 33.084814 -12.04444885 31.56930542 C-10.84733896 28.41919291 -9.64253734 25.27208735 -8.4375 22.125 C-7.62253706 19.98456904 -6.80807818 17.84394609 -5.99414062 15.703125 C-4.00192872 10.46651139 -2.00340032 5.23234267 0 0 Z " fill="#6B6662" transform="translate(249,337)"/>
<path d="M0 0 C7.26 0 14.52 0 22 0 C22 0.66 22 1.32 22 2 C21.34894287 2.37809814 20.69788574 2.75619629 20.02709961 3.14575195 C17.63650137 4.93532116 17.63650137 4.93532116 17.53344727 8.42651367 C17.52594474 9.84035481 17.53821928 11.2543887 17.56640625 12.66796875 C17.55679262 14.21679783 17.54702192 15.76562593 17.53710938 17.31445312 C17.54567249 19.74564294 17.56239961 22.17656454 17.5847168 24.60766602 C17.68810077 41.22875787 17.68810077 41.22875787 13.34838867 46.68481445 C8.82152543 51.10020687 3.50536167 52.22685845 -2.6875 52.4375 C-8.5372248 52.1923998 -12.17427268 50.8750713 -16.3125 46.625 C-18.01485352 43.97689453 -18.64550202 42.10185729 -19 39 C-14.545 38.505 -14.545 38.505 -10 38 C-9.71125 39.11375 -9.4225 40.2275 -9.125 41.375 C-8.30758671 45.00291092 -8.30758671 45.00291092 -6 47 C-0.7020588 47.60725257 -0.7020588 47.60725257 3.9375 45.625 C6.27990888 42.0424923 6.16128097 38.95976181 6.16796875 34.796875 C6.17129715 34.08146545 6.17462555 33.36605591 6.17805481 32.62896729 C6.18312176 31.11251468 6.18546321 29.59605091 6.18530273 28.07958984 C6.18747838 25.77292128 6.20560585 23.46673947 6.22460938 21.16015625 C6.22754562 19.68489746 6.22952887 18.20963641 6.23046875 16.734375 C6.23765427 16.0497821 6.24483978 15.36518921 6.25224304 14.65985107 C6.23225355 10.41213267 5.69883232 6.90571971 4 3 C1.96756452 2.03122943 1.96756452 2.03122943 0 2 C0 1.34 0 0.68 0 0 Z " fill="#6F6A66" transform="translate(49,337)"/>
<path d="M0 0 C2.475 0.495 2.475 0.495 5 1 C6.51020661 3.70854159 7.61893858 6.13823447 8.69921875 9.015625 C9.02034134 9.82360535 9.34146393 10.63158569 9.6723175 11.46405029 C10.696119 14.05245009 11.69200082 16.65060098 12.6875 19.25 C13.36862495 20.98639123 14.0515473 22.72207854 14.73632812 24.45703125 C16.26500029 28.33971884 17.77361625 32.22969214 19.27328491 36.12365723 C20.1639021 38.4231872 21.07677636 40.7133815 22 43 C23.58469007 40.6229649 24.57026165 38.80584909 25.58813477 36.20288086 C26.03353355 35.07172096 26.03353355 35.07172096 26.4879303 33.91770935 C26.80257736 33.1082637 27.11722443 32.29881805 27.44140625 31.46484375 C27.76914536 30.63038223 28.09688446 29.79592072 28.43455505 28.93617249 C29.48054382 26.27124357 30.52170533 23.60446127 31.5625 20.9375 C32.60776631 18.2673306 33.65402399 15.59755388 34.70115662 12.92811584 C35.35239889 11.26703008 36.00238833 9.60545249 36.65101624 7.94334412 C38.89019175 2.2196165 38.89019175 2.2196165 40 0 C41.32 0 42.64 0 44 0 C44 16.83 44 33.66 44 51 C43.01 51 42.02 51 41 51 C40.67 38.13 40.34 25.26 40 12 C37.60532133 17.38802701 35.43622451 22.36404556 33.5625 27.875 C31.67528705 33.26287649 29.5537341 38.43852302 27.11328125 43.59765625 C25.98413105 46.03424352 24.97641107 48.49878261 24 51 C23.01 51 22.02 51 21 51 C15.39 37.47 9.78 23.94 4 10 C3.67 23.53 3.34 37.06 3 51 C2.01 51 1.02 51 0 51 C0 34.17 0 17.34 0 0 Z " fill="#888481" transform="translate(173,337)"/>
<path d="M0 0 C27.72093023 0 27.72093023 0 33.9375 5.6875 C36.47576668 9.76411012 36.82996817 12.33725745 36 17 C34.6631957 21.08904843 33.18746107 23.14219069 29.5625 25.3125 C26.88427835 26.58113131 24.82511368 27.37288685 22 28 C23.93651931 30.75069178 25.87438842 33.50042994 27.8125 36.25 C28.35970703 37.02730469 28.90691406 37.80460937 29.47070312 38.60546875 C30.00244141 39.35957031 30.53417969 40.11367188 31.08203125 40.890625 C31.56905518 41.58188477 32.0560791 42.27314453 32.55786133 42.98535156 C33.56520822 44.39260169 34.61025167 45.77328655 35.68237305 47.13183594 C37 49 37 49 37 51 C33 51 33 51 31.59960938 49.62646484 C31.18517578 48.99434082 30.77074219 48.3622168 30.34375 47.7109375 C29.87839844 47.01613281 29.41304688 46.32132812 28.93359375 45.60546875 C28.46050781 44.86941406 27.98742187 44.13335937 27.5 43.375 C26.79037109 42.30572266 26.79037109 42.30572266 26.06640625 41.21484375 C25.36837891 40.16103516 25.36837891 40.16103516 24.65625 39.0859375 C24.19766602 38.39483887 23.73908203 37.70374023 23.26660156 36.99169922 C22.14114278 35.22194349 21.13147993 33.37973568 20.140625 31.53125 C18.13514712 28.63989917 18.13514712 28.63989917 14.328125 28.1953125 C12.96978949 28.13722338 11.60956991 28.12059915 10.25 28.125 C7.8575 28.08375 5.465 28.0425 3 28 C3 35.59 3 43.18 3 51 C2.01 51 1.02 51 0 51 C0 34.17 0 17.34 0 0 Z M3 3 C3 10.26 3 17.52 3 25 C7.7334375 25.0928125 7.7334375 25.0928125 12.5625 25.1875 C13.5429126 25.21481201 14.5233252 25.24212402 15.53344727 25.27026367 C21.9192068 25.33047615 26.94729953 24.65880364 31.9375 20.3125 C33.51904087 16.87032282 33.77912329 13.66260762 33 10 C30.13007546 6.22809917 27.50192879 4.32688428 23 3 C19.5572706 2.76297777 16.13619183 2.81211946 12.6875 2.875 C9.490625 2.91625 6.29375 2.9575 3 3 Z " fill="#77736F" transform="translate(339,337)"/>
<path d="M0 0 C27.7 0 27.7 0 32.875 4.5 C36.13297014 8.33290605 36.34828906 10.77657829 36.27734375 15.6796875 C35.84203773 19.32154351 34.43146136 21.31259534 32 24 C28.24779819 26.34512613 26.47038145 27 22 27 C26.2231686 33.82305677 30.65555154 40.38314881 35.49609375 46.78515625 C37 49 37 49 37 51 C35.68 51 34.36 51 33 51 C31.49194336 49.41113281 31.49194336 49.41113281 30.08984375 47.203125 C29.57486328 46.4090625 29.05988281 45.615 28.52929688 44.796875 C28.00400391 43.95640625 27.47871094 43.1159375 26.9375 42.25 C25.88487845 40.6088848 24.83151696 38.96824392 23.77734375 37.328125 C23.31577881 36.5949707 22.85421387 35.86181641 22.37866211 35.10644531 C21.00971113 32.95137737 21.00971113 32.95137737 19.32641602 30.85449219 C18 29 18 29 18 27 C13.05 27 8.1 27 3 27 C3 34.92 3 42.84 3 51 C2.01 51 1.02 51 0 51 C0 34.17 0 17.34 0 0 Z M3 3 C3 10.26 3 17.52 3 25 C7.7334375 25.0928125 7.7334375 25.0928125 12.5625 25.1875 C13.5429126 25.21481201 14.5233252 25.24212402 15.53344727 25.27026367 C21.9192068 25.33047615 26.94729953 24.65880364 31.9375 20.3125 C33.52023207 16.8677302 33.77241641 13.66533446 33 10 C29.87392778 5.77060817 27.01362597 4.2761957 22 3 C18.70178953 2.7717772 15.42893547 2.81081834 12.125 2.875 C9.11375 2.91625 6.1025 2.9575 3 3 Z " fill="#7E7A77" transform="translate(286,337)"/>
<path d="M0 0 C6.80030174 3.57437347 10.1842729 7.53489878 12.84228516 14.81420898 C15.12153081 22.71921177 14.8569263 33.27720153 11.55078125 40.8046875 C8.51249412 45.68282628 4.92236211 49.0673665 -0.51171875 51.0546875 C-6.73656636 51.94793918 -12.29976502 52.06364885 -18.07421875 49.4296875 C-25.97423296 41.73223776 -28.61447147 35.70177209 -28.94921875 24.5546875 C-28.76195987 17.06433242 -27.81998564 11.57311068 -22.60546875 6.02734375 C-15.83585861 -0.14866252 -9.14801385 -3.44295389 0 0 Z M-21.51171875 8.0546875 C-26.23041242 15.37402484 -26.45236444 23.59857363 -25.51171875 32.0546875 C-23.86525308 39.30303342 -20.68406529 43.9347222 -14.51171875 48.0546875 C-10.75358095 49.9337564 -6.60430388 49.56401361 -2.51171875 49.0546875 C3.06544909 47.08004258 7.01696281 43.31479505 9.64453125 38.05078125 C10.78884551 33.98740607 10.95414649 30.13637006 10.98828125 25.9296875 C10.99472656 25.16567627 11.00117188 24.40166504 11.0078125 23.61450195 C10.84171258 16.23822821 8.64341729 10.51306684 3.48828125 5.0546875 C-4.68532339 -0.72732886 -15.06784094 0.34062224 -21.51171875 8.0546875 Z " fill="#76716E" transform="translate(439.51171875,336.9453125)"/>
<path d="M0 0 C2.24575769 2.24575769 2.51739473 3.36042911 3.3125 6.375 C4.7713863 11.52973158 6.75602387 16.34018751 8.9140625 21.23828125 C10 24 10 24 11 29 C4.07 29 -2.86 29 -10 29 C-7.76647834 18.94915254 -7.76647834 18.94915254 -5.5625 14.5 C-3.29571107 9.74510844 -1.56587035 5.02726796 0 0 Z " fill="#F7F7F6" transform="translate(251,340)"/>
<path d="M0 0 C12.54 0 25.08 0 38 0 C38 0.99 38 1.98 38 3 C32.39 3 26.78 3 21 3 C21 18.84 21 34.68 21 51 C20.01 51 19.02 51 18 51 C18 35.16 18 19.32 18 3 C12.06 3 6.12 3 0 3 C0 2.01 0 1.02 0 0 Z " fill="#75716E" transform="translate(508,337)"/>
<path d="M0 0 C12.54 0 25.08 0 38 0 C38 0.99 38 1.98 38 3 C32.06 3 26.12 3 20 3 C20 18.84 20 34.68 20 51 C19.01 51 18.02 51 17 51 C17 35.16 17 19.32 17 3 C11.39 3 5.78 3 0 3 C0 2.01 0 1.02 0 0 Z " fill="#75716D" transform="translate(461,337)"/>
<path d="M0 0 C4.10703441 0.85563217 5.55401113 2.24378009 8 5.625 C8.62491523 9.58279649 8.61006839 11.63363886 6.5 15.0625 C2.75107996 17.40557502 0.38964238 17.11273804 -4 16.625 C-6.17476401 15.08161909 -6.81832637 13.98834727 -8 11.625 C-8.54035146 7.57236402 -8.34199395 6.08769769 -5.875 2.75 C-3 0.625 -3 0.625 0 0 Z " fill="#C6C5C3" transform="translate(562,332.375)"/>
<path d="M0 0 C2.33276367 0.14282227 2.33276367 0.14282227 5 1 C6.4855957 3.46850586 6.4855957 3.46850586 7.67578125 6.71484375 C8.11083984 7.87564453 8.54589844 9.03644531 8.99414062 10.23242188 C9.42919922 11.45509766 9.86425781 12.67777344 10.3125 13.9375 C10.9940918 15.76571289 10.9940918 15.76571289 11.68945312 17.63085938 C15 26.60667293 15 26.60667293 15 29 C14.01 29 13.02 29 12 29 C9.48505387 22.83303104 7.11993267 16.63782317 4.9296875 10.34765625 C4.01218639 7.79144845 4.01218639 7.79144845 2 5 C1.75765625 5.76183594 1.5153125 6.52367187 1.265625 7.30859375 C-0.59262484 13.03343267 -2.59004664 18.55732522 -5.1171875 24.01953125 C-6.27613946 26.61948101 -7.16347359 29.28128916 -8 32 C-8.99 31.67 -9.98 31.34 -11 31 C-8.96150996 23.80613443 -6.51843632 16.84290835 -3.8125 9.875 C-3.44447266 8.91851562 -3.07644531 7.96203125 -2.69726562 6.9765625 C-1.80144555 4.64975711 -0.90232227 2.32428979 0 0 Z " fill="#837F7C" transform="translate(249,337)"/>
<path d="M0 0 C0.99 0 1.98 0 3 0 C3 16.83 3 33.66 3 51 C2.01 51 1.02 51 0 51 C0 34.17 0 17.34 0 0 Z " fill="#7C7774" transform="translate(392,337)"/>
<path d="M0 0 C5.94 0 11.88 0 18 0 C18 0.66 18 1.32 18 2 C12.72 2 7.44 2 2 2 C2 9.59 2 17.18 2 25 C7.28 25 12.56 25 18 25 C17.67 25.99 17.34 26.98 17 28 C17 27.34 17 26.68 17 26 C11.72 26 6.44 26 1 26 C1 33.59 1 41.18 1 49 C0.67 49 0.34 49 0 49 C0 32.83 0 16.66 0 0 Z " fill="#6C6763" transform="translate(287,338)"/>
<path d="M0 0 C1.32 0 2.64 0 4 0 C4 16.5 4 33 4 50 C3.34 50 2.68 50 2 50 C1.67 35.48 1.34 20.96 1 6 C0.34 5.67 -0.32 5.34 -1 5 C-0.67 3.35 -0.34 1.7 0 0 Z " fill="#74706C" transform="translate(213,337)"/>
<path d="M0 0 C6.27 0 12.54 0 19 0 C19 0.33 19 0.66 19 1 C11.08 1.495 11.08 1.495 3 2 C2.2695141 17.67935804 1.85971447 33.30360847 2 49 C1.34 49 0.68 49 0 49 C0 32.83 0 16.66 0 0 Z " fill="#696460" transform="translate(339,338)"/>
<path d="M0 0 C0.99 0 1.98 0 3 0 C4.50855339 3.6006459 6.00535824 7.20605959 7.5 10.8125 C7.92925781 11.83666016 8.35851562 12.86082031 8.80078125 13.91601562 C9.20683594 14.89892578 9.61289063 15.88183594 10.03125 16.89453125 C10.59682617 18.25348511 10.59682617 18.25348511 11.17382812 19.63989258 C12 22 12 22 12 25 C12.66 25 13.32 25 14 25 C14.33 24.01 14.66 23.02 15 22 C16.2077558 25.62326739 15.54311128 26.64146369 14 30 C13.01 30 12.02 30 11 30 C9.42671143 26.21246752 7.86033273 22.42215986 6.30029297 18.62915039 C5.76865608 17.33930654 5.23513978 16.05023565 4.69970703 14.76196289 C3.93027613 12.90976143 3.16816265 11.05452554 2.40625 9.19921875 C1.94541016 8.08377686 1.48457031 6.96833496 1.00976562 5.8190918 C0 3 0 3 0 0 Z " fill="#75716D" transform="translate(183,358)"/>
<path d="M0 0 C2.4375 2.5625 2.4375 2.5625 4 5 C2 7 2 7 -1.3125 7.25 C-4.72514084 7.01863452 -6.95465935 6.4765288 -10 5 C-10 6.98 -10 8.96 -10 11 C-10.66 9.68 -11.32 8.36 -12 7 C-12.33 9.64 -12.66 12.28 -13 15 C-13.33 15 -13.66 15 -14 15 C-14.76140684 7.38593156 -14.76140684 7.38593156 -12.95703125 4.1015625 C-8.73378643 -0.97623919 -6.37755217 -1.53940914 0 0 Z " fill="#797471" transform="translate(323,253)"/>
<path d="M0 0 C0.33 0 0.66 0 1 0 C1.33 3.3 1.66 6.6 2 10 C2.33 10 2.66 10 3 10 C2.45059131 16.59290428 0.91326356 21.97764948 -3.7734375 26.83984375 C-10.34289649 32.02947213 -16.93561627 31.6194548 -25 31 C-25 30.67 -25 30.34 -25 30 C-24.21496094 29.90203125 -23.42992187 29.8040625 -22.62109375 29.703125 C-12.45094194 28.34400466 -12.45094194 28.34400466 -4.50390625 22.265625 C0.01055998 15.46195352 -0.1146514 7.91094692 0 0 Z " fill="#837F7B" transform="translate(450,357)"/>
<path d="M0 0 C6.31076139 -0.58193496 10.97863308 -0.36880018 16.2421875 3.37109375 C21.2449248 8.00696365 23.8095474 13.41240459 24.16796875 20.1640625 C24.17441406 21.30617188 24.18085938 22.44828125 24.1875 23.625 C24.20167969 24.77226562 24.21585937 25.91953125 24.23046875 27.1015625 C24 30 24 30 22 32 C21.96261719 31.23816406 21.92523438 30.47632813 21.88671875 29.69140625 C21.33812843 21.07531129 20.59733598 12.24072323 14 6 C9.53240499 3.17785754 5.29968944 1.52996894 0 1 C0 0.67 0 0.34 0 0 Z " fill="#736E6B" transform="translate(429,337)"/>
<path d="M0 0 C3.85402129 -0.08770383 7.70778291 -0.14062735 11.5625 -0.1875 C12.64853516 -0.21263672 13.73457031 -0.23777344 14.85351562 -0.26367188 C22.35838034 -0.33210529 27.13166992 0.42111328 33.4375 4.625 C35.82048354 8.24713498 35.32419516 11.78546296 35 16 C33.90538958 13.82463499 32.83658132 11.6473597 31.8125 9.4375 C29.42329005 6.22442455 26.75479496 5.07776125 23 4 C18.68827488 3.49018099 14.36801978 3.51627319 10.03125 3.47265625 C9.17015625 3.45074219 8.3090625 3.42882812 7.421875 3.40625 C6.64424805 3.39916016 5.86662109 3.39207031 5.06542969 3.38476562 C2.51997258 2.91057645 1.6268072 1.96047796 0 0 Z " fill="#75706C" transform="translate(339,337)"/>
<path d="M0 0 C0.33 0 0.66 0 1 0 C1 7.26 1 14.52 1 22 C6.61 22 12.22 22 18 22 C17.34 22.33 16.68 22.66 16 23 C16 23.66 16 24.32 16 25 C11.05 25 6.1 25 1 25 C1 32.59 1 40.18 1 48 C0.01 47.67 -0.98 47.34 -2 47 C-1.34 47 -0.68 47 0 47 C-0.05329468 46.03682861 -0.05329468 46.03682861 -0.10766602 45.05419922 C-0.91120863 29.94652496 -0.97455389 15.09808875 0 0 Z " fill="#86827F" transform="translate(341,340)"/>
<path d="M0 0 C0.89203125 0.01804687 1.7840625 0.03609375 2.703125 0.0546875 C3.71632813 0.08949219 3.71632813 0.08949219 4.75 0.125 C3.76 1.61 3.76 1.61 2.75 3.125 C0.83203125 3.4609375 0.83203125 3.4609375 -1.4375 3.5 C-6.47567856 3.9454981 -9.89279361 5.24594805 -13.25 9.125 C-14.92383275 12.36371781 -16.1632513 15.64875415 -17.25 19.125 C-17.91 19.125 -18.57 19.125 -19.25 19.125 C-19.58 23.745 -19.91 28.365 -20.25 33.125 C-20.58 33.125 -20.91 33.125 -21.25 33.125 C-22.07374768 15.75765306 -22.07374768 15.75765306 -17.25 9.125 C-12.19315315 3.74691903 -7.60429636 -0.20011306 0 0 Z " fill="#86827F" transform="translate(432.25,335.875)"/>
<path d="M0 0 C8.92989844 -0.62422591 8.92989844 -0.62422591 13 1.75 C16.11389812 5.25313539 17.281426 7.9268125 17.25 12.625 C17.25515625 13.40101563 17.2603125 14.17703125 17.265625 14.9765625 C17 17 17 17 15 19 C13.45522376 17.45522376 13.81021351 15.82972722 13.6875 13.6875 C13.36076275 10.69951155 13.12644182 9.20019954 11.5 6.625 C7.91424151 4.29425698 4.0957049 3.15519882 0 2 C0 1.34 0 0.68 0 0 Z " fill="#736F6B" transform="translate(305,338)"/>
<path d="M0 0 C0.33 0.66 0.66 1.32 1 2 C9.58 2 18.16 2 27 2 C27 2.33 27 2.66 27 3 C18.75 3 10.5 3 2 3 C1.67 5.31 1.34 7.62 1 10 C0.02734375 12.65234375 0.02734375 12.65234375 -1.0625 14.9375 C-1.42472656 15.70964844 -1.78695312 16.48179687 -2.16015625 17.27734375 C-2.43730469 17.84582031 -2.71445313 18.41429687 -3 19 C-3.99 19 -4.98 19 -6 19 C-5.39124245 14.39583374 -4.15277044 10.43516676 -2.4375 6.125 C-1.75494141 4.39636719 -1.75494141 4.39636719 -1.05859375 2.6328125 C-0.70925781 1.76398438 -0.35992187 0.89515625 0 0 Z " fill="#817D79" transform="translate(237,369)"/>
<path d="M0 0 C0.33 0 0.66 0 1 0 C1 2.64 1 5.28 1 8 C1.66 8 2.32 8 3 8 C3 7.34 3 6.68 3 6 C4.65 6.33 6.3 6.66 8 7 C8.66 5.02 9.32 3.04 10 1 C10.66 1.33 11.32 1.66 12 2 C11.6875 5.375 11.6875 5.375 11 9 C7.53001271 11.31332486 6.07490752 11.33957563 2 11 C1.01 10.34 0.02 9.68 -1 9 C-1.47114738 6.2572492 -1.17805784 3.80441103 -1 1 C-0.67 0.67 -0.34 0.34 0 0 Z " fill="#F1F1F0" transform="translate(557,337)"/>
<path d="M0 0 C1.32 0 2.64 0 4 0 C4 1.65 4 3.3 4 5 C3.01 5 2.02 5 1 5 C1 19.52 1 34.04 1 49 C0.67 49 0.34 49 0 49 C0 32.83 0 16.66 0 0 Z " fill="#68635F" transform="translate(174,338)"/>
<path d="M0 0 C0 0.99 0 1.98 0 3 C-2 4.6875 -2 4.6875 -4 6 C-3.67 6.99 -3.34 7.98 -3 9 C-4.98 9.99 -6.96 10.98 -9 12 C-9 11.01 -9 10.02 -9 9 C-10.32 9 -11.64 9 -13 9 C-13 8.34 -13 7.68 -13 7 C-13.99 6.67 -14.98 6.34 -16 6 C-15.26394531 5.81824219 -14.52789062 5.63648438 -13.76953125 5.44921875 C-6.50815505 3.61840747 -6.50815505 3.61840747 0 0 Z " fill="#837F7C" transform="translate(347,211)"/>
<path d="M0 0 C0 16.17 0 32.34 0 49 C-0.33 49 -0.66 49 -1 49 C-1.00808685 48.45320587 -1.01617371 47.90641174 -1.02450562 47.3430481 C-1.11038769 41.66546886 -1.20988325 35.9882454 -1.31738281 30.31103516 C-1.35572842 28.1906531 -1.39057133 26.07020474 -1.421875 23.94970703 C-1.46740466 20.90633402 -1.52541839 17.86341968 -1.5859375 14.8203125 C-1.59748871 13.86818878 -1.60903992 12.91606506 -1.62094116 11.93508911 C-1.64081085 11.05432709 -1.66068054 10.17356506 -1.68115234 9.26611328 C-1.69447601 8.48889923 -1.70779968 7.71168518 -1.7215271 6.91091919 C-1.84039576 4.7611053 -1.84039576 4.7611053 -4 3 C-1.125 0 -1.125 0 0 0 Z " fill="#66615D" transform="translate(216,338)"/>
<path d="M0 0 C2.56679483 2.56679483 3.33348554 5.05010682 4.625 8.4375 C5.07101562 9.59121094 5.51703125 10.74492187 5.9765625 11.93359375 C7 15 7 15 7 18 C6.01 18 5.02 18 4 18 C3.13237686 15.75438718 2.2807897 13.50473745 1.4375 11.25 C1.19064453 10.61578125 0.94378906 9.9815625 0.68945312 9.328125 C-0.58197079 5.88990821 -1.46686355 3.47831118 0 0 Z " fill="#84807D" transform="translate(265,370)"/>
<path d="M0 0 C0.33 0 0.66 0 1 0 C1.28792938 5.56663461 1.22557511 9.2172507 -2 14 C-4.375 15.9375 -4.375 15.9375 -7 17 C-9.8125 16.6875 -9.8125 16.6875 -12 16 C-9 14 -9 14 -6.4375 12.875 C-3.32680629 10.48215869 -3.10361066 8.68908164 -2.45703125 4.9375 C-2 3 -2 3 0 0 Z " fill="#837F7C" transform="translate(374,346)"/>
<path d="M0 0 C1.65 0.33 3.3 0.66 5 1 C5 3.31 5 5.62 5 8 C3.02 7.34 1.04 6.68 -1 6 C-1.33 6.66 -1.66 7.32 -2 8 C-2 5.69 -2 3.38 -2 1 C-1.67 1.99 -1.34 2.98 -1 4 C0.32 4 1.64 4 3 4 C3 3.01 3 2.02 3 1 C2.01 0.67 1.02 0.34 0 0 Z " fill="#7E7A77" transform="translate(561,337)"/>
<path d="M0 0 C0.33 0.66 0.66 1.32 1 2 C1.66 2 2.32 2 3 2 C2.34 4.31 1.68 6.62 1 9 C-0.32 9.33 -1.64 9.66 -3 10 C-2.01 6.7 -1.02 3.4 0 0 Z " fill="#827E7B" transform="translate(206,354)"/>
<path d="M0 0 C1.0326802 2.78823655 1.04509293 3.8677274 0.0625 6.75 C-0.288125 7.4925 -0.63875 8.235 -1 9 C-1.66 9 -2.32 9 -3 9 C-2.25 2.25 -2.25 2.25 0 0 Z " fill="#7D7975" transform="translate(247,346)"/>
<path d="M0 0 C0.99 0.33 1.98 0.66 3 1 C4.1875 4.5625 4.1875 4.5625 5 8 C4.01 8 3.02 8 2 8 C0.74335022 5.09399739 0 3.20395416 0 0 Z " fill="#7C7875" transform="translate(259,358)"/>
<path d="M0 0 C2.97 0.495 2.97 0.495 6 1 C6 1.99 6 2.98 6 4 C4.68 4 3.36 4 2 4 C1.34 5.32 0.68 6.64 0 8 C0 5.36 0 2.72 0 0 Z " fill="#C4C3C1" transform="translate(558,337)"/>
<path d="M0 0 C0.66 0 1.32 0 2 0 C2 0.99 2 1.98 2 3 C2.99 3.33 3.98 3.66 5 4 C4 5 4 5 0.9375 5.0625 C-0.031875 5.041875 -1.00125 5.02125 -2 5 C-2.33 4.34 -2.66 3.68 -3 3 C-2.01 3 -1.02 3 0 3 C0 2.01 0 1.02 0 0 Z " fill="#FBFBFB" transform="translate(561,343)"/>
<path d="M0 0 C0 0.66 0 1.32 0 2 C-1.65 2.66 -3.3 3.32 -5 4 C-5 3.34 -5 2.68 -5 2 C-6.32 1.34 -7.64 0.68 -9 0 C-5.62182575 -0.84454356 -3.32534757 -1.10844919 0 0 Z " fill="#979491" transform="translate(344,218)"/>
<path d="M0 0 C0.93423645 3.01031744 1.04449911 3.86650268 0 7 C-0.99 7 -1.98 7 -3 7 C-2.25 2.25 -2.25 2.25 0 0 Z " fill="#736F6B" transform="translate(451,370)"/>
<path d="M0 0 C0.625 1.8125 0.625 1.8125 1 4 C0.01 5.485 0.01 5.485 -1 7 C-1.66 7 -2.32 7 -3 7 C-2.25 2.25 -2.25 2.25 0 0 Z " fill="#6F6A67" transform="translate(210,349)"/>
<path d="M0 0 C1 3 1 3 0.0625 5.1875 C-0.4634375 6.0846875 -0.4634375 6.0846875 -1 7 C-1.66 7 -2.32 7 -3 7 C-3.1875 4.625 -3.1875 4.625 -3 2 C-2.01 1.34 -1.02 0.68 0 0 Z " fill="#777370" transform="translate(416,346)"/>
<path d="M0 0 C2.38564077 0.57584432 4.66682784 1.22227595 7 2 C6.67 2.66 6.34 3.32 6 4 C3.69 4 1.38 4 -1 4 C-0.67 2.68 -0.34 1.36 0 0 Z " fill="#928F8C" transform="translate(249,286)"/>
<path d="M0 0 C0.66 0.66 1.32 1.32 2 2 C1.625 5.125 1.625 5.125 1 8 C0.01 7.67 -0.98 7.34 -2 7 C-1.34 4.69 -0.68 2.38 0 0 Z " fill="#8C8885" transform="translate(240,361)"/>
<path d="M0 0 C1 3 1 3 0.0625 5.1875 C-0.4634375 6.0846875 -0.4634375 6.0846875 -1 7 C-1.66 7 -2.32 7 -3 7 C-2.25 2.25 -2.25 2.25 0 0 Z " fill="#6E6965" transform="translate(205,362)"/>
</svg>
