<?xml version="1.0" encoding="UTF-8"?>
<svg version="1.1" xmlns="http://www.w3.org/2000/svg" width="239" height="83">
<path d="M0 0 C1.65 0 3.3 0 5 0 C5 2.31 5 4.62 5 7 C7.64 7 10.28 7 13 7 C13 4.69 13 2.38 13 0 C14.65 0 16.3 0 18 0 C18 5.94 18 11.88 18 18 C16.35 18 14.7 18 13 18 C13 15.69 13 13.38 13 11 C10.36 11 7.72 11 5 11 C5 12.98 5 14.96 5 17 C3.35 17.33 1.7 17.66 0 18 C0 12.06 0 6.12 0 0 Z " fill="#BA9765" transform="translate(198,5)"/>
<path d="M0 0 C1.65 0 3.3 0 5 0 C5 2.31 5 4.62 5 7 C7.64 7 10.28 7 13 7 C13 4.69 13 2.38 13 0 C14.65 0 16.3 0 18 0 C18 5.94 18 11.88 18 18 C16.35 17.67 14.7 17.34 13 17 C13 15.02 13 13.04 13 11 C10.36 11 7.72 11 5 11 C5 13.31 5 15.62 5 18 C3.35 18 1.7 18 0 18 C0 12.06 0 6.12 0 0 Z " fill="#BA9765" transform="translate(35,5)"/>
<path d="M0 0 C2.9375 1.5625 2.9375 1.5625 5 4 C6.14009771 7.91908586 6.40888632 10.03158504 4.8125 13.8125 C2.08932852 17.09908627 0.2890047 17.86287184 -3.9375 18.3125 C-7.55097993 17.94377756 -9.24238199 17.37461551 -12 15 C-13.5402467 11.38376861 -14.25271313 9.11193778 -13.375 5.25 C-10.11882712 -0.07828289 -6.07120968 -1.06005248 0 0 Z M-7.8125 5.1875 C-9.23405288 6.99609411 -9.23405288 6.99609411 -9 9.5625 C-8.20869776 12.24375877 -8.20869776 12.24375877 -5.4375 13.3125 C-4.633125 13.539375 -3.82875 13.76625 -3 14 C-0.85432087 12.27144074 -0.85432087 12.27144074 1 10 C0.82246387 6.98188578 0.16264785 6.16264785 -2 4 C-5.80350374 3.63464916 -5.80350374 3.63464916 -7.8125 5.1875 Z " fill="#BA9765" transform="translate(149,5)"/>
<path d="M0 0 C4.62 0 9.24 0 14 0 C14 1.32 14 2.64 14 4 C11.03 4 8.06 4 5 4 C5 4.99 5 5.98 5 7 C7.97 7 10.94 7 14 7 C13.67 8.32 13.34 9.64 13 11 C10.36 11 7.72 11 5 11 C5 11.66 5 12.32 5 13 C7.97 13 10.94 13 14 13 C14.33 14.32 14.66 15.64 15 17 C14 18 14 18 10.83984375 18.09765625 C7.2265625 18.06510417 3.61328125 18.03255208 0 18 C0 12.06 0 6.12 0 0 Z " fill="#BA9765" transform="translate(67,5)"/>
<path d="M0 0 C12.03647687 -0.43505338 12.03647687 -0.43505338 16 3 C17.55024464 6.10048928 17.28992015 8.57894218 17 12 C14.55373949 16.01885656 13.65621589 16.83594603 9 18 C6.03 18 3.06 18 0 18 C0 12.06 0 6.12 0 0 Z M4 4 C4 6.97 4 9.94 4 13 C6.91652174 13.16681109 6.91652174 13.16681109 10 13 C12.23845015 11.17084359 12.23845015 11.17084359 12.3125 8.5 C12.209375 7.675 12.10625 6.85 12 6 C8.77208445 3.8480563 7.71599191 3.79913557 4 4 Z " fill="#BA9765" transform="translate(168,5)"/>
<path d="M0 0 C0.99 0 1.98 0 3 0 C3 2.31 3 4.62 3 7 C6.3 7 9.6 7 13 7 C13 4.69 13 2.38 13 0 C14.32 0 15.64 0 17 0 C17 6.27 17 12.54 17 19 C15.68 18.67 14.36 18.34 13 18 C11.22809091 19.35444301 11.22809091 19.35444301 10 21 C9.34 20.01 8.68 19.02 8 18 C7.67 18.99 7.34 19.98 7 21 C6.34 21 5.68 21 5 21 C4.34 20.34 3.68 19.68 3 19 C2.01 19 1.02 19 0 19 C0 12.73 0 6.46 0 0 Z M3 11 C3.66 11 4.32 11 5 11 C5.66 12.32 6.32 13.64 7 15 C7.66 14.01 8.32 13.02 9 12 C9.99 13.485 9.99 13.485 11 15 C11.12375 14.360625 11.2475 13.72125 11.375 13.0625 C11.58125 12.381875 11.7875 11.70125 12 11 C12.66 10.67 13.32 10.34 14 10 C12.741875 9.79375 11.48375 9.5875 10.1875 9.375 C9.47980469 9.25898437 8.77210937 9.14296875 8.04296875 9.0234375 C5.68244176 8.80422152 5.68244176 8.80422152 3 11 Z " fill="#C1C1C1" transform="translate(59,58)"/>
<path d="M0 0 C5.61 0 11.22 0 17 0 C17 1.32 17 2.64 17 4 C15.02 4 13.04 4 11 4 C11 8.29 11 12.58 11 17 C9.35 17.33 7.7 17.66 6 18 C6 13.38 6 8.76 6 4 C4.02 4 2.04 4 0 4 C0 2.68 0 1.36 0 0 Z " fill="#BA9765" transform="translate(6,5)"/>
<path d="M0 0 C1.65 0 3.3 0 5 0 C5 4.29 5 8.58 5 13 C7.64 13 10.28 13 13 13 C13.5625 14.9375 13.5625 14.9375 14 17 C13 18 13 18 10.3125 18.1328125 C9.219375 18.13023438 8.12625 18.12765625 7 18.125 C5.906875 18.12757812 4.81375 18.13015625 3.6875 18.1328125 C1 18 1 18 0 17 C-0.07325168 14.13732433 -0.09238205 11.299281 -0.0625 8.4375 C-0.05798828 7.63119141 -0.05347656 6.82488281 -0.04882812 5.99414062 C-0.03700518 3.99606244 -0.01906914 1.99802217 0 0 Z " fill="#BA9765" transform="translate(111,5)"/>
<path d="M0 0 C0.66 0 1.32 0 2 0 C2 1.32 2 2.64 2 4 C2.99 4 3.98 4 5 4 C5 2.68 5 1.36 5 0 C6.65 0 8.3 0 10 0 C10.33 0.99 10.66 1.98 11 3 C11.99 2.01 12.98 1.02 14 0 C14.66 0.99 15.32 1.98 16 3 C16.33 2.01 16.66 1.02 17 0 C19.97 0.495 19.97 0.495 23 1 C22.67 2.65 22.34 4.3 22 6 C14.74 6 7.48 6 0 6 C0 4.02 0 2.04 0 0 Z M19 2 C19 2.66 19 3.32 19 4 C19.66 4 20.32 4 21 4 C21 3.34 21 2.68 21 2 C20.34 2 19.68 2 19 2 Z " fill="#C1C1C1" transform="translate(104,63)"/>
<path d="M0 0 C1.32 0.33 2.64 0.66 4 1 C5.34262065 0.70630173 6.67696283 0.3721042 8 0 C9.32 0 10.64 0 12 0 C11.125 6.75 11.125 6.75 10 9 C9.01 9 8.02 9 7 9 C6.67 8.34 6.34 7.68 6 7 C5.67 7.66 5.34 8.32 5 9 C4.01 9 3.02 9 2 9 C1.34 6.03 0.68 3.06 0 0 Z " fill="#BA9765" transform="translate(90,37)"/>
<path d="M0 0 C5.28 0 10.56 0 16 0 C16 1.98 16 3.96 16 6 C14.35 6 12.7 6 11 6 C11 4.68 11 3.36 11 2 C10.34 2 9.68 2 9 2 C9 3.32 9 4.64 9 6 C8.34 6 7.68 6 7 6 C7 4.68 7 3.36 7 2 C6.34 2 5.68 2 5 2 C4.67 3.32 4.34 4.64 4 6 C2.35 5.67 0.7 5.34 -1 5 C-0.67 3.35 -0.34 1.7 0 0 Z M1 2 C1 2.66 1 3.32 1 4 C1.66 4 2.32 4 3 4 C3 3.34 3 2.68 3 2 C2.34 2 1.68 2 1 2 Z " fill="#C1C1C1" transform="translate(155,63)"/>
<path d="M0 0 C1.32 0 2.64 0 4 0 C4 5.94 4 11.88 4 18 C2.68 18 1.36 18 0 18 C0 12.06 0 6.12 0 0 Z " fill="#BA9765" transform="translate(230,5)"/>
<path d="M0 0 C1.32 0 2.64 0 4 0 C4.33 0.66 4.66 1.32 5 2 C5.33 1.34 5.66 0.68 6 0 C6.99 0 7.98 0 9 0 C9 2.97 9 5.94 9 9 C5 8 5 8 4 7 C3.67 7.66 3.34 8.32 3 9 C2.01 9 1.02 9 0 9 C0 6.03 0 3.06 0 0 Z " fill="#BA9765" transform="translate(60,37)"/>
<path d="M0 0 C0.99 0 1.98 0 3 0 C3 0.99 3 1.98 3 3 C3.66 3 4.32 3 5 3 C5 2.01 5 1.02 5 0 C5.99 0 6.98 0 8 0 C8 2.97 8 5.94 8 9 C7.01 9 6.02 9 5 9 C5 7.68 5 6.36 5 5 C4.34 5 3.68 5 3 5 C3 6.32 3 7.64 3 9 C2.01 9 1.02 9 0 9 C0 6.03 0 3.06 0 0 Z " fill="#BA9765" transform="translate(163,37)"/>
<path d="M0 0 C2.31 0 4.62 0 7 0 C7.625 3.375 7.625 3.375 8 7 C6 9 6 9 2.875 9.125 C1.451875 9.063125 1.451875 9.063125 0 9 C0 6.03 0 3.06 0 0 Z M2 2 C2 3.65 2 5.3 2 7 C3.32 6.34 4.64 5.68 6 5 C5.34 4.01 4.68 3.02 4 2 C3.34 2 2.68 2 2 2 Z " fill="#BA9765" transform="translate(120,37)"/>
<path d="M0 0 C2.31 0 4.62 0 7 0 C7 0.66 7 1.32 7 2 C7.66 2 8.32 2 9 2 C9 1.34 9 0.68 9 0 C9.66 0 10.32 0 11 0 C11 1.98 11 3.96 11 6 C10.34 6 9.68 6 9 6 C9 5.34 9 4.68 9 4 C8.34 4 7.68 4 7 4 C7 4.66 7 5.32 7 6 C6.34 6 5.68 6 5 6 C5 4.68 5 3.36 5 2 C4.34 2 3.68 2 3 2 C3 3.32 3 4.64 3 6 C2.34 6 1.68 6 1 6 C0.67 4.02 0.34 2.04 0 0 Z " fill="#C1C1C1" transform="translate(83,63)"/>
<path d="M0 0 C0.66 0 1.32 0 2 0 C2 1.32 2 2.64 2 4 C2.99 4 3.98 4 5 4 C5 2.68 5 1.36 5 0 C6.32 0 7.64 0 9 0 C9.38218767 1.65614657 9.71395102 3.32457024 10 5 C9 6 9 6 6.93359375 6.09765625 C6.10988281 6.08605469 5.28617188 6.07445313 4.4375 6.0625 C3.61121094 6.05347656 2.78492188 6.04445313 1.93359375 6.03515625 C1.29550781 6.02355469 0.65742188 6.01195313 0 6 C0 4.02 0 2.04 0 0 Z " fill="#C1C1C1" transform="translate(172,63)"/>
<path d="M0 0 C1.98 0 3.96 0 6 0 C6 1.65 6 3.3 6 5 C4.68 5 3.36 5 2 5 C2 5.66 2 6.32 2 7 C3.65 7 5.3 7 7 7 C7 7.66 7 8.32 7 9 C4.69 9 2.38 9 0 9 C0 6.03 0 3.06 0 0 Z " fill="#BA9765" transform="translate(77,37)"/>
<path d="M0 0 C1.98 0 3.96 0 6 0 C6 1.65 6 3.3 6 5 C4.68 5 3.36 5 2 5 C2 5.66 2 6.32 2 7 C3.32 7 4.64 7 6 7 C6 7.66 6 8.32 6 9 C4.02 9 2.04 9 0 9 C0 6.03 0 3.06 0 0 Z " fill="#BA9765" transform="translate(136,37)"/>
<path d="M0 0 C0.99 0 1.98 0 3 0 C3 2.97 3 5.94 3 9 C4.32 9 5.64 9 7 9 C7 9.66 7 10.32 7 11 C4.69 11 2.38 11 0 11 C0 7.37 0 3.74 0 0 Z " fill="#C1C1C1" transform="translate(64,53)"/>
<path d="M0 0 C2.97 0 5.94 0 9 0 C9 1.32 9 2.64 9 4 C6.03 4 3.06 4 0 4 C0 2.68 0 1.36 0 0 Z " fill="#C1C1C1" transform="translate(121,56)"/>
<path d="M0 0 C1.65 0 3.3 0 5 0 C5 1.98 5 3.96 5 6 C3.35 6 1.7 6 0 6 C0 4.02 0 2.04 0 0 Z " fill="#C1C1C1" transform="translate(95,63)"/>
<path d="M0 0 C0.66 0 1.32 0 2 0 C2 0.66 2 1.32 2 2 C2.66 2 3.32 2 4 2 C4 1.34 4 0.68 4 0 C4.66 0 5.32 0 6 0 C6 1.98 6 3.96 6 6 C5.34 6 4.68 6 4 6 C4 5.34 4 4.68 4 4 C3.34 4 2.68 4 2 4 C2 4.66 2 5.32 2 6 C1.34 6 0.68 6 0 6 C0 4.02 0 2.04 0 0 Z " fill="#C1C1C1" transform="translate(147,63)"/>
<path d="M0 0 C2.64 0 5.28 0 8 0 C8 1.32 8 2.64 8 4 C5.36 4 2.72 4 0 4 C0 2.68 0 1.36 0 0 Z " fill="#C1C1C1" transform="translate(131,56)"/>
<path d="M0 0 C3.3 0 6.6 0 10 0 C10 0.99 10 1.98 10 3 C7.03 3 4.06 3 1 3 C0.67 2.01 0.34 1.02 0 0 Z " fill="#C1C1C1" transform="translate(134,73)"/>
<path d="M0 0 C-1.32 0.33 -2.64 0.66 -4 1 C-4 1.66 -4 2.32 -4 3 C-2.68 2.67 -1.36 2.34 0 2 C0 2.99 0 3.98 0 5 C-1.65 5 -3.3 5 -5 5 C-5.33 3.35 -5.66 1.7 -6 0 C-3.50907189 -1.24546405 -2.58919267 -0.7767578 0 0 Z " fill="#C1C1C1" transform="translate(143,64)"/>
<path d="M0 0 C0.66 0 1.32 0 2 0 C2 2.31 2 4.62 2 7 C3.32 7 4.64 7 6 7 C6 7.66 6 8.32 6 9 C4.02 9 2.04 9 0 9 C0 6.03 0 3.06 0 0 Z " fill="#BA9765" transform="translate(150,37)"/>
<path d="M0 0 C1.66666667 0 3.33333333 0 5 0 C5 1.98 5 3.96 5 6 C3.35 6 1.7 6 0 6 C0 4.02 0 2.04 0 0 Z " fill="#C1C1C1" transform="translate(131,63)"/>
<path d="M0 0 C1.65 0 3.3 0 5 0 C5 1.32 5 2.64 5 4 C3.35 4 1.7 4 0 4 C0 2.68 0 1.36 0 0 Z " fill="#C1C1C1" transform="translate(115,56)"/>
<path d="M0 0 C2.64 0 5.28 0 8 0 C7.67 0.99 7.34 1.98 7 3 C5.02 3 3.04 3 1 3 C0.67 2.01 0.34 1.02 0 0 Z " fill="#C1C1C1" transform="translate(118,73)"/>
<path d="M0 0 C0.66 0 1.32 0 2 0 C2 2.97 2 5.94 2 9 C1.34 9 0.68 9 0 9 C0 6.03 0 3.06 0 0 Z " fill="#BA9765" transform="translate(179,37)"/>
<path d="M0 0 C1.98 0 3.96 0 6 0 C6.33 0.99 6.66 1.98 7 3 C4.69 3 2.38 3 0 3 C0 2.01 0 1.02 0 0 Z " fill="#C1C1C1" transform="translate(145,73)"/>
<path d="M0 0 C1.65 0 3.3 0 5 0 C5 0.99 5 1.98 5 3 C3.35 3 1.7 3 0 3 C0 2.01 0 1.02 0 0 Z " fill="#C1C1C1" transform="translate(106,73)"/>
<path d="M0 0 C1.32 0 2.64 0 4 0 C3.67 1.32 3.34 2.64 3 4 C2.01 3.67 1.02 3.34 0 3 C0 2.01 0 1.02 0 0 Z " fill="#C1C1C1" transform="translate(147,56)"/>
<path d="M0 0 C0.99 0 1.98 0 3 0 C3.33 1.32 3.66 2.64 4 4 C2.68 4 1.36 4 0 4 C0 2.68 0 1.36 0 0 Z " fill="#C1C1C1" transform="translate(140,56)"/>
<path d="M0 0 C0.99 0.33 1.98 0.66 3 1 C3 1.99 3 2.98 3 4 C1.68 4 0.36 4 -1 4 C-0.67 2.68 -0.34 1.36 0 0 Z " fill="#C1C1C1" transform="translate(109,56)"/>
<path d="M0 0 C0.66 0 1.32 0 2 0 C2 1.98 2 3.96 2 6 C1.34 6 0.68 6 0 6 C0 4.02 0 2.04 0 0 Z " fill="#C1C1C1" transform="translate(128,63)"/>
<path d="M0 0 C1.32 0 2.64 0 4 0 C4 0.99 4 1.98 4 3 C2.68 3 1.36 3 0 3 C0 2.01 0 1.02 0 0 Z " fill="#C1C1C1" transform="translate(153,73)"/>
<path d="M0 0 C1.32 0.33 2.64 0.66 4 1 C4 1.66 4 2.32 4 3 C2.68 3 1.36 3 0 3 C0 2.01 0 1.02 0 0 Z " fill="#C1C1C1" transform="translate(127,73)"/>
<path d="M0 0 C0.99 0 1.98 0 3 0 C2.67 1.32 2.34 2.64 2 4 C1.34 4 0.68 4 0 4 C0 2.68 0 1.36 0 0 Z " fill="#C1C1C1" transform="translate(152,56)"/>
<path d="M0 0 C0.99 0 1.98 0 3 0 C3 0.66 3 1.32 3 2 C2.01 2.33 1.02 2.66 0 3 C0 2.01 0 1.02 0 0 Z " fill="#C1C1C1" transform="translate(112,73)"/>
</svg>
