<?xml version="1.0" encoding="UTF-8" standalone="no"?>
<svg
   version="1.1"
   width="595.27557pt"
   height="841.88977pt"
   id="svg1"
   viewBox="0 0 595.27557 841.88977"
   sodipodi:docname="Oberoi_Hotels__Resorts_Logo.cdr"
   xmlns:inkscape="http://www.inkscape.org/namespaces/inkscape"
   xmlns:sodipodi="http://sodipodi.sourceforge.net/DTD/sodipodi-0.dtd"
   xmlns="http://www.w3.org/2000/svg"
   xmlns:svg="http://www.w3.org/2000/svg">
  <defs
     id="defs1" />
  <sodipodi:namedview
     id="namedview1"
     pagecolor="#ffffff"
     bordercolor="#000000"
     borderopacity="0.25"
     inkscape:showpageshadow="2"
     inkscape:pageopacity="0.0"
     inkscape:pagecheckerboard="0"
     inkscape:deskcolor="#d1d1d1"
     inkscape:document-units="pt" />
  <path
     d="m 274.3177,176.595 c 9.25,-6.1101 17.3999,-13.8299 24.2102,-22.5601 11.5897,14.37 26.5198,26.39 43.8899,32.98 6.5299,2.9999 14.7699,4.86 18.29,11.8301 1.6999,4.7699 0.76,10.2399 -1.5401,14.6599 -1.7699,3.5099 -4.9901,5.88 -7.98,8.2701 13.9501,-0.68 27.6601,-3.38 41.29,-6.2699 8.5802,-2.0801 17.8401,0.54 24.6999,5.94 8.2902,6.2597 13.2801,15.9298 15.9101,25.7998 1.79,7.31 3.96,14.5301 6.4099,21.64 1.26,3.67 2.6802,7.38 5.2101,10.3901 0.2001,-5.94 1.0301,-12.4402 5.37,-16.89 3.77,-4.5 10.47,-6.05 15.8502,-3.7301 8.6298,3.42 15.5299,9.8501 23.3498,14.6701 11.7,7.8299 25.3602,12.2899 39.2202,14.3198 -6.4902,17.28 -9.4403,36.1503 -6.4902,54.4802 0.64,7.1799 3.2099,15.4199 -1.2799,21.8599 -6.1801,6.9299 -17.0101,7.24 -24.7901,2.9101 6.69,9.1298 13.2401,18.4399 21.1,26.6301 4.3999,5.0298 9.7001,9.8098 11.3901,16.5398 3.6899,12.0102 -0.1601,25.2 -7.8902,34.7701 -8.9198,10.7498 -20.8599,19.26 -27.3098,31.9099 5.0799,-2.5399 10.6699,-4.9099 16.48,-4.0601 4.6401,0.7501 9.4598,3.2701 11.31,7.8302 3.3401,7.7899 0.9899,16.3099 0.8399,24.4199 -2.3,16.4599 0.43,33.2402 6.5701,48.59 -18.2602,2.88 -36.17,9.84 -50.5201,21.6601 -5.55,4 -10.98,9.5199 -18.22,9.7799 -9.62,-0.9199 -16.63,-10.84 -15.7898,-20.2199 -6.7301,12.6 -11.2403,26.1998 -15.7003,39.7199 -2.7298,9.3802 -11.0599,16.17 -20.0999,19.1501 -10.3099,3.42 -21.5201,1.9 -31.6899,-1.2901 -9.4901,-2.5699 -19.15,-5.1199 -29.0401,-5.3098 4.0501,3.2998 8.86,6.1497 11.09,11.12 3.09,5.6698 2.16,13.4699 -2.99,17.64 -6.52,5.3096 -14.5899,8.1397 -22.04,11.8499 -13.86,6.3599 -25.77,16.4897 -35.09,28.48 -10.77,-13.0601 -24.02,-24.44 -39.67,-31.1703 -6.4698,-3.2097 -13.8099,-4.8796 -19.4701,-9.5497 -4.9598,-4.5102 -4.3999,-12.1901 -2.02,-17.8701 1.62,-4.0899 5.2002,-6.8199 8.7001,-9.2398 -11.7099,0.79 -23.4,2.3099 -34.84,5.0099 -5.08,1.04 -10.2201,2.48 -15.4599,1.9698 -8.32,-0.9799 -16.06,-5.4298 -21.4801,-11.7697 -6.6098,-7.5201 -9.7299,-17.2902 -11.9299,-26.8702 -2.6699,-8.8798 -4.7302,-18.2699 -9.97,-26.06 -0.1899,5.69 -0.97,11.7501 -4.54,16.41 -2.88,3.39 -7.1699,5.9701 -11.73,5.7101 -5.26,-0.2001 -9.8399,-3.13 -14.11,-5.9201 -7.85,-5.1401 -15.1901,-11.1799 -23.7501,-15.1699 -9.33,-4.6301 -19.5001,-7.3602 -29.7601,-8.97 5.3101,-14.2302 8.3701,-29.4602 7.6102,-44.7001 -0.55,-9.1899 -3.14,-18.3299 -1.77,-27.57 1.5999,-5.94 7.8599,-8.9099 13.47,-9.7501 4.6499,-0.6599 9.1499,0.9803 13.2298,3.0402 -6.1999,-8.9901 -12.5799,-17.9101 -20.0398,-25.9101 -3.9299,-4.78 -8.8098,-8.96 -11.3802,-14.6999 -4.3501,-10.62 -2.5297,-23.1401 3.6703,-32.65 4.3497,-7.7202 11.5698,-13.0802 17.3899,-19.6002 4.7999,-5.4297 10.1299,-10.5998 13.29,-17.2298 -6.08,3.2199 -13.28,5.51 -20.09,3.2298 -5.0601,-1.7399 -8.6601,-6.4899 -9.2801,-11.7598 -0.8801,-8.1502 0.73,-16.27 1.0401,-24.3901 1.5698,-14.94 -1.62,-29.9299 -6.8998,-43.85 18.6596,-2.9699 36.8798,-10.3 51.4896,-22.4399 5.7002,-4.1701 11.8202,-10.3 19.5401,-8.7001 8.57,2.59 14.04,11.4001 13.7199,20.1999 2.1702,-5.4799 4.8402,-10.7399 7.0501,-16.1898 3.3701,-7.92 5.76,-16.2 8.53,-24.33 3.81,-11.45 15.4001,-19.04 27.11,-20.1699 18.39,-2.4503 35.2301,8.6899 53.5201,7.9398 -6.1002,-4.25 -13,-9.94 -12.64,-18.1499 -0.5,-5.01 2.5299,-9.51 6.55,-12.2001 9.7098,-6.47 21.14,-9.7299 30.8999,-16.1399 z m -9.2599,23.7901 c -2.92,3.0798 -5.29,7.1898 -4.6899,11.5798 0.6398,5.54 4.0799,10.18 7.6399,14.2702 -6.66,3.8899 -14.07,6.5698 -21.7902,7.1898 -11.9098,0.8501 -23.76,-1.1501 -35.6099,-2.0299 -9.6801,-0.5701 -20.5399,1.6699 -26.8901,9.61 -4.1499,5.5199 -7.74,11.59 -9.8498,18.1998 -1.7201,5.22 -4.2001,10.1702 -7.1201,14.8201 -4.8999,8.1201 -10.5701,16.09 -18.4901,21.53 -1.6999,-5.3799 -4.7899,-10.55 -9.8898,-13.3101 -4.96,-3.1598 -11.1999,-1.9397 -16.4401,-0.1899 -12.74,4.0799 -23.8799,12.1201 -36.9201,15.3601 5.0001,13.57 2.7902,28.4998 7.0002,42.2498 1.2399,3.8602 3.71,7.6502 7.5798,9.2401 5.08,2.0401 10.7002,1.6002 15.95,0.5202 0.3302,8.0798 -1.4899,16.2 -5.0298,23.4598 -5.1001,10.3901 -12.6601,19.26 -18.9901,28.8799 -5.0701,7.6102 -8.54,17.1601 -5.8499,26.3001 2.45,7.6601 6.8998,14.6101 12.3398,20.4999 4.8401,5.4601 8.3801,11.9001 11.55,18.43 3.06,6.5801 5.7501,13.4703 6.3701,20.7701 -8.1701,-1.7799 -18.3498,0.07 -22.3399,8.2499 -6.4601,15.0301 -3.2502,32.0102 -7.85,47.5101 14.5999,2.4301 26.54,12.4401 41.0001,15.3099 4.1099,0.9403 8.8299,0.1602 11.88,-2.9098 3.9398,-3.27 5.6797,-8.2099 7.7198,-12.7301 5.87,3.61 11.4302,7.93 15.4701,13.5902 6.98,9.36 11.0101,20.45 15.9999,30.9098 3.2,6.69 7.4001,13.1902 13.5601,17.5 7.9699,5.25 18.0898,4.7199 27.1599,3.8301 9.3299,-2.23 18.97,-2.0899 28.47,-1.36 6.4899,0.79 13.17,1.6398 18.93,4.9799 -5.8901,5.79 -9.0498,15.6801 -3.99,22.9802 9.4799,13.4399 26.42,18.5899 37.0602,30.85 6.3898,-7.8602 15.3198,-12.9302 23.4198,-18.7903 5.4901,-4.0598 11.4401,-8.4198 13.86,-15.09 1.58,-7.1597 -2.85,-13.8098 -7.5399,-18.7599 11.2198,-6.81 24.73,-8.2999 37.5599,-6.7198 12.2199,0.43 24.9401,3.8797 36.8399,-0.5103 8.2602,-2.9599 13.2401,-10.7498 17.0003,-18.2097 3.0798,-6.9401 4.9399,-14.4301 9.0498,-20.8902 5.3601,-8.4399 11.0299,-17.22 19.5999,-22.7501 2.05,8.28 9.5902,16.0801 18.6401,15.1101 15.98,-2.0599 28.7501,-13.5 44.38,-16.7598 -4.85,-13.14 -2.8301,-27.5202 -6.48,-40.9003 -1.2299,-4.39 -3.63,-9.07 -8.09,-10.8598 -5.0599,-2.0701 -10.7399,-1.5199 -15.9801,-0.4802 -0.1099,-4.5598 0.3802,-9.1199 1.5203,-13.5399 3.2799,-13.1001 12.1997,-23.6699 19.7098,-34.5498 4.7299,-6.4503 8.86,-13.7302 9.6599,-21.8203 0.65,-6.5398 -2.1098,-12.7499 -5.2497,-18.3098 -4.1202,-7.5901 -11.0203,-13.1902 -15.1302,-20.8001 -4.9598,-9.1899 -10.1399,-18.8098 -10.6501,-29.4599 8.4302,2.6099 19.3003,-0.65 22.7302,-9.3299 6.04,-14.7303 2.5398,-31.2801 7.3998,-46.2802 -13.7398,-2.44 -25.2799,-11.05 -38.5999,-14.76 -3.9901,-1.11 -8.5198,-1.43 -12.2,0.7699 -5.1101,3.0801 -7.68,8.8101 -9.66,14.1903 -5.86,-3.2602 -11.2501,-7.5201 -15.22,-12.9402 -8.1099,-10.7399 -12.39,-23.6401 -18.5301,-35.4699 -3.8798,-7.1 -9.3699,-14.08 -17.3699,-16.6201 -9.6301,-2.9999 -19.8901,-1.4301 -29.5599,0.5301 -13.14,0.86 -26.9102,0.57 -39.1901,-4.7299 3.0999,-4.0601 6.2101,-8.53 6.4202,-13.8303 0.6998,-5.0697 -2.1303,-9.68 -5.3802,-13.2899 -10.1299,-10.58 -24.2901,-16.1799 -34.2499,-26.9399 -9.1001,10.98 -22.8101,16.5299 -32.65,26.7001 z m -4.39,118.7597 c 20.4599,-4.5799 41.7501,-5.11 62.5201,-2.3799 26.0098,3.7301 51.6699,13.6 71.6598,30.9702 13.8699,12.24 24.81,28.98 26.6499,47.7198 2.02,16.6399 -3.3899,33.66 -13.4098,46.94 -13.57,18.25 -33.6699,30.79 -54.94,38.1901 -1.0701,0.4799 -3.06,0.6899 -2.73,2.3598 -0.22,9.43 -0.9601,18.83 -1.37,28.26 4.2899,0.0502 8.5898,-0.01 12.89,0.0201 0.0399,4.4799 0.0799,8.97 0.0601,13.4601 -17.3702,0.9399 -34.8001,0.1701 -52.2,0.4399 -0.1401,-4.64 -0.1302,-9.2698 -0.0301,-13.9099 4.25,-0.0201 8.4901,0.01 12.7298,0.0199 0.3101,-7.7298 0.1202,-15.4599 0.1602,-23.19 -5.9902,0.51 -11.95,1.37 -17.96,1.55 -10.1999,0.58 -20.3701,-0.4898 -30.5,-1.5599 -0.0601,7.7301 -0.0601,15.4701 0.01,23.1999 4.3101,-0.01 8.61,-0.0301 12.9201,0.0102 -0.01,4.4898 -0.0301,8.9798 0.0198,13.4798 -9.4799,0.8099 -19.01,0.19 -28.51,0.3901 -7.8599,-0.18 -15.7499,0.4198 -23.58,-0.4399 0.0102,-4.4802 0.0102,-8.9601 0.0201,-13.4402 4.2999,-0.0301 8.6001,0 12.9101,-0.01 0.0899,-9.7698 0.0701,-19.5301 -0.0102,-29.3 -21.3698,-6.95 -41.83,-18.54 -56.3499,-35.9901 -10.22,-12.2198 -16.99,-27.8699 -16.5798,-43.9798 -0.2602,-18.75 9.1499,-36.43 22.0498,-49.5501 17.25,-17.1499 40.03,-27.8898 63.5701,-33.2601 z m -15.2501,26.5802 c -12.5,7.53 -23.1699,18.4601 -29.2899,31.7999 -6.8102,14.3802 -7.16,31.6001 -1.3402,46.3601 6.3802,15.44 18.6202,28.1401 33.1702,36.1499 0.1701,-7.9599 0.04,-15.9298 0.0899,-23.8901 -4.3098,0 -8.61,0.0201 -12.9201,0.0403 -0.11,-4.7002 -0.0799,-9.4003 0.0102,-14.1001 17.32,0.03 34.64,-0.0201 51.95,0.0198 0.04,4.6701 0.04,9.3402 -0.0102,14.0103 -4.2698,0.0898 -8.5297,0.01 -12.7899,0.0898 0.6199,11.5002 1.0899,23.0202 1.83,34.52 15.2,4.0099 31.22,3.4402 46.4301,-0.1899 0.25,-11.44 0.0799,-22.8999 0.0598,-34.34 -4.2698,0 -8.5399,-0.0301 -12.8097,-0.0601 -0.1701,-4.6701 -0.1001,-9.3501 -0.0701,-14.0199 17.4201,-0.0601 34.8398,-0.0201 52.2701,-0.0102 -0.0403,4.68 0.0198,9.36 -0.0301,14.04 -4.3302,0.0301 -8.6502,0.0201 -12.9801,0.0301 0.1,7.9701 0,15.95 0.0799,23.94 8.57,-5.0001 16.45,-11.3199 22.7302,-19.0299 10.2299,-12.31 15.91,-28.6599 14.1401,-44.6901 -1.3601,-13.21 -7.3401,-25.71 -16.2202,-35.5198 -12.8001,-14.3703 -30.7598,-23.5202 -49.49,-27.3201 -25.2599,-5.3402 -52.67,-1.3101 -74.81,12.17 z"
     style="fill:#010101;fill-rule:evenodd"
     id="path1" />
</svg>
