<?xml version="1.0" encoding="UTF-8"?>
<svg version="1.1" xmlns="http://www.w3.org/2000/svg" width="2400" height="2400">
<path d="M0 0 C4.27461909 1.20274453 7.57383701 3.91061049 11.0546875 6.578125 C41.62227818 29.79586506 88.7746484 53.9617169 128.38671875 49.08203125 C142.10929653 47.19166166 155.83020715 44.31406315 168.0546875 37.578125 C168.7146875 37.578125 169.3746875 37.578125 170.0546875 37.578125 C170.0546875 85.758125 170.0546875 133.938125 170.0546875 183.578125 C152.54577237 189.41443004 152.54577237 189.41443004 144.1171875 190.828125 C143.17681641 190.98941895 142.23644531 191.15071289 141.26757812 191.31689453 C102.08422575 197.77400117 64.98113152 186.96064139 32.95776367 164.03198242 C27.31742816 159.89379699 22.13776298 155.38191062 17.0546875 150.578125 C15.66325641 149.38546978 14.26759956 148.19772187 12.8671875 147.015625 C9.42222981 144.05587262 6.63719216 140.79065651 3.890625 137.1796875 C1.2414233 134.86868176 -0.4395602 134.48575261 -3.9453125 134.578125 C-6.05025321 136.45584572 -7.47999515 138.03925536 -9.1328125 140.265625 C-10.09293028 141.4743447 -11.05522597 142.68133716 -12.01953125 143.88671875 C-12.50470215 144.50401855 -12.98987305 145.12131836 -13.48974609 145.75732422 C-20.39846639 154.39959795 -28.12693543 161.88396636 -36.9453125 168.578125 C-37.50734375 169.0097998 -38.069375 169.44147461 -38.6484375 169.88623047 C-60.0215346 186.24710398 -83.9590573 198.68264043 -108.9453125 208.578125 C-111.4203125 209.568125 -111.4203125 209.568125 -113.9453125 210.578125 C-20.2253125 210.908125 73.4946875 211.238125 170.0546875 211.578125 C170.0546875 271.308125 170.0546875 331.038125 170.0546875 392.578125 C158.5046875 393.568125 146.9546875 394.558125 135.0546875 395.578125 C91.5837585 401.6337768 46.8188057 415.94091986 14.20703125 446.6015625 C4.71630739 455.31718187 4.71630739 455.31718187 -1.1328125 455.890625 C-7.92292491 455.33405841 -11.64899171 451.93233367 -16.4453125 447.453125 C-39.77961179 426.10102401 -72.52180549 412.87731317 -102.9453125 405.578125 C-103.9559375 405.33320312 -104.9665625 405.08828125 -106.0078125 404.8359375 C-127.1399964 400.3514915 -151.24266992 406.3376384 -169.44921875 417.73046875 C-170.9453125 418.578125 -170.9453125 418.578125 -172.9453125 418.578125 C-172.9453125 369.408125 -172.9453125 320.238125 -172.9453125 269.578125 C-126.93970274 259.71978005 -83.96404049 259.88026021 -42.90576172 285.30810547 C-33.88333678 291.15301886 -25.52313485 297.96035098 -17.3203125 304.890625 C-16.76456543 305.35766846 -16.20881836 305.82471191 -15.63623047 306.3059082 C-12.14790955 309.31719832 -9.17276084 312.53317636 -6.28393555 316.12475586 C-4.91936538 317.783267 -4.91936538 317.783267 -2.3828125 318.828125 C0.56111047 318.52618418 1.69836361 317.51676568 3.63671875 315.33984375 C4.66670891 314.06015901 5.68321743 312.7695865 6.69140625 311.47265625 C32.21589109 278.67075015 72.09744602 255.56387216 111.0546875 242.578125 C18.3246875 242.248125 -74.4053125 241.918125 -169.9453125 241.578125 C-169.9453125 182.838125 -169.9453125 124.098125 -169.9453125 63.578125 C-159.0553125 62.588125 -148.1653125 61.598125 -136.9453125 60.578125 C-121.80556111 58.33805974 -107.4755116 55.28327805 -92.9453125 50.578125 C-92.16800781 50.32724121 -91.39070313 50.07635742 -90.58984375 49.81787109 C-63.91164042 41.01383753 -39.00657531 27.73066958 -17.55859375 9.5859375 C-14.98529496 7.42506038 -12.38672446 5.30556791 -9.734375 3.2421875 C-8.78812256 2.50282959 -8.78812256 2.50282959 -7.82275391 1.74853516 C-5.19724687 0.11177563 -3.05746773 -0.26172876 0 0 Z " fill="#EBCE44" transform="translate(1199.9453125,609.421875)"/>
<path d="M0 0 C722.7 0 1445.4 0 2190 0 C2190 3.3 2190 6.6 2190 10 C1467.3 10 744.6 10 0 10 C0 6.7 0 3.4 0 0 Z " fill="#000000" transform="translate(105,1498)"/>
<path d="M0 0 C18.48 0 36.96 0 56 0 C56 0.66 56 1.32 56 2 C54.6078125 2.8971875 54.6078125 2.8971875 53.1875 3.8125 C49.81099946 6.12970625 48.71042805 7.34832585 47 11 C46.70325093 13.59481402 46.56230058 15.95188337 46.56762695 18.54418945 C46.55221627 19.67508263 46.55221627 19.67508263 46.53649426 20.82882214 C46.50672503 23.25705787 46.49708324 25.68488862 46.48828125 28.11328125 C46.47280808 29.61732386 46.45600995 31.12135344 46.43786621 32.62536621 C46.38003085 38.18760044 46.34780573 43.75007714 46.3125 49.3125 C46.209375 61.749375 46.10625 74.18625 46 87 C76.69 87 107.38 87 139 87 C138.896875 74.398125 138.79375 61.79625 138.6875 48.8125 C138.65015747 42.85086792 138.65015747 42.85086792 138.61206055 36.76879883 C138.57548242 33.19629025 138.57548242 33.19629025 138.5349884 29.62382507 C138.51887247 28.03659054 138.50856137 26.44929045 138.50288391 24.86198425 C138.49312792 22.45296342 138.46477193 20.04479511 138.43237305 17.63598633 C138.43379901 16.93261296 138.43522497 16.2292396 138.43669415 15.50455189 C138.35382925 11.18293679 137.67700646 8.41955948 135 5 C131.93319201 3.17370206 131.93319201 3.17370206 129 2 C129 1.34 129 0.68 129 0 C148.47 0 167.94 0 188 0 C188 0.66 188 1.32 188 2 C186.2421875 2.91145833 184.484375 3.82291667 182.7265625 4.734375 C180.50409515 6.36351396 179.97899955 7.40189238 179 10 C178.79578585 12.68190588 178.70004478 15.26164678 178.69892883 17.94403076 C178.69086989 18.7503473 178.68281095 19.55666384 178.6745078 20.38741422 C178.65011604 23.09260372 178.64006734 25.79765124 178.63012695 28.50292969 C178.61595887 30.44125913 178.60104294 32.37958323 178.58543396 34.31790161 C178.53820416 40.6858475 178.5125092 47.05380674 178.48828125 53.421875 C178.47887319 55.61459642 178.46937875 57.80731747 178.45979881 60.00003815 C178.42130801 69.12067753 178.38809409 78.24130766 178.36942768 87.36201096 C178.3426144 100.43148485 178.28504055 113.49996928 178.18366271 126.56908488 C178.11480707 135.75987638 178.08046368 144.95040478 178.07186288 154.14144826 C178.06585861 159.63060686 178.04487818 165.11874746 177.98729897 170.60762787 C177.93393716 175.77250941 177.92338945 180.9357332 177.94544411 186.10082626 C177.94616032 187.99389657 177.93152844 189.88704587 177.90023422 191.77985764 C177.43724266 201.86112097 177.43724266 201.86112097 181.07427025 210.91178131 C183.2916811 212.88260873 185.47469705 214.45875345 188 216 C188 216.33 188 216.66 188 217 C168.53 217 149.06 217 129 217 C131.475 215.02 131.475 215.02 134 213 C136.35060342 210.81729683 137.90413364 209.35781832 138.1386652 206.03599358 C138.14511775 205.22665934 138.1515703 204.4173251 138.15821838 203.58346558 C138.1680072 202.6551593 138.17779602 201.72685303 138.18788147 200.77041626 C138.19363693 199.74902557 138.1993924 198.72763489 138.20532227 197.67529297 C138.21522186 196.60210815 138.22512146 195.52892334 138.23532104 194.42321777 C138.26700158 190.86289707 138.29171938 187.30256301 138.31640625 183.7421875 C138.33697012 181.27881516 138.35796643 178.8154464 138.37937927 176.3520813 C138.43465853 169.85836679 138.48404196 163.36462012 138.53222656 156.87084961 C138.59121517 149.08482853 138.65747528 141.29886599 138.72252655 133.51289368 C138.82060967 121.67529835 138.90941545 109.83766579 139 98 C108.31 98 77.62 98 46 98 C45.97441835 117.17796131 45.97441835 117.17796131 46.01367188 136.35546875 C46.04407171 144.17934682 46.06693851 152.0027316 46.04467773 159.82666016 C46.02720281 166.13583007 46.04373523 172.44408478 46.08367729 178.75314331 C46.09295916 181.15801414 46.09006365 183.56296433 46.07469368 185.96780396 C46.05522785 189.34153343 46.07936928 192.71238277 46.11352539 196.0859375 C46.0977092 197.07640579 46.08189301 198.06687408 46.06559753 199.08735657 C46.19167111 205.57486648 47.7154439 208.83194373 52.30460262 213.43838501 C52.86408376 213.95371796 53.42356489 214.4690509 54 215 C54.99 215.99 54.99 215.99 56 217 C37.52 217 19.04 217 0 217 C1.65 214.69 3.3 212.38 5 210 C6.21220231 206.36339306 6.14482095 203.03131159 6.14044189 199.24542236 C6.14341302 198.44742179 6.14638414 197.64942121 6.1494453 196.8272388 C6.15814017 194.14425544 6.15964121 191.46131666 6.16113281 188.77832031 C6.16576046 186.85822453 6.17078504 184.93812967 6.17617798 183.01803589 C6.18930981 177.79476996 6.19574855 172.5715169 6.20018864 167.34823704 C6.20311831 164.08557779 6.20722293 160.82292206 6.21169281 157.56026459 C6.22537026 147.3540744 6.23503551 137.14789226 6.2388947 126.94169354 C6.24337517 115.15677742 6.26092156 103.3719773 6.2898953 91.58709645 C6.3115079 82.48041777 6.32159877 73.37377173 6.32293582 64.26706767 C6.32398422 58.82693828 6.32989936 53.3869179 6.34775543 47.94681549 C6.36422861 42.82833785 6.36639523 37.71005124 6.35761642 32.59155655 C6.35684563 30.71424727 6.36119436 28.83692775 6.37107468 26.95964432 C6.38378595 24.39370632 6.37792193 21.82844572 6.36749268 19.26251221 C6.37554908 18.52232259 6.38360548 17.78213297 6.39190602 17.01951337 C6.34327178 11.89152133 5.38428552 8.45276784 3 4 C2.01 3.34 1.02 2.68 0 2 C0 1.34 0 0.68 0 0 Z " fill="#000000" transform="translate(318,1175)"/>
<path d="M0 0 C7.57342363 -0.04701871 15.14683155 -0.08221283 22.72036934 -0.10362434 C26.23973997 -0.11391765 29.75900846 -0.12780009 33.27832031 -0.15087891 C99.61410597 -0.57381456 99.61410597 -0.57381456 122.8125 20.5625 C123.8953125 21.7690625 123.8953125 21.7690625 125 23 C125.845625 23.928125 126.69125 24.85625 127.5625 25.8125 C136.17037783 36.3693313 137.07901557 48.93590872 136 62 C133.72489686 78.56090303 124.81837191 91.88548639 111.87890625 102 C106.84926619 105.49413258 101.46991797 108.25646748 96 111 C96.4846875 111.4125 96.969375 111.825 97.46875 112.25 C102.54433229 116.62280936 107.35801674 121.16970099 112 126 C112.56332031 126.56847656 113.12664062 127.13695312 113.70703125 127.72265625 C119.91949664 134.34249642 124.31569185 142.27953928 129 150 C147.91358136 182.4425933 147.91358136 182.4425933 172 211 C173.00230149 211.9976932 174.00299848 212.99701048 175 214 C148.33923476 221.9281667 148.33923476 221.9281667 137 216 C119.04986379 203.30152903 109.64180695 180.7216636 99.60473633 161.91796875 C88.29771332 137.27755706 88.29771332 137.27755706 68.875 120.0625 C63.731682 118.65324882 58.44273042 118.45609976 53.13671875 118.2109375 C50.56781747 118.03818449 48.4611977 117.6641803 46 117 C45.94527708 128.59662814 45.93368696 140.1924295 45.97665405 151.78913116 C45.99526297 157.17448853 45.99920106 162.55901239 45.96923828 167.94433594 C45.94084936 173.14491141 45.95148518 178.34409695 45.98880005 183.54460144 C45.99622746 185.52524023 45.98976333 187.50598299 45.96896362 189.48652649 C45.48396152 200.17040347 45.48396152 200.17040347 48.84765625 209.97241211 C50.80276988 211.89843179 52.77663304 213.41081808 55 215 C55 215.66 55 216.32 55 217 C36.85 217 18.7 217 0 217 C1.65 214.36 3.3 211.72 5 209 C5.46721798 205.93688008 5.6796301 203.44657537 5.63491821 200.40290833 C5.64271817 199.57472318 5.65051812 198.74653803 5.65855443 197.89325637 C5.67838578 195.13776676 5.66274541 192.38367193 5.64697266 189.62817383 C5.65375257 187.64497577 5.6626578 185.66178401 5.67352295 183.67860413 C5.69627377 178.30685492 5.68749839 172.93558704 5.67162752 167.56382966 C5.65895208 161.93940594 5.67071272 156.3150229 5.67855835 150.69059753 C5.68764784 141.24946707 5.67568291 131.80853237 5.65185547 122.36743164 C5.62462202 111.45066541 5.63347745 100.53436576 5.6609875 89.61761075 C5.68366922 80.2416121 5.68688391 70.86575396 5.67379415 61.48973674 C5.66599757 55.89098151 5.66496437 50.29244574 5.68147659 44.69370461 C5.69590916 39.4330081 5.68592153 34.17291427 5.65700531 28.91228294 C5.65038907 26.98093034 5.65230133 25.04952709 5.66331863 23.11819458 C5.67696399 20.48348985 5.65987204 17.85072172 5.63491821 15.21614075 C5.65164863 14.06721516 5.65164863 14.06721516 5.66871703 12.89507896 C5.5937687 8.8215674 5.19416209 7.22083034 2.46031761 4.1114912 C1.6484128 3.41469911 0.83650799 2.71790701 0 2 C0 1.34 0 0.68 0 0 Z M46 11 C46 42.68 46 74.36 46 107 C63.84507518 107 83.1957673 105.92061451 97.03515625 93.1171875 C100.98071064 88.84493115 103.87623163 84.40774352 106 79 C106.2990625 78.27039062 106.598125 77.54078125 106.90625 76.7890625 C111.29614314 63.90391319 110.86439266 47.26539641 105 35 C104.62617187 34.195625 104.25234375 33.39125 103.8671875 32.5625 C98.86138687 22.74980473 92.00754625 15.38272197 81.49609375 11.80859375 C69.51311712 8.28700486 58.11908379 7.53740463 46 11 Z " fill="#000000" transform="translate(1356,1175)"/>
<path d="M0 0 C5.81633719 -0.24861045 11.62953783 -0.42928809 17.44995117 -0.54931641 C19.42608544 -0.59937783 21.4018535 -0.6674543 23.37670898 -0.75439453 C39.75688067 -1.4570514 39.75688067 -1.4570514 45.19775391 2.07714844 C47.48072202 4.60060238 49.25393745 7.08626685 51 10 C51.8353125 11.0003125 52.670625 12.000625 53.53125 13.03125 C54.50578125 14.25328125 54.50578125 14.25328125 55.5 15.5 C58.4081338 19.0947765 61.38541332 22.58260628 64.5 26 C67.52282421 29.31989486 70.42512161 32.69764112 73.25 36.1875 C76.85470085 40.63852192 80.55370267 44.99198605 84.3125 49.3125 C85.13911133 50.26274048 85.13911133 50.26274048 85.98242188 51.23217773 C87.10162485 52.51831655 88.22092837 53.80436788 89.34033203 55.09033203 C95.4607846 62.13272391 101.56030337 69.19002801 107.4375 76.4375 C111.03636198 80.87239526 114.74735888 85.19564251 118.5 89.5 C123.01477284 94.67930172 127.43237753 99.91835614 131.7578125 105.2578125 C134.30254033 108.37000577 136.89633613 111.43712983 139.5 114.5 C146.3819909 122.60588092 153.18321163 130.75595395 159.4921875 139.3203125 C160.99518011 141.27323994 160.99518011 141.27323994 164 142 C163.93944738 125.02322924 163.86193476 108.04663182 163.76428509 91.07003593 C163.71933815 83.18732923 163.67992097 75.30466759 163.65356445 67.421875 C163.63057541 60.55044737 163.59716733 53.67916249 163.55129844 46.8078481 C163.52737831 43.17022599 163.50864167 39.53274517 163.50238609 35.89504623 C163.49520372 31.83200722 163.46475848 27.76945929 163.43237305 23.70654297 C163.43380814 22.50316788 163.43524323 21.29979279 163.4367218 20.05995178 C163.40581202 12.08427201 163.40581202 12.08427201 160 5 C156.94960779 3.09793151 156.94960779 3.09793151 154 2 C154 1.34 154 0.68 154 0 C166.87 0 179.74 0 193 0 C193 0.66 193 1.32 193 2 C191.02678947 3.3726682 189.02456848 4.70427617 187 6 C184.40685529 8.59314471 184.75054135 10.37784728 184.71566427 13.91155541 C184.717599 14.74617456 184.71953374 15.58079371 184.7215271 16.44070435 C184.7128385 17.76633859 184.7128385 17.76633859 184.70397437 19.11875331 C184.68688899 22.09759713 184.68409056 25.07628683 184.68115234 28.05517578 C184.67186005 30.18352645 184.66169244 32.31187344 184.65071106 34.44021606 C184.62331816 40.23329351 184.60823422 46.02634652 184.59528303 51.81947184 C184.579693 57.868029 184.55288972 63.91653595 184.5272522 69.96505737 C184.48039109 81.42557897 184.44368254 92.88610993 184.41057932 104.34667861 C184.37240963 117.39124782 184.32298605 130.43576668 184.27259517 143.48029351 C184.1691663 170.3201584 184.07994164 197.16005561 184 224 C180.18111754 220.86963518 176.94305378 217.96674883 173.875 214.0625 C170.33230977 209.63115515 166.70896302 205.29304707 163 201 C159.46344226 196.89810244 155.97135015 192.77196082 152.5625 188.5625 C148.96363971 184.12760683 145.25267936 179.80432214 141.5 175.5 C137.00256649 170.34144505 132.61004716 165.11843114 128.30078125 159.80078125 C125.61941084 156.53670217 122.87937137 153.3274928 120.125 150.125 C119.61791504 149.53541504 119.11083008 148.94583008 118.58837891 148.33837891 C118.08097168 147.74847168 117.57356445 147.15856445 117.05078125 146.55078125 C110.80572679 139.28968997 104.6036885 131.99446571 98.5625 124.5625 C94.15086945 119.14429421 89.60676358 113.8472915 85.05078125 108.55078125 C78.80572679 101.28968997 72.6036885 93.99446571 66.5625 86.5625 C63.08926847 82.29254152 59.53179985 78.10520956 55.9375 73.9375 C51.95618679 69.31687441 48.07225168 64.64219227 44.28125 59.86328125 C41.08361172 55.84980717 37.86262544 51.85627137 34.625 47.875 C34.00512207 47.10309326 33.38524414 46.33118652 32.74658203 45.53588867 C32.16247559 44.82021729 31.57836914 44.1045459 30.9765625 43.3671875 C30.45143066 42.71862793 29.92629883 42.07006836 29.38525391 41.40185547 C28.92812012 40.93924316 28.47098633 40.47663086 28 40 C27.34 40 26.68 40 26 40 C26.01380494 61.93135368 26.05602695 83.86248867 26.13209057 105.79371834 C26.16674546 115.97676108 26.19209675 126.15966838 26.19555664 136.34277344 C26.19859584 145.21826028 26.21908033 154.09350593 26.26052457 162.96889961 C26.28186031 167.66853399 26.29445224 172.36782544 26.28615379 177.0675087 C26.27861727 181.49178327 26.29441989 185.91536278 26.32806015 190.33950996 C26.33629827 191.96242665 26.33603758 193.58541239 26.32659721 195.20832253 C26.31496871 197.42722554 26.33409826 199.64385296 26.36076355 201.86257935 C26.36352893 203.1033127 26.36629431 204.34404606 26.36914349 205.6223774 C27.1996357 210.06885487 28.97213386 211.70275318 32 215 C32 215.66 32 216.32 32 217 C23.42 217 14.84 217 6 217 C7.65 215.35 9.3 213.7 11 212 C14.51670622 208.41475098 14.42879627 204.95408338 14.39440918 200.16313171 C14.40050028 199.36836026 14.40659139 198.57358882 14.41286707 197.75473338 C14.42953115 195.08854141 14.42471643 192.42282524 14.41992188 189.7565918 C14.42726033 187.84619652 14.4358459 185.93580568 14.44558716 184.02542114 C14.46783782 178.83316569 14.47073198 173.64106878 14.46883965 168.44877219 C14.46872008 164.11480445 14.47727852 159.78087047 14.48561716 155.44691211 C14.50486481 145.22117704 14.50773042 134.99552361 14.50097656 124.76977539 C14.49433762 114.22123955 14.51719122 103.67305355 14.55429029 93.12458867 C14.58498374 84.06882672 14.59634761 75.01317731 14.59245348 65.95736438 C14.59038526 60.54848725 14.59587628 55.13988219 14.62034607 49.73105431 C14.64260405 44.64280147 14.64074307 39.55511713 14.62041855 34.46686172 C14.61700661 32.60084021 14.62210552 30.73478052 14.63640213 28.86881065 C14.65459616 26.31781817 14.64184577 23.76875392 14.62145996 21.21781921 C14.63397781 20.48220267 14.64649566 19.74658612 14.65939283 18.98867816 C14.56362009 13.38499638 12.70801314 9.99772739 9 6 C6.08892082 3.86994207 3.54328275 2.65616347 0 2 C0 1.34 0 0.68 0 0 Z " fill="#000000" transform="translate(812,1175)"/>
<path d="M0 0 C1 1 1 1 1.11352539 4.41821289 C1.11336628 5.93636988 1.10767226 7.45453229 1.09765625 8.97265625 C1.09553383 10.16912025 1.09553383 10.16912025 1.09336853 11.38975525 C1.08775316 13.94737435 1.07519812 16.50490718 1.0625 19.0625 C1.05748698 20.79231645 1.05292373 22.52213426 1.04882812 24.25195312 C1.03777875 28.50133553 1.02050386 32.75065312 1 37 C0.34 37 -0.32 37 -1 37 C-2.10791567 35.39801383 -3.13542692 33.74017158 -4.125 32.0625 C-17.10621545 11.26063426 -37.76727305 0.00135851 -61 -6 C-78.41904757 -9.69710397 -96.48044017 -6.97080597 -111.8671875 1.89453125 C-132.17677301 15.54399084 -142.67898377 37.02304708 -147.50048828 60.4296875 C-154.08435334 95.39838547 -149.44001161 130.88338133 -129.6875 160.8125 C-118.0255594 176.91234632 -102.71679358 188.55505971 -83.04296875 192.609375 C-64.63794108 194.97202297 -39.27381874 192.60341488 -24 181 C-23.21447218 178.27142797 -23.21447218 178.27142797 -23.28955078 175.0949707 C-23.26087921 173.87973221 -23.23220764 172.66449371 -23.20266724 171.41242981 C-23.20024017 170.09683578 -23.19781311 168.78124176 -23.1953125 167.42578125 C-23.18177838 166.05916967 -23.1673505 164.69256667 -23.15206909 163.32597351 C-23.12663534 160.45838647 -23.12137646 157.59155962 -23.12841797 154.72387695 C-23.13449595 151.06523626 -23.0768131 147.4107603 -23.00175667 143.75300312 C-22.95341244 140.92762378 -22.94672145 138.10323034 -22.9514122 135.2774868 C-22.94543378 133.27882682 -22.89917119 131.28041697 -22.8520813 129.28230286 C-22.87130615 122.32716618 -22.87130615 122.32716618 -26.074646 116.37509155 C-28.2987822 114.40877686 -30.56830306 112.69579523 -33 111 C-33 110.67 -33 110.34 -33 110 C-18.81 110 -4.62 110 10 110 C10 110.66 10 111.32 10 112 C8.50390625 113.21875 8.50390625 113.21875 6.5625 114.5 C3.77468153 116.2865363 3.77468153 116.2865363 2 119 C1.87879701 121.30724017 1.8224643 123.61796828 1.79467773 125.92822266 C1.78477814 126.64052536 1.77487854 127.35282806 1.76467896 128.0867157 C1.73304142 130.44579726 1.7082977 132.80489897 1.68359375 135.1640625 C1.66302616 136.79788747 1.64202974 138.43170708 1.62062073 140.06552124 C1.56537987 144.36942216 1.5159795 148.67337126 1.46777344 152.97735596 C1.4175731 157.36776018 1.36187939 161.75809429 1.30664062 166.1484375 C1.19903442 174.76556575 1.09759494 183.38275258 1 192 C-1.96415678 192.95938478 -4.93104414 193.91005297 -7.8984375 194.859375 C-8.72400146 195.12669434 -9.54956543 195.39401367 -10.40014648 195.66943359 C-49.88220139 208.25903082 -97.19014078 210.8080121 -134.97558594 192.05126953 C-158.67358784 179.74499889 -176.80717727 157.0504836 -185.16455078 131.87695312 C-195.49250839 98.97069482 -191.7980198 64.33005368 -176.37890625 33.7890625 C-163.47659418 10.2121757 -140.78396202 -5.62481519 -115.390625 -13.4765625 C-75.49921781 -25.02916007 -36.90373819 -17.39613984 0 0 Z " fill="#000000" transform="translate(1266,1191)"/>
<path d="M0 0 C2.31 0 4.62 0 7 0 C10.72372223 6.94130745 13.49436173 14.20858829 16.30984497 21.5513916 C24.6702853 43.32593278 33.34652113 64.97560204 42.01365662 86.62927246 C43.04377832 89.20322044 44.07341417 91.77736224 45.10290527 94.3515625 C52.37725616 112.53893076 59.67863866 130.71521071 67.03125 148.87109375 C67.48158191 149.98425083 67.48158191 149.98425083 67.94101143 151.11989594 C72.36407844 162.04938776 76.87154207 172.94194288 81.4375 183.8125 C81.72871483 184.50612105 82.01992966 185.19974211 82.31996918 185.91438198 C85.40756888 193.25853341 88.63659309 200.51059551 92.12890625 207.671875 C92.44733994 208.33923172 92.76577362 209.00658844 93.09385681 209.69416809 C95.80274232 215.14514083 99.15093446 218.4792689 104 222 C104 222.33 104 222.66 104 223 C85.52 223 67.04 223 48 223 C48.33 222.34 48.66 221.68 49 221 C49.66 221 50.32 221 51 221 C51.27741892 215.32415895 50.362912 210.72170315 48.6875 205.3125 C48.4304126 204.46816406 48.1733252 203.62382813 47.90844727 202.75390625 C42.92686225 186.94383195 36.42546407 171.5720792 29.90258789 156.34570312 C29 154 29 154 29 152 C5.9 152 -17.2 152 -41 152 C-41.99 155.3 -42.98 158.6 -44 162 C-44.78272251 164.27506551 -45.5867713 166.54297514 -46.41796875 168.80078125 C-46.86438721 170.01572266 -47.31080566 171.23066406 -47.77075195 172.48242188 C-48.11814926 173.42106079 -48.11814926 173.42106079 -48.4725647 174.37866211 C-49.20106976 176.34920501 -49.92359255 178.32186696 -50.64526367 180.29492188 C-52.87393229 186.36998211 -55.14250418 192.41890199 -57.5703125 198.41796875 C-57.9516333 199.37082764 -58.3329541 200.32368652 -58.72583008 201.30541992 C-59.43065723 203.05315688 -60.15098219 204.79475403 -60.8894043 206.52856445 C-62.37762854 210.23312887 -63.11553794 212.30513354 -62.44921875 216.3125 C-60.91235068 219.47000516 -60.91235068 219.47000516 -57 223 C-68.88 223 -80.76 223 -93 223 C-91.2185004 221.2185004 -89.39403695 219.47602573 -87.48828125 217.828125 C-84.46642064 214.39354559 -83.42223586 211.05083412 -82.1875 206.75 C-78.97295528 196.33233602 -75.07136363 186.22342776 -71.08203125 176.0859375 C-70.38210406 174.30035753 -69.68232006 172.51472143 -68.98266602 170.72903442 C-60.49523595 149.09265828 -51.90089879 127.49831208 -43.30029297 105.90673828 C-41.43185273 101.21595831 -39.56501457 96.52454611 -37.69970703 91.83251953 C-28.4991993 68.68980714 -19.28219875 45.55473008 -9.84375 22.5078125 C-9.51002884 21.69121029 -9.17630768 20.87460808 -8.83247375 20.03326035 C-7.90343309 17.76208173 -6.97099525 15.49233447 -6.03710938 13.22314453 C-5.77095322 12.57229008 -5.50479706 11.92143562 -5.23057556 11.25085831 C-3.64404147 7.41252188 -1.89876106 3.69345557 0 0 Z M-7 64 C-10.91759052 73.72453668 -14.82962704 83.45128686 -18.73454285 93.1809206 C-20.5478284 97.69846322 -22.36303493 102.21521411 -24.18261719 106.73022461 C-25.93777707 111.08558373 -27.68790937 115.4429314 -29.43453979 119.80171776 C-30.10257435 121.46625116 -30.77243268 123.13005379 -31.44412231 124.79311562 C-32.38291788 127.11840172 -33.31525845 129.44617634 -34.24609375 131.7746582 C-34.52661591 132.46517776 -34.80713806 133.15569733 -35.09616089 133.86714172 C-36.23949804 136.74416389 -37 138.87220879 -37 142 C-16.54 142 3.92 142 25 142 C23.20227083 136.00756944 21.51267206 130.46861916 19.21264648 124.73022461 C18.95207458 124.07688141 18.69150269 123.42353821 18.42303467 122.75039673 C17.57688263 120.63254569 16.72436506 118.51733547 15.87109375 116.40234375 C15.27464003 114.91694988 14.67837559 113.43148 14.08229065 111.94593811 C12.84050643 108.85441938 11.59533208 105.76429286 10.34790039 102.67504883 C8.74741105 98.71019559 7.15733946 94.74125422 5.56991482 90.77115536 C4.34536558 87.712723 3.11453929 84.65684722 1.8818531 81.60168648 C1.29239941 80.13807146 0.70512399 78.67357725 0.12005424 77.20820427 C-0.69413999 75.17118089 -1.51691087 73.13783801 -2.34204102 71.10522461 C-2.80820328 69.94735947 -3.27436554 68.78949432 -3.75465393 67.59654236 C-4.73187804 64.87861537 -4.73187804 64.87861537 -7 64 Z " fill="#000000" transform="translate(2181,1169)"/>
<path d="M0 0 C2.64 0 5.28 0 8 0 C14.66358462 16.152474 21.1451102 32.37345371 27.5625 48.625 C56.41189958 141.87174119 56.41189958 141.87174119 104 223 C85.85 223 67.7 223 49 223 C51.475 219.535 51.475 219.535 54 216 C54.0951454 210.07114434 51.49686786 204.88987382 49.140625 199.55078125 C48.75436951 198.65691208 48.36811401 197.76304291 47.97015381 196.84208679 C46.73805321 193.99536248 45.49438313 191.15387367 44.25 188.3125 C43.42888806 186.42287322 42.60856807 184.53290212 41.7890625 182.64257812 C40.22175162 179.02900307 38.65337745 175.41589386 37.08398438 171.80322266 C36.38925941 170.20217599 35.69459312 168.60110387 35 167 C34.70617432 166.32418884 34.41234863 165.64837769 34.10961914 164.9520874 C33.37451177 163.25574164 32.64776412 161.55577954 31.921875 159.85546875 C31.5412793 158.96883545 31.16068359 158.08220215 30.76855469 157.16870117 C30 155 30 155 30 152 C6.9 152.33 -16.2 152.66 -40 153 C-43.3 161.91 -46.6 170.82 -50 180 C-51.10472656 182.96613281 -52.20945312 185.93226563 -53.34765625 188.98828125 C-54.25283633 191.42960143 -55.15779647 193.87100318 -56.0625 196.3125 C-56.29735107 196.93970947 -56.53220215 197.56691895 -56.77416992 198.21313477 C-57.47035179 200.07381314 -58.15911509 201.93726193 -58.84765625 203.80078125 C-59.23961182 204.85434814 -59.63156738 205.90791504 -60.03540039 206.9934082 C-60.35371826 207.9855835 -60.67203613 208.97775879 -61 210 C-61.31251709 210.97348389 -61.62503418 211.94696777 -61.94702148 212.94995117 C-62.32041163 217.01978778 -62.32041163 217.01978778 -57 223 C-68.88 223 -80.76 223 -93 223 C-90.525 221.02 -90.525 221.02 -88 219 C-85.29704847 216.66736023 -84.17702448 214.49612367 -82.86206055 211.18188477 C-82.46645432 210.19571167 -82.07084808 209.20953857 -81.66325378 208.19348145 C-81.24199722 207.12029663 -80.82074066 206.04711182 -80.38671875 204.94140625 C-79.94092972 203.82334595 -79.49514069 202.70528564 -79.0358429 201.55334473 C-77.82951642 198.5227978 -76.6302292 195.48958585 -75.43432617 192.45491409 C-74.43289497 189.91734565 -73.42572597 187.38207255 -72.41843987 184.84682369 C-66.34724816 169.56596792 -60.33128285 154.26327469 -54.40014648 138.92749023 C-49.06762527 125.13997652 -43.66016052 111.38220932 -38.25 97.625 C-36.35526805 92.80606847 -34.46074376 87.98705535 -32.56640625 83.16796875 C-32.09926712 81.97959412 -31.63212799 80.79121948 -31.15083313 79.5668335 C-24.43906893 62.48844248 -17.75749009 45.39823378 -11.07568359 28.30810547 C-7.38587077 18.87125608 -3.69269622 9.43572137 0 0 Z M-6 63 C-10.04390619 73.15186765 -14.08598278 83.3044616 -18.12569427 93.45799923 C-20.00134527 98.17215003 -21.87763692 102.88604377 -23.75537109 107.59936523 C-25.56585928 112.14395926 -27.37469282 116.68920853 -29.18235779 121.23492622 C-29.87394229 122.97318764 -30.56613306 124.71120797 -31.25892639 126.44898796 C-32.22563334 128.87413833 -33.19022362 131.30012005 -34.15429688 133.72631836 C-34.44416977 134.45208069 -34.73404266 135.17784302 -35.03269958 135.92559814 C-36.40598997 138.87584279 -36.40598997 138.87584279 -37 142 C-16.21 142 4.58 142 26 142 C20.84721885 128.25346246 20.84721885 128.25346246 15.50857544 114.58190918 C15.12601278 113.62114723 15.12601278 113.62114723 14.73572159 112.64097595 C14.47488659 111.98601639 14.21405159 111.33105682 13.9453125 110.65625 C13.3932479 109.26669542 12.84132002 107.87708652 12.28952026 106.48742676 C10.86068474 102.8900667 9.43003692 99.29343029 7.9989624 95.69696045 C6.52942611 92.0028506 5.06167121 88.3080331 3.59375 84.61328125 C0.73087387 77.40817469 -2.13392418 70.20383446 -5 63 C-5.33 63 -5.66 63 -6 63 Z " fill="#000000" transform="translate(656,1169)"/>
<path d="M0 0 C1 1 1 1 1.11352539 3.59204102 C1.10567017 5.28091431 1.10567017 5.28091431 1.09765625 7.00390625 C1.09282227 8.82631836 1.09282227 8.82631836 1.08789062 10.68554688 C1.07532227 12.60463867 1.07532227 12.60463867 1.0625 14.5625 C1.05798828 15.84576172 1.05347656 17.12902344 1.04882812 18.45117188 C1.03699545 21.63416022 1.02051068 24.81705762 1 28 C-1.90748557 26.54625722 -2.24641399 24.50588325 -3.5625 21.5625 C-8.10711023 12.27424552 -14.57580141 4.53689404 -24 0 C-24.94166016 -0.47566406 -24.94166016 -0.47566406 -25.90234375 -0.9609375 C-34.77588259 -4.67385778 -46.80424215 -4.39471936 -55.9375 -1.5625 C-65.48329795 2.60109272 -71.67672447 9.63696986 -75.8828125 19.0234375 C-80.07909689 30.20374765 -80.53558528 41.85823617 -76 53 C-68.67946689 67.0779483 -51.8467024 73.83126085 -38.125 79.9375 C-16.27845819 89.86493477 2.54734077 99.85470246 12 123 C16.77787357 140.17508736 13.87616104 158.70254495 5.24609375 174.13671875 C-1.82450822 185.29255742 -10.4966707 193.56003435 -22 200 C-22.94746094 200.53496094 -23.89492187 201.06992188 -24.87109375 201.62109375 C-46.82951794 213.31475656 -71.30333073 214.22896925 -94.82983398 207.16967773 C-103.77152099 204.27351336 -112.88600288 200.35640688 -119 193 C-119.56762695 189.58666992 -119.56762695 189.58666992 -119.48828125 185.73046875 C-119.47766914 184.70896477 -119.47766914 184.70896477 -119.46684265 183.66682434 C-119.43900069 181.50590005 -119.37629527 179.34763178 -119.3125 177.1875 C-119.28740332 175.71683448 -119.26459253 174.24612807 -119.24414062 172.77539062 C-119.18921188 169.18274043 -119.10301647 165.59162972 -119 162 C-117.13576129 164.79635806 -115.88169156 167.44742561 -114.5 170.5 C-107.9405017 183.63487916 -97.44702473 192.61520962 -83.625 197.375 C-70.38487167 201.47908291 -58.69115193 200.81261286 -46.12890625 194.57421875 C-41.46074006 191.88984978 -37.57433095 189.0707658 -34 185 C-33.52046875 184.51144531 -33.0409375 184.02289062 -32.546875 183.51953125 C-22.83272282 173.19211189 -20.37632196 159.99858202 -20.69140625 146.328125 C-21.15696595 137.29510773 -25.55704733 131.10252269 -32 125 C-42.26419109 115.81070366 -56.5484609 111.20456465 -69.04296875 105.828125 C-88.77690681 97.29849723 -105.31245309 86.49841128 -114 66 C-119.2258626 51.21402858 -116.71485516 32.76984924 -110.375 18.875 C-103.02731503 4.9960395 -89.99307086 -5.66561639 -75.11181641 -10.62988281 C-49.01001763 -18.54658624 -22.34658046 -16.4221382 0 0 Z " fill="#000000" transform="translate(228,1184)"/>
<path d="M0 0 C19.14 0 38.28 0 58 0 C58 0.66 58 1.32 58 2 C56.20963542 2.9765625 54.41927083 3.953125 52.62890625 4.9296875 C50.83381685 5.91410024 50.83381685 5.91410024 50 8 C49.89222187 10.60687402 49.84510051 13.18774707 49.84178162 15.7953186 C49.83684364 16.60965437 49.83190566 17.42399014 49.82681805 18.26300275 C49.81139196 21.006876 49.80306864 23.75072577 49.79467773 26.49462891 C49.78510322 28.45549223 49.7750934 30.41635348 49.76467896 32.37721252 C49.73757755 37.71368748 49.71659639 43.05017132 49.69667697 48.38667727 C49.67484964 53.95875969 49.64744507 59.53081455 49.62062073 65.10287476 C49.57064975 75.66029294 49.5257273 86.21772639 49.48259836 96.7751745 C49.43326358 108.79193911 49.37833154 120.80867606 49.32291877 132.82541394 C49.20903112 157.55025017 49.1022069 182.27511292 49 207 C49.62765731 206.94350533 50.25531462 206.88701065 50.90199184 206.82880402 C62.32571929 205.80519692 73.73507138 204.79300888 85.19140625 204.21875 C87.41342559 204.0979158 89.63543045 203.97681521 91.85742188 203.85546875 C95.24520237 203.67456905 98.63307893 203.49638312 102.02124023 203.32275391 C105.37006433 203.14953478 108.71820671 202.96609659 112.06640625 202.78125 C113.07884903 202.73222534 114.09129181 202.68320068 115.13441467 202.63269043 C120.08358254 202.35313564 124.35538775 201.90698802 129 200 C128.56808366 201.52242851 128.12912438 203.04285919 127.6875 204.5625 C127.44386719 205.40941406 127.20023438 206.25632812 126.94921875 207.12890625 C125.83677406 210.49370808 124.39602157 213.74261634 123 217 C82.08 217 41.16 217 -1 217 C4 212 4 212 6.28075409 210.18763638 C8.79351308 206.99030263 8.55373987 203.89533117 8.50793457 199.99781799 C8.51417453 199.1853012 8.5204145 198.37278441 8.52684355 197.5356459 C8.54281554 194.80935859 8.53015306 192.08396017 8.51757812 189.35766602 C8.52299742 187.40461708 8.530119 185.45157223 8.53881836 183.49853516 C8.55707867 178.1906527 8.54997263 172.88308068 8.53730202 167.57519269 C8.52718697 162.02415447 8.53656367 156.47314313 8.54284668 150.92210388 C8.55012804 141.59832988 8.54052315 132.27468252 8.52148438 122.95092773 C8.49972113 112.16835771 8.50676114 101.38609028 8.52879 90.60352761 C8.54693763 81.35076511 8.54950522 72.09809375 8.53903532 62.84531921 C8.53279609 57.31695498 8.53197649 51.788733 8.54518127 46.26037788 C8.5567296 41.0621918 8.54873245 35.86439602 8.52560425 30.66625214 C8.52031147 28.75747514 8.52184064 26.84866534 8.53065491 24.93990135 C8.54157173 22.33587817 8.527894 19.73310875 8.50793457 17.12916565 C8.51685746 16.37215962 8.52578034 15.6151536 8.53497362 14.835208 C8.46212857 9.94196408 7.4894752 7.43169337 4 4 C1.88339573 2.68834743 1.88339573 2.68834743 0 2 C0 1.34 0 0.68 0 0 Z " fill="#000000" transform="translate(1914,1175)"/>
<path d="M0 0 C19.47 0 38.94 0 59 0 C59 0.66 59 1.32 59 2 C57.2421875 2.91145833 55.484375 3.82291667 53.7265625 4.734375 C51.50248942 6.36469101 50.97646898 7.39839654 50 10 C49.81037598 12.69218575 49.73015035 15.27955091 49.74603271 17.97094727 C49.74135274 19.18465547 49.74135274 19.18465547 49.73657823 20.42288303 C49.72859318 23.13746461 49.73492384 25.85182296 49.74121094 28.56640625 C49.7385013 30.51122163 49.73494052 32.45603598 49.73059082 34.40084839 C49.72146131 39.68586104 49.72501341 44.97079574 49.73134899 50.25580978 C49.73640606 55.78195153 49.73171835 61.30808652 49.72857666 66.83422852 C49.72493616 76.11508383 49.72973832 85.39590733 49.73925781 94.67675781 C49.75014251 105.4126913 49.74661699 116.14854883 49.735605 126.88448048 C49.72653452 136.09559435 49.72524568 145.30668534 49.73048234 154.51780224 C49.73360335 160.02206353 49.73400777 165.52628909 49.72740936 171.0305481 C49.72164002 176.20482064 49.72562529 181.37899507 49.73719788 186.55325699 C49.73984666 188.45439618 49.73907566 190.3555436 49.73467255 192.25667953 C49.7292243 194.84758279 49.73604246 197.43816974 49.74603271 200.02905273 C49.73934055 201.16309461 49.73934055 201.16309461 49.73251319 202.32004642 C49.7602811 206.02142581 49.85873797 208.90014377 52 212 C53.69727225 213.31210005 53.69727225 213.31210005 55.625 214.25 C56.73875 214.8275 57.8525 215.405 59 216 C59 216.33 59 216.66 59 217 C39.53 217 20.06 217 0 217 C5 212 5 212 7.28033352 210.18763638 C9.7931992 206.99094886 9.55696684 203.89528324 9.5146637 199.99781799 C9.52160922 199.1853012 9.52855475 198.37278441 9.53571075 197.5356459 C9.55402676 194.80937448 9.54370387 192.08396873 9.53344727 189.35766602 C9.54050343 187.40461575 9.54924717 185.45157096 9.55955505 183.49853516 C9.58209297 178.19066504 9.57909897 172.88309249 9.57023358 167.57519269 C9.56513022 163.14658766 9.57241098 158.71803886 9.57970566 154.28943962 C9.59671874 143.84321917 9.59312469 133.39714476 9.57641602 122.95092773 C9.55949246 112.16831137 9.57532941 101.38609976 9.6076389 90.60352761 C9.63431566 81.35076096 9.64161598 72.09812046 9.63312382 62.84531921 C9.62818912 57.31691408 9.63043962 51.78875255 9.65091133 46.26037788 C9.66923833 41.06213105 9.66334607 35.86446744 9.63871193 30.66625214 C9.6336946 28.75747152 9.63721763 26.84864669 9.64986038 24.93990135 C9.66574641 22.33564853 9.65088342 19.73332668 9.62818909 17.12916565 C9.64002482 16.37215962 9.65186054 15.6151536 9.66405493 14.835208 C9.5938404 10.87464911 9.14748054 9.18020156 6.60526943 6.0739584 C4.42823479 4.34090184 2.56396368 3.04457779 0 2 C0 1.34 0 0.68 0 0 Z " fill="#000000" transform="translate(1591,1175)"/>
<path d="M0 0 C6.81348437 -0.07642878 13.62685705 -0.12875823 20.44067383 -0.16479492 C22.75582002 -0.17982729 25.070938 -0.2002587 27.38598633 -0.22631836 C30.72484324 -0.26294596 34.0633217 -0.27978241 37.40234375 -0.29296875 C38.94038918 -0.31619453 38.94038918 -0.31619453 40.50950623 -0.33988953 C49.4315249 -0.34195174 56.95734682 1.14528287 63.5625 7.4140625 C68.38754179 12.7373423 69.14880965 19.03570841 69 26 C67.92520007 31.98966172 64.67436212 37.13899649 60 41 C54.24987714 44.17845987 48.50354096 45.51825623 42 46 C44.95542494 51.40764804 48.29034719 56.34998061 51.9375 61.3125 C55.53248865 66.2142899 59.10287297 71.12022879 62.53125 76.140625 C63.10238525 76.96522217 63.67352051 77.78981934 64.26196289 78.6394043 C65.35842666 80.22506697 66.44156601 81.82004726 67.50952148 83.42504883 C70.54627825 87.86442363 70.54627825 87.86442363 75.37890625 89.99609375 C76.24386719 89.99738281 77.10882812 89.99867187 78 90 C78 91.32 78 92.64 78 94 C74.33541373 94.32236456 70.67447572 94.51560776 67 94.6875 C65.97003906 94.77966797 64.94007812 94.87183594 63.87890625 94.96679688 C59.43185475 95.1225853 56.29246755 95.14838289 52.86914062 92.10668945 C51.1277125 89.7466785 49.57326627 87.3425469 48.09033203 84.81307983 C46.45200336 82.08875312 44.65046423 79.48103356 42.86340332 76.8527832 C40.37813813 73.19307042 37.94434166 69.49969932 35.5 65.8125 C32.035 60.594375 28.57 55.37625 25 50 C24.67 63.2 24.34 76.4 24 90 C26.97 90 29.94 90 33 90 C33 91.32 33 92.64 33 94 C22.11 94 11.22 94 0 94 C0 92.68 0 91.36 0 90 C1.98 90 3.96 90 6 90 C6 61.62 6 33.24 6 4 C4.02 4 2.04 4 0 4 C0 2.68 0 1.36 0 0 Z M24 4 C24 17.53 24 31.06 24 45 C32.90075992 45 38.97366134 44.74882254 46 39 C50.38935638 34.00101079 51.57727861 28.49934136 52 22 C51.59923151 16.10536342 50.5522654 11.0601286 46 7 C38.73483094 2.31800216 33.53083495 4 24 4 Z " fill="#000000" transform="translate(1749,1611)"/>
<path d="M0 0 C9.9 0 19.8 0 30 0 C30 1.32 30 2.64 30 4 C26.7 4 23.4 4 20 4 C20 16.21 20 28.42 20 41 C31.55 41 43.1 41 55 41 C55 28.79 55 16.58 55 4 C51.7 4 48.4 4 45 4 C45 2.68 45 1.36 45 0 C55.89 0 66.78 0 78 0 C78 1.32 78 2.64 78 4 C75.03 4 72.06 4 69 4 C69 32.38 69 60.76 69 90 C71.97 90 74.94 90 78 90 C78 91.32 78 92.64 78 94 C67.11 94 56.22 94 45 94 C45 92.68 45 91.36 45 90 C48.3 90 51.6 90 55 90 C55 75.48 55 60.96 55 46 C43.45 46 31.9 46 20 46 C20 60.52 20 75.04 20 90 C23.3 90 26.6 90 30 90 C30 91.32 30 92.64 30 94 C20.1 94 10.2 94 0 94 C0 92.68 0 91.36 0 90 C1.98 90 3.96 90 6 90 C6 61.62 6 33.24 6 4 C4.02 4 2.04 4 0 4 C0 2.68 0 1.36 0 0 Z " fill="#000000" transform="translate(373,1611)"/>
<path d="M0 0 C6.3495494 -0.1021981 12.69888337 -0.17179699 19.04907227 -0.21972656 C21.20507737 -0.23972691 23.36102904 -0.26693624 25.5168457 -0.30175781 C28.63245912 -0.35078853 31.74734971 -0.37308514 34.86328125 -0.390625 C35.81270096 -0.41127014 36.76212067 -0.43191528 37.74031067 -0.45318604 C46.79359552 -0.45615869 56.01036849 2.00888727 63 8 C67.35243375 13.84672981 69.48710609 18.57163214 69 26 C67.6462402 33.43824066 63.01867474 37.75267506 57 42 C52.22274922 44.55138623 47.34329352 45.44340693 42 46 C46.10767295 53.82331938 50.62518054 61.25860615 55.5 68.625 C56.13808594 69.59695313 56.77617188 70.56890625 57.43359375 71.5703125 C58.68711717 73.47751378 59.94527204 75.3816807 61.20849609 77.2824707 C62.38596044 79.06856442 63.54579566 80.86642888 64.68603516 82.67651367 C65.20472168 83.49095947 65.7234082 84.30540527 66.2578125 85.14453125 C66.70785645 85.86487549 67.15790039 86.58521973 67.62158203 87.32739258 C69.03048173 89.34661546 69.03048173 89.34661546 72.375 90.0625 C73.24125 90.041875 74.1075 90.02125 75 90 C75 91.32 75 92.64 75 94 C57.6769982 95.60856445 57.6769982 95.60856445 52.34765625 92.40625 C50.2566453 89.73414848 48.66781018 86.95657258 47 84 C45.53382123 81.89355467 44.01432427 79.83235125 42.48876953 77.76855469 C40.79617556 75.47790755 39.13304975 73.16842894 37.4765625 70.8515625 C33.89454332 65.84898187 30.29200046 60.86139408 26.6875 55.875 C24.810625 53.27625 22.93375 50.6775 21 48 C20.67 61.86 20.34 75.72 20 90 C23.3 90 26.6 90 30 90 C30 91.32 30 92.64 30 94 C20.1 94 10.2 94 0 94 C0 92.68 0 91.36 0 90 C2.31 90 4.62 90 7 90 C7 61.62 7 33.24 7 4 C4.69 4 2.38 4 0 4 C0 2.68 0 1.36 0 0 Z M20 4 C20 17.53 20 31.06 20 45 C34.14046175 45.34772489 34.14046175 45.34772489 46 39 C50.93281381 33.36059394 52.36758176 27.4165025 52 20 C50.90967848 14.35710791 48.48922885 10.65402348 44 7 C36.43475242 2.65835921 36.43475242 2.65835921 20 4 Z " fill="#000000" transform="translate(1317,1611)"/>
<path d="M0 0 C11.30388467 5.40455092 19.52301631 15.99242647 23.8046875 27.578125 C28.08754735 43.15957704 27.38702049 58.03559938 19.60546875 72.36328125 C13.72494985 81.86258102 6.55623726 87.7900051 -3.8125 91.9375 C-14.73940611 93.85450107 -24.35924105 92.32806633 -33.5625 85.875 C-44.25232976 77.11284446 -50.86458283 66.42896879 -52.375 52.5625 C-53.54619444 37.56702827 -49.9692171 22.62880477 -40.5625 10.6875 C-30.13001273 -0.50967221 -14.64512604 -5.05964735 0 0 Z M-28.0625 8.1875 C-38.61674444 22.15834281 -36.49574411 47.60074463 -34.625 64.125 C-33.77106169 70.17473198 -32.51167621 75.30361164 -29.375 80.5625 C-28.818125 81.51125 -28.26125 82.46 -27.6875 83.4375 C-23.66141188 87.13714854 -19.19563097 88.41828729 -13.77734375 88.6953125 C-9.43846995 88.47280615 -6.77725103 87.80087098 -3 85.5625 C5.96941707 75.31173763 5.98058774 61.41623743 5.94067383 48.45751953 C5.93752475 46.32922518 5.96102258 44.20234147 5.98632812 42.07421875 C6.04123182 30.10529885 5.39228094 16.81009685 -1.375 6.5625 C-5.13641638 2.80108362 -8.2330535 2.28409488 -13.375 2.125 C-19.83110909 2.37239108 -23.39405711 3.62762555 -28.0625 8.1875 Z " fill="#000000" transform="translate(1688.375,1612.4375)"/>
<path d="M0 0 C22.77 0 45.54 0 69 0 C69 9.57 69 19.14 69 29 C64 28 64 28 62.92919922 26.40527344 C62.72311035 25.73012695 62.51702148 25.05498047 62.3046875 24.359375 C62.06363281 23.61816406 61.82257812 22.87695312 61.57421875 22.11328125 C61.22810547 20.94345703 61.22810547 20.94345703 60.875 19.75 C58.6881597 12.5370802 58.6881597 12.5370802 55 6 C52.15464275 4.57732138 49.63781448 4.78028131 46.4609375 4.68359375 C45.28837402 4.64548584 44.11581055 4.60737793 42.90771484 4.56811523 C41.41191895 4.52501221 39.91612305 4.48190918 38.375 4.4375 C31.259375 4.2209375 31.259375 4.2209375 24 4 C24 16.21 24 28.42 24 41 C36.40344124 41.46428059 36.40344124 41.46428059 41 36 C42.31771629 33.21585023 42.31771629 33.21585023 43.25 30.25 C43.58515625 29.26515625 43.9203125 28.2803125 44.265625 27.265625 C44.50796875 26.51796875 44.7503125 25.7703125 45 25 C46.65 25 48.3 25 50 25 C50 38.2 50 51.4 50 65 C48.35 65 46.7 65 45 65 C44.74605469 64.19175781 44.49210938 63.38351562 44.23046875 62.55078125 C43.88628906 61.48214844 43.54210937 60.41351562 43.1875 59.3125 C42.85105469 58.25675781 42.51460937 57.20101563 42.16796875 56.11328125 C40.21211805 50.63184773 40.21211805 50.63184773 36 47 C32.04 46.67 28.08 46.34 24 46 C24 60.52 24 75.04 24 90 C28.00125 89.896875 32.0025 89.79375 36.125 89.6875 C37.37555176 89.66260498 38.62610352 89.63770996 39.91455078 89.61206055 C47.98237794 89.51267057 47.98237794 89.51267057 55 86 C58.76055983 80.64534224 60.21898505 74.26849519 61.75 68 C62.08064453 66.69482422 62.08064453 66.69482422 62.41796875 65.36328125 C62.9535476 63.24425189 63.47795694 61.12240457 64 59 C65.65 58.67 67.3 58.34 69 58 C69 69.88 69 81.76 69 94 C46.23 94 23.46 94 0 94 C0 92.68 0 91.36 0 90 C3.3 90 6.6 90 10 90 C10 61.62 10 33.24 10 4 C6.7 4 3.4 4 0 4 C0 2.68 0 1.36 0 0 Z " fill="#000000" transform="translate(698,1611)"/>
<path d="M0 0 C22.77 0 45.54 0 69 0 C69 9.57 69 19.14 69 29 C67.35 28.67 65.7 28.34 64 28 C63.68546875 26.99839844 63.3709375 25.99679687 63.046875 24.96484375 C59.96381651 15.05485736 59.96381651 15.05485736 55 6 C52.15464275 4.57732138 49.63781448 4.78028131 46.4609375 4.68359375 C45.28837402 4.64548584 44.11581055 4.60737793 42.90771484 4.56811523 C41.41191895 4.52501221 39.91612305 4.48190918 38.375 4.4375 C31.259375 4.2209375 31.259375 4.2209375 24 4 C24 16.21 24 28.42 24 41 C35.76579466 41.11548882 35.76579466 41.11548882 40.0625 38.0625 C42.68040236 33.9245253 44.39620774 29.61426265 46 25 C47.32 25 48.64 25 50 25 C50 38.2 50 51.4 50 65 C48.35 64.67 46.7 64.34 45 64 C44.75765625 63.19175781 44.5153125 62.38351562 44.265625 61.55078125 C43.93046875 60.48214844 43.5953125 59.41351562 43.25 58.3125 C42.76273438 56.72888672 42.76273438 56.72888672 42.265625 55.11328125 C40.94800473 51.44875928 40.94800473 51.44875928 37 47 C32.71 46.67 28.42 46.34 24 46 C24 60.52 24 75.04 24 90 C28.00125 89.896875 32.0025 89.79375 36.125 89.6875 C37.37555176 89.66260498 38.62610352 89.63770996 39.91455078 89.61206055 C47.98237794 89.51267057 47.98237794 89.51267057 55 86 C58.76055983 80.64534224 60.21898505 74.26849519 61.75 68 C62.08064453 66.69482422 62.08064453 66.69482422 62.41796875 65.36328125 C62.9535476 63.24425189 63.47795694 61.12240457 64 59 C65.65 58.67 67.3 58.34 69 58 C69 69.88 69 81.76 69 94 C46.23 94 23.46 94 0 94 C0 92.68 0 91.36 0 90 C3.3 90 6.6 90 10 90 C10 61.62 10 33.24 10 4 C6.7 4 3.4 4 0 4 C0 2.68 0 1.36 0 0 Z " fill="#000000" transform="translate(1423,1611)"/>
<path d="M0 0 C10.89411951 6.31178973 16.8198783 16.28889314 20.3125 28.125 C23.91823859 44.30937837 21.71241463 61.94016693 13.12109375 76.23046875 C7.64332697 84.11053326 0.08260867 89.69502311 -9.5 91.5625 C-18.80003127 92.57373335 -27.11427486 90.20762626 -34.75 84.8125 C-45.35531995 76.13739165 -51.47334508 65.12549832 -53.5 51.5625 C-54.86347674 36.91053562 -52.38216057 23.63968235 -43.5 11.5625 C-32.79186293 -1.3124601 -15.78800676 -7.25123466 0 0 Z M-29.99609375 7.046875 C-40.33676188 20.91625778 -37.95328772 46.60976742 -35.9609375 62.640625 C-34.72565275 70.61447759 -32.94562724 78.0237477 -27.1875 83.9375 C-21.06690061 87.63832754 -15.34134077 88.2478668 -8.5 86.5625 C-2.81171186 83.87934522 -0.59634514 80.2641537 1.5 74.5625 C7.0611939 56.08068794 8.38889874 26.93153405 -0.359375 9.40234375 C-2.76673825 5.51923385 -5.16622173 3.00709276 -9.5 1.5625 C-17.42592945 0.78143102 -24.14374759 1.24036967 -29.99609375 7.046875 Z " fill="#000000" transform="translate(542.5,1613.4375)"/>
<path d="M0 0 C1.28841797 -0.00322266 2.57683594 -0.00644531 3.90429688 -0.00976562 C10.41927322 0.02719401 15.02836275 0.48131793 21.4375 2.3125 C21.4375 12.5425 21.4375 22.7725 21.4375 33.3125 C20.1175 33.3125 18.7975 33.3125 17.4375 33.3125 C17.16075439 32.63670898 16.88400879 31.96091797 16.59887695 31.26464844 C15.33051144 28.19100682 14.04055692 25.12688622 12.75 22.0625 C12.31494141 20.99902344 11.87988281 19.93554688 11.43164062 18.83984375 C10.77905273 17.30263672 10.77905273 17.30263672 10.11328125 15.734375 C9.72052002 14.79174805 9.32775879 13.84912109 8.9230957 12.87792969 C6.84421104 9.28796748 4.12645054 7.15697527 0.4375 5.3125 C-6.01623238 4.81011365 -12.12192504 4.36808315 -17.5625 8.3125 C-20.96374883 11.98952577 -22.40082317 14.59872563 -22.875 19.625 C-22.49355741 24.12602251 -21.38827718 25.81197794 -18.5625 29.3125 C-16.09698888 30.87026777 -13.87157323 32.10937165 -11.25 33.3125 C-10.54939453 33.65007324 -9.84878906 33.98764648 -9.12695312 34.33544922 C-4.35420885 36.59661708 0.50679597 38.552636 5.4375 40.4375 C12.56485871 43.23136453 18.75325495 46.09259293 22.9375 52.75 C25.89059969 59.64939435 25.71734596 68.2631513 23.484375 75.328125 C19.74601722 83.23072942 14.14971652 88.35529527 6.4375 92.3125 C-6.24346638 96.8260643 -20.13581634 94.39169249 -32.23901367 89.15429688 C-34.5625 87.3125 -34.5625 87.3125 -35.13012695 84.30981445 C-35.10394287 83.1105835 -35.07775879 81.91135254 -35.05078125 80.67578125 C-35.03466797 79.37705078 -35.01855469 78.07832031 -35.00195312 76.74023438 C-34.96017609 75.36847301 -34.91785135 73.99672823 -34.875 72.625 C-34.84991745 71.24157618 -34.82710418 69.85810923 -34.80664062 68.47460938 C-34.74760827 65.08615236 -34.66530082 61.69986615 -34.5625 58.3125 C-32.9125 58.3125 -31.2625 58.3125 -29.5625 58.3125 C-29.37139648 58.94752441 -29.18029297 59.58254883 -28.98339844 60.23681641 C-28.1033124 63.14025309 -27.2080626 66.03880147 -26.3125 68.9375 C-26.01214844 69.93652344 -25.71179687 70.93554688 -25.40234375 71.96484375 C-22.79180887 80.82316062 -22.79180887 80.82316062 -16.80859375 87.58984375 C-9.56238416 90.2347885 -2.17842756 89.75110011 4.875 86.625 C8.61168795 84.47334157 10.59698377 82.28801506 12.4375 78.3125 C13.70550251 73.37309153 14.06310559 68.85724464 12.125 64.0625 C6.90776856 55.3960026 -4.38872037 52.73968838 -13.2890625 49.27563477 C-27.75031908 43.57047274 -27.75031908 43.57047274 -32.0625 36.9375 C-35.29581152 29.12366383 -34.84391428 22.35294383 -32.5625 14.3125 C-29.17314271 7.77588237 -24.08605484 3.42094045 -17.14013672 0.92114258 C-11.52810348 -0.40399465 -5.73236601 -0.07190625 0 0 Z " fill="#000000" transform="translate(1573.5625,1610.6875)"/>
<path d="M0 0 C20.79 0 41.58 0 63 0 C63 9.57 63 19.14 63 29 C61.35 29 59.7 29 58 29 C57.75765625 27.77023437 57.5153125 26.54046875 57.265625 25.2734375 C56.9277722 23.64048232 56.58919192 22.00767754 56.25 20.375 C56.09273437 19.56675781 55.93546875 18.75851562 55.7734375 17.92578125 C54.71620525 12.92425945 53.71952711 8.70783049 50 5 C46.7 4.67 43.4 4.34 40 4 C40 32.38 40 60.76 40 90 C43.3 90 46.6 90 50 90 C50 91.32 50 92.64 50 94 C37.79 94 25.58 94 13 94 C13 92.68 13 91.36 13 90 C16.3 90 19.6 90 23 90 C23 61.62 23 33.24 23 4 C13.60450161 3.87565258 13.60450161 3.87565258 10.515625 7.4765625 C8.68578551 11.73046772 7.63199687 15.84211446 6.75 20.375 C6.57726562 21.20644531 6.40453125 22.03789063 6.2265625 22.89453125 C5.80599003 24.9272982 5.40135221 26.96335101 5 29 C3.35 29 1.7 29 0 29 C0 19.43 0 9.86 0 0 Z " fill="#000000" transform="translate(598,1611)"/>
<path d="M0 0 C1.86108398 -0.00483398 1.86108398 -0.00483398 3.75976562 -0.00976562 C10.15846447 0.02789392 14.62860504 0.50995858 20.9375 2.3125 C20.9375 12.5425 20.9375 22.7725 20.9375 33.3125 C19.6175 33.3125 18.2975 33.3125 16.9375 33.3125 C16.66075439 32.63670898 16.38400879 31.96091797 16.09887695 31.26464844 C14.83051144 28.19100682 13.54055692 25.12688622 12.25 22.0625 C11.81494141 20.99902344 11.37988281 19.93554688 10.93164062 18.83984375 C10.27905273 17.30263672 10.27905273 17.30263672 9.61328125 15.734375 C9.22052002 14.79174805 8.82775879 13.84912109 8.4230957 12.87792969 C6.34421104 9.28796748 3.62645054 7.15697527 -0.0625 5.3125 C-6.72994213 4.79347756 -12.25212144 4.64278722 -18.0625 8.3125 C-18.7225 8.3125 -19.3825 8.3125 -20.0625 8.3125 C-22.19315065 13.56810494 -23.55027013 17.5568125 -23.0625 23.3125 C-20.31196936 28.5529125 -17.05972199 30.85867634 -11.8125 33.25 C-11.11519775 33.58427002 -10.41789551 33.91854004 -9.69946289 34.26293945 C-6.06555981 35.98648963 -2.39354162 37.61377482 1.30078125 39.203125 C2.00493164 39.50613525 2.70908203 39.80914551 3.43457031 40.12133789 C4.76683064 40.6880997 6.10320685 41.24532735 7.44433594 41.79077148 C14.01874701 44.54211279 20.31658284 47.96209018 23.2734375 54.75 C25.24077617 62.34161276 25.18632198 70.64162393 21.875 77.8125 C17.24058197 85.62740099 11.59640023 90.46699568 2.9375 93.3125 C-9.12069336 96.22917339 -21.49474473 94.0200099 -32.73901367 89.15429688 C-35.0625 87.3125 -35.0625 87.3125 -35.63012695 84.30981445 C-35.60394287 83.1105835 -35.57775879 81.91135254 -35.55078125 80.67578125 C-35.53466797 79.37705078 -35.51855469 78.07832031 -35.50195312 76.74023438 C-35.46017609 75.36847301 -35.41785135 73.99672823 -35.375 72.625 C-35.34991745 71.24157618 -35.32710418 69.85810923 -35.30664062 68.47460938 C-35.24760827 65.08615236 -35.16530082 61.69986615 -35.0625 58.3125 C-33.4125 58.3125 -31.7625 58.3125 -30.0625 58.3125 C-29.90168945 58.84617187 -29.74087891 59.37984375 -29.57519531 59.9296875 C-28.82833868 62.39292935 -28.07049403 64.8526636 -27.3125 67.3125 C-27.05984375 68.15167969 -26.8071875 68.99085937 -26.546875 69.85546875 C-23.84792279 79.27233393 -23.84792279 79.27233393 -18.16796875 86.96875 C-10.77411269 90.22144431 -4.96553934 89.71816698 2.63671875 87.21484375 C7.29534706 85.3877756 9.79294758 83.14879742 11.8125 78.625 C13.27971049 74.1227598 13.36104817 69.83984993 11.9375 65.3125 C9.23187803 60.34584184 6.71078737 58.20581171 1.625 55.8125 C1.01760986 55.52189697 0.41021973 55.23129395 -0.21557617 54.93188477 C-4.69002971 52.83053355 -9.26455275 51.02697973 -13.875 49.25 C-21.00360843 46.48161724 -28.27886103 43.61271126 -32.5625 36.9375 C-35.68154337 29.39981186 -35.44987769 23.01957796 -33.0625 15.3125 C-29.49016938 8.43245585 -23.90552847 3.50565768 -16.59130859 0.90356445 C-11.1496321 -0.36833155 -5.55628488 -0.07238516 0 0 Z " fill="#000000" transform="translate(1993.0625,1610.6875)"/>
<path d="M0 0 C1.16337891 -0.020625 2.32675781 -0.04125 3.52539062 -0.0625 C4.65783203 -0.06765625 5.79027344 -0.0728125 6.95703125 -0.078125 C7.98417236 -0.0874707 9.01131348 -0.09681641 10.06958008 -0.10644531 C13.1875 0.25 13.1875 0.25 20.1875 3.25 C20.1875 13.15 20.1875 23.05 20.1875 33.25 C17.44905454 30.51155454 16.7256408 29.6072114 15.5390625 26.1953125 C15.25546875 25.41542969 14.971875 24.63554688 14.6796875 23.83203125 C14.10487762 22.20340325 13.53450856 20.5732006 12.96875 18.94140625 C10.81767683 13.05986834 8.49669493 8.99168154 2.73828125 5.9609375 C-3.45001321 4.23617549 -10.40297688 4.2140515 -16.3125 6.875 C-19.96749449 9.06038212 -22.03018357 11.31405122 -23.8125 15.25 C-24.5536049 19.61943097 -24.43148518 23.01202965 -22.4375 27 C-16.0369728 32.48616617 -8.07139103 34.93327139 -0.25 37.75 C10.18327288 41.52862379 18.58820914 44.86172312 25.1875 54.25 C27.5744189 61.41075671 27.37558261 70.79188476 24.25 77.6875 C19.88152493 85.1126701 13.3542844 90.58008972 5.1875 93.25 C-8.23647138 96.4311428 -20.2533267 92.95968999 -32.8125 88.25 C-32.8125 78.35 -32.8125 68.45 -32.8125 58.25 C-31.1625 58.25 -29.5125 58.25 -27.8125 58.25 C-27.65692627 58.81396484 -27.50135254 59.37792969 -27.34106445 59.95898438 C-26.61549486 62.55985181 -25.8704051 65.15475096 -25.125 67.75 C-24.75858398 69.0803125 -24.75858398 69.0803125 -24.38476562 70.4375 C-22.31335002 77.5694626 -20.0509106 84.33094187 -13.4375 88.25 C-6.09080253 90.27667516 0.2515508 89.17039966 7.1875 86.25 C11.75843108 82.84611515 14.04661199 78.77108306 15.1875 73.25 C15.33642628 68.20512237 14.05380461 64.38065606 11.1875 60.25 C5.4680494 55.360184 -1.95173833 52.9307904 -8.875 50.25 C-27.47184526 43.01647317 -27.47184526 43.01647317 -31.8125 33.25 C-33.88272111 26.91755895 -33.03286011 19.49554551 -30.72265625 13.3515625 C-27.09478981 6.65860115 -22.31791313 2.92919278 -15.04272461 0.71020508 C-10.12745111 -0.30405771 -4.99922141 0.02193844 0 0 Z " fill="#000000" transform="translate(946.8125,1610.75)"/>
<path d="M0 0 C12.21 0 24.42 0 37 0 C37 1.32 37 2.64 37 4 C32.71 4 28.42 4 24 4 C24 32.38 24 60.76 24 90 C43.82343579 90.84430396 43.82343579 90.84430396 51 86 C54.78590149 80.92032113 56.20207704 74.36404625 57.6875 68.3125 C57.89955078 67.48427734 58.11160156 66.65605469 58.33007812 65.80273438 C59.32408554 61.88628245 60.26337896 57.97451572 61 54 C62.65 54 64.3 54 66 54 C66 67.2 66 80.4 66 94 C44.22 94 22.44 94 0 94 C0 92.68 0 91.36 0 90 C3.3 90 6.6 90 10 90 C10 61.62 10 33.24 10 4 C6.7 4 3.4 4 0 4 C0 2.68 0 1.36 0 0 Z " fill="#000000" transform="translate(811,1611)"/>
<path d="M0 0 C20.79 0 41.58 0 63 0 C63 9.57 63 19.14 63 29 C62.34 29 61.68 29 61 29 C60.61328125 27.77023437 60.2265625 26.54046875 59.828125 25.2734375 C59.30257153 23.6404678 58.77650249 22.00766397 58.25 20.375 C57.99734375 19.56675781 57.7446875 18.75851562 57.484375 17.92578125 C55.27109908 10.87362192 55.27109908 10.87362192 51 5 C45.555 4.505 45.555 4.505 40 4 C40 32.38 40 60.76 40 90 C43.3 90 46.6 90 50 90 C50 91.32 50 92.64 50 94 C38.78 94 27.56 94 16 94 C16 92.68 16 91.36 16 90 C19.3 90 22.6 90 26 90 C26 61.62 26 33.24 26 4 C20.06 4.495 20.06 4.495 14 5 C11.45716687 8.39044418 10.50137625 9.92856234 9.39453125 13.765625 C9.13349609 14.65507813 8.87246094 15.54453125 8.60351562 16.4609375 C8.34248047 17.38132812 8.08144531 18.30171875 7.8125 19.25 C7.40354492 20.65378906 7.40354492 20.65378906 6.98632812 22.0859375 C6.31668739 24.3885618 5.65488053 26.69314283 5 29 C3.35 29 1.7 29 0 29 C0 19.43 0 9.86 0 0 Z " fill="#000000" transform="translate(1855,1611)"/>
<path d="M0 0 C30.03 0 60.06 0 91 0 C91 6.6 91 13.2 91 20 C60.97 20 30.94 20 0 20 C0 13.4 0 6.8 0 0 Z " fill="#000000" transform="translate(1736,1272)"/>
<path d="M0 0 C3.63 0 7.26 0 11 0 C8.27504813 13.37148173 5.24791572 26.65507883 2.0534668 39.921875 C1.30013861 43.05135171 0.55116767 46.18184939 -0.19726562 49.3125 C-0.67683447 51.31255969 -1.15664284 53.31256196 -1.63671875 55.3125 C-1.85962082 56.24360596 -2.08252289 57.17471191 -2.31217957 58.1340332 C-2.51942154 58.99343506 -2.72666351 59.85283691 -2.94018555 60.73828125 C-3.12131393 61.49149658 -3.30244232 62.24471191 -3.48905945 63.02075195 C-3.92260114 64.70017735 -4.45150861 66.35452583 -5 68 C-3.02 68 -1.04 68 1 68 C1 69.32 1 70.64 1 72 C-4.61 72 -10.22 72 -16 72 C-16.495 71.01 -16.495 71.01 -17 70 C-18.2065625 70.495 -18.2065625 70.495 -19.4375 71 C-24.7431909 72.48931674 -29.65848834 72.98863826 -34.8125 70.8125 C-39.40053143 67.01098824 -41.66871991 63.54239239 -42.74609375 57.71875 C-43.89579207 45.4081341 -41.39788271 34.43092429 -33.63671875 24.75390625 C-28.5497165 19.3026795 -22.98094806 16.35544179 -15.5 15.6875 C-12 16 -12 16 -6 19 C-4.02 12.73 -2.04 6.46 0 0 Z M-18.5625 20.875 C-24.80566712 26.31776108 -26.35981557 35.15031769 -28.25 42.875 C-28.518125 43.89980469 -28.78625 44.92460938 -29.0625 45.98046875 C-31.51199828 55.41039402 -31.51199828 55.41039402 -31 65 C-29.23206711 66.8576002 -29.23206711 66.8576002 -27 68 C-23.55565373 67.92671604 -21.43631717 67.24476329 -18.4375 65.5625 C-10.9498601 57.69087857 -9.05922236 47.38149598 -8.1875 36.9375 C-8.12208008 36.26444824 -8.05666016 35.59139648 -7.98925781 34.89794922 C-7.63965796 29.68329734 -8.59049935 26.50718356 -11 22 C-13.99295758 19.95218692 -15.12792873 19.70221957 -18.5625 20.875 Z " fill="#000000" transform="translate(1230,1633)"/>
<path d="M0 0 C5.61 0 11.22 0 17 0 C17 1.32 17 2.64 17 4 C17.7425 3.525625 18.485 3.05125 19.25 2.5625 C24.00567272 -0.13958677 28.55171957 -0.58673789 34 0 C39.38764453 1.9954239 39.38764453 1.9954239 41.10766602 4.81713867 C45.28832053 15.04401474 41.51863231 25.18853109 38.5625 35.1875 C38.12260789 36.72671703 37.68444296 38.26642876 37.24804688 39.80664062 C36.18518115 43.54375901 35.0992037 47.2734158 34 51 C35.65 51.33 37.3 51.66 39 52 C39 53.32 39 54.64 39 56 C31.41 56 23.82 56 16 56 C16 54.68 16 53.36 16 52 C18.97 51.505 18.97 51.505 22 51 C23.29246675 46.00391327 24.57382041 41.0051529 25.84521484 36.00366211 C26.27873661 34.30465119 26.71521959 32.60639287 27.15478516 30.90893555 C27.78819141 28.46077011 28.4106954 26.01004407 29.03125 23.55859375 C29.22811401 22.80726669 29.42497803 22.05593964 29.62780762 21.28184509 C31.67891075 13.50511471 31.67891075 13.50511471 29.875 6 C27.92218137 4.76960784 27.92218137 4.76960784 25.0625 5 C21.0991868 6.29414309 20.17765002 7.44317164 18 11 C14.02773458 19.15311073 12.40685704 27.78352303 10.75 36.625 C10.48007435 38.0249149 10.20924702 39.42465626 9.9375 40.82421875 C9.28127965 44.21421229 8.63722207 47.60637747 8 51 C9.98 51.33 11.96 51.66 14 52 C12.80541992 53.97558594 12.80541992 53.97558594 11 56 C8.73168945 56.45410156 8.73168945 56.45410156 6.11328125 56.390625 C5.17548828 56.37773438 4.23769531 56.36484375 3.27148438 56.3515625 C2.29501953 56.31804687 1.31855469 56.28453125 0.3125 56.25 C-0.67556641 56.23195313 -1.66363281 56.21390625 -2.68164062 56.1953125 C-5.12206842 56.14815447 -7.56054769 56.08236042 -10 56 C-10 54.68 -10 53.36 -10 52 C-7.69 52 -5.38 52 -3 52 C-2.9071875 50.71996094 -2.814375 49.43992187 -2.71875 48.12109375 C-1.98652728 40.80789038 -0.457835 33.65016771 1.01123047 26.45678711 C1.50367501 24.04449757 1.9887308 21.63080843 2.47265625 19.21679688 C2.78342986 17.67699764 3.09461283 16.13728095 3.40625 14.59765625 C3.55106812 13.87892838 3.69588623 13.1602005 3.84509277 12.41969299 C4.43414632 9.54324498 5.07036651 6.78890046 6 4 C4.02 4 2.04 4 0 4 C0 2.68 0 1.36 0 0 Z " fill="#000000" transform="translate(1124,1649)"/>
<path d="M0 0 C2.18426929 2.2888284 2.96903805 3.48758906 3.16210938 6.68286133 C3.00452148 8.21076294 3.00452148 8.21076294 2.84375 9.76953125 C2.72515625 10.92146973 2.6065625 12.0734082 2.484375 13.26025391 C1.72911069 19.09147301 0.83957796 24.89401739 -0.15673828 30.68823242 C-0.50603913 32.72267383 -0.84538119 34.75861051 -1.18359375 36.79492188 C-2.86267597 46.72535195 -2.86267597 46.72535195 -4 49 C-3.01 49 -2.02 49 -1 49 C-1 50.32 -1 51.64 -1 53 C-5.62 53 -10.24 53 -15 53 C-15.33 51.02 -15.66 49.04 -16 47 C-17.0828125 47.928125 -17.0828125 47.928125 -18.1875 48.875 C-23.57436828 52.94507825 -28.36513014 53.77231289 -35 53 C-38.375 51.6875 -38.375 51.6875 -41 50 C-41.61875 49.608125 -42.2375 49.21625 -42.875 48.8125 C-45.14549329 45.15448303 -44.41824232 40.89603187 -43.53125 36.875 C-41.96980792 31.96761061 -39.62326515 28.48286462 -35 26 C-26.4407318 22.74983115 -16.98963357 21.59038687 -8 20 C-8.01160156 18.95199219 -8.02320313 17.90398437 -8.03515625 16.82421875 C-8.04453655 15.44531428 -8.0536365 14.06640789 -8.0625 12.6875 C-8.07087891 11.99720703 -8.07925781 11.30691406 -8.08789062 10.59570312 C-8.10307906 7.4516975 -8.00193327 5.00579981 -7 2 C-12.31949029 1.78722039 -17.1006606 1.61007834 -22 4 C-23.05397987 5.82560914 -23.05397987 5.82560914 -24 8 C-24.86735992 9.58753149 -25.74251924 11.1708239 -26.625 12.75 C-27.07101562 13.54921875 -27.51703125 14.3484375 -27.9765625 15.171875 C-28.31429688 15.77515625 -28.65203125 16.3784375 -29 17 C-30.65 17 -32.3 17 -34 17 C-33.6315466 14.2021506 -33.23193528 11.41525393 -32.8125 8.625 C-32.71130859 7.8309375 -32.61011719 7.036875 -32.50585938 6.21875 C-32.16266952 4.02975524 -31.80400373 2.06571529 -31 0 C-28.55078125 -1.5 -28.55078125 -1.5 -26 -2 C-25.13375 -2.20625 -24.2675 -2.4125 -23.375 -2.625 C-15.45818052 -3.50464661 -7.18992729 -4.01437607 0 0 Z M-10 24 C-12.40013691 24.3985133 -14.79337044 24.81794313 -17.1875 25.25 C-18.19780273 25.41435547 -18.19780273 25.41435547 -19.22851562 25.58203125 C-23.82883713 26.43477377 -26.71870098 27.65331277 -30 31 C-31.42452877 33.363599 -31.42452877 33.363599 -32.3125 35.9375 C-32.63863281 36.77152344 -32.96476562 37.60554688 -33.30078125 38.46484375 C-34.03968098 41.14387127 -34.28619237 43.23660153 -34 46 C-31.39459628 48.29888564 -29.63939371 48.943165 -26.1875 49.25 C-17.4952182 45.84126204 -13.55141987 36.75704933 -9.93359375 28.72265625 C-9.62550781 27.82417969 -9.31742188 26.92570312 -9 26 C-9.33 25.34 -9.66 24.68 -10 24 Z " fill="#000000" transform="translate(1090,1652)"/>
</svg>
