<?xml version="1.0" encoding="UTF-8" standalone="no"?>
<svg
   version="1.1"
   width="438.00009pt"
   height="320pt"
   id="svg3"
   viewBox="0 0 438.00009 320"
   sodipodi:docname="The_Leela_Palaces_Hotels_and_Resorts_Logo.cdr"
   xmlns:inkscape="http://www.inkscape.org/namespaces/inkscape"
   xmlns:sodipodi="http://sodipodi.sourceforge.net/DTD/sodipodi-0.dtd"
   xmlns="http://www.w3.org/2000/svg"
   xmlns:svg="http://www.w3.org/2000/svg">
  <defs
     id="defs3" />
  <sodipodi:namedview
     id="namedview3"
     pagecolor="#ffffff"
     bordercolor="#000000"
     borderopacity="0.25"
     inkscape:showpageshadow="2"
     inkscape:pageopacity="0.0"
     inkscape:pagecheckerboard="0"
     inkscape:deskcolor="#d1d1d1"
     inkscape:document-units="pt" />
  <path
     d="m 396.77,230.63 c 3.82,-0.0997 7.6499,-0.11 11.4701,-0.0102 -1.7401,-4.9799 -3.7502,-9.8594 -5.7001,-14.7597 -2.0101,4.8799 -3.96,9.8002 -5.77,14.7699 z m 6.41,-21.31 c 2.6,-0.5 5.2801,-0.25 7.8999,0.0201 4.1502,11.5098 9.1202,22.7098 13.53,34.1201 1.9401,0.5499 3.86,1.1795 5.7702,1.8499 -3.7102,0.9796 -7.56,0.47 -11.34,0.5797 -4.06,-0.0899 -8.2,0.4204 -12.1901,-0.5698 2.1501,-0.79 4.4099,-1.1398 6.66,-1.4899 -1.4499,-3.78 -2.91,-7.5501 -4.35,-11.3301 -4.4,-0.03 -8.7999,-0.0102 -13.1899,-0.0498 -1.4301,3.6697 -2.8202,7.3499 -4.3101,10.9896 1.6501,0.6001 3.5201,0.9204 4.7801,2.2802 -4.0201,0.28 -8.07,0.2999 -12.0801,-0.0899 1.5,-1.1602 3.3,-1.7699 5.07,-2.3697 4.5601,-11.3205 9.0201,-22.7002 13.75,-33.9404 z m -59.3699,0.2702 c 7.55,-0.3501 15.1299,-0.2501 22.6899,-0.0502 -1.73,1.44 -4.07,1.47 -6.16,1.9499 0.04,10.8102 -0.0601,21.6301 0.0301,32.4499 4.68,-0.2596 9.54,0.5902 14.11,-0.6001 3.3199,-2.45 5.15,-6.3294 7.8899,-9.3498 -0.2401,4 -0.83,7.96 -1.4499,11.9101 -12.3902,-0.22 -24.8201,0.4102 -37.1801,-0.3198 1.8701,-1.1902 4.1199,-1.3699 6.2499,-1.7801 0.0601,-10.8199 0.1102,-21.6502 -0.04,-32.47 -2.0699,-0.4301 -4.4399,-0.2999 -6.1398,-1.7399 z M 294.68,209.4901 c 11.6501,-0.1902 23.2999,-0.0799 34.95,-0.0601 0.4,3.4999 0.9,6.99 1.3099,10.4899 -3.1198,-2.6799 -5.2098,-6.7297 -9.0898,-8.3798 -3.7401,-0.4501 -7.5101,-0.1701 -11.2502,-0.1902 0.0601,5.1602 0.0301,10.3105 0.0301,15.4701 5.2299,0.4402 8.75,-3.6199 10.8799,-7.8401 -0.5,3.0399 -1.3499,6.0503 -3.17,8.5901 1.9902,2.3001 2.5501,5.3402 3.3401,8.1902 -2.3199,-4.0703 -5.91,-8.0904 -11.05,-7.6703 0,5.2705 0.0501,10.5301 -0.04,15.8 4.79,-0.1298 9.6701,0.4799 14.4,-0.3597 3.74,-1.9601 5.0601,-6.5602 8.57,-8.85 -0.3901,3.7596 -1.01,7.4897 -1.5599,11.23 -12.7202,-0.2302 -25.4702,0.4096 -38.16,-0.3501 2.0398,-1.0202 4.2999,-1.3997 6.5199,-1.8499 -0.07,-10.7501 -0.07,-21.4999 0.01,-32.2503 -1.91,-0.54 -4.3801,-0.1899 -5.69,-1.9698 z m -50.11,0.0499 c 11.7399,-0.2999 23.5,-0.11 35.2499,-0.1001 0.5902,3.4702 1.0602,6.9701 1.23,10.4902 -2.6598,-2.66 -4.7498,-6.0001 -7.9798,-7.9999 -3.8801,-1.2201 -8.0402,-0.4601 -12.0402,-0.6001 -0.1499,5.1499 -0.0499,10.2897 -0.14,15.4301 5.2401,0.57 8.67,-3.5904 10.9202,-7.6901 -0.44,3.0197 -1.84,5.7696 -2.6501,8.6697 1.25,2.7102 2.1999,5.5301 2.7399,8.4705 -1.8898,-4.5 -5.7399,-8.5102 -11.01,-8.0603 0.0201,5.2398 0.1102,10.5001 -0.0199,15.7501 4.69,-0.1102 9.4201,0.36 14.0899,-0.2398 4.0402,-1.9803 5.8601,-6.5602 8.8002,-9.7704 -0.15,4.03 -0.83,8.0101 -1.5001,11.98 -11.4299,0.0499 -22.8699,-0.01 -34.3001,0.0499 -1.26,0.1199 -2.41,-0.1596 -3.4599,-0.8396 2.0199,-0.5403 4.0801,-0.9198 6.12,-1.3405 -0.01,-10.7595 0.0399,-21.5198 -0.0199,-32.2798 -2.0602,-0.47 -4.4101,-0.3799 -6.0301,-1.9199 z m -45.8099,0.0901 c 7.49,-0.3999 15.0199,-0.3101 22.5199,-0.0601 -1.63,1.5001 -3.9901,1.3901 -6.0299,1.8499 0.03,10.8403 -0.0502,21.67 0.03,32.5001 4.6199,-0.2398 9.3898,0.5998 13.9099,-0.5097 3.5099,-2.2904 5.22,-6.4205 8.1301,-9.3603 -0.2302,3.9501 -0.94,7.8602 -1.3901,11.8001 -12.3999,-0.0198 -24.81,0.2999 -37.19,-0.1602 1.66,-1.5295 4.0099,-1.4198 6.1101,-1.7002 0.2199,-10.8499 0.0499,-21.6998 0.1,-32.5497 -2.1002,-0.4501 -4.4402,-0.43 -6.19,-1.8099 z m -73.9902,-0.03 c 11.8001,-0.4201 23.62,-0.1602 35.4302,-0.1401 0.37,3.5099 1.2598,6.99 1.1098,10.5401 -2.4398,-2.6699 -4.5499,-5.7002 -7.4599,-7.8899 -4.0099,-1.4602 -8.39,-0.6302 -12.5601,-0.7702 -0.0898,5.1301 0.0301,10.2498 -0.0598,15.3799 5.12,0.6698 8.32,-3.4699 10.8998,-7.16 -0.6199,2.7799 -1.4598,5.5704 -3.1399,7.9004 2.0401,2.4398 2.5299,5.65 3.0101,8.6794 -1.19,-2.4596 -2.5501,-4.8999 -4.7702,-6.5698 0.0502,-0.3898 0.1701,-1.1801 0.22,-1.5699 l -0.4198,1.2898 c -1.87,-0.5899 -3.7902,-1.0001 -5.73,-1.2095 -0.1102,5.2395 0.0599,10.4896 -0.0901,15.73 5.01,-0.0802 10.23,0.7999 15.1101,-0.5403 3.09,-2.6303 5.04,-6.3 7.88,-9.1803 -0.3302,3.9303 -1.0001,7.8205 -1.5202,11.7303 -12.6499,-0.01 -25.3298,0.36 -37.9599,-0.1802 1.8301,-1.27 4.0799,-1.4199 6.2,-1.8499 0.0399,-10.8 0.1099,-21.6097 -0.0301,-32.4099 -2.0798,-0.4301 -4.3999,-0.3901 -6.12,-1.7799 z m -63.1001,-0.1202 c 5.1001,-0.2098 10.2002,-0.01 15.3,-0.0998 2.4001,0.0499 4.9201,-0.3002 7.1904,0.6599 -2.1203,0.5899 -4.2902,1.0001 -6.4602,1.37 0.1103,4.8402 0.0698,9.6797 0,14.51 6.92,0.18 13.8501,0.0102 20.7698,0.0601 -0.0301,-4.8603 0.0604,-9.7299 -0.08,-14.5899 -1.87,-0.5602 -4.4501,-0.0202 -5.6398,-1.9401 7.0898,-0.0501 14.1801,-0.1601 21.2599,0.04 0.1202,0.1998 0.36,0.5998 0.4802,0.7999 -1.9001,0.47 -3.8302,0.8201 -5.7501,1.1801 0.0201,10.8099 0.0499,21.6198 -0.01,32.43 2.3899,0.3802 4.7899,0.7699 7.19,1.1999 -3.8602,1.1897 -7.91,0.7399 -11.87,0.7801 -4.04,-0.0601 -8.1,0.2399 -12.1,-0.3999 2.05,-0.9301 4.28,-1.2904 6.4698,-1.7 0.07,-5.3002 0.1103,-10.6103 -0.0301,-15.9103 -6.8898,0.0403 -13.7797,0.0905 -20.6597,-0.0198 0.0598,5.2999 0,10.5999 0.0198,15.8998 2.1898,0.4105 4.4,0.8201 6.4301,1.7802 -7.66,0.57 -15.4601,0.6397 -23.11,-0.0499 2.0101,-1.0199 4.2602,-1.2603 6.4401,-1.62 0.0201,-10.7904 -0.0601,-21.5904 0.0501,-32.3802 -2.0001,-0.54 -4.4501,-0.28 -5.8904,-2.0001 z m -49.1896,-0.01 c 13.2197,-0.1001 26.4595,-0.1599 39.68,0.03 0.5397,3.6301 1.37,7.2 1.9397,10.8301 -2.9698,-2.56 -4.7897,-6.27 -8.0396,-8.4802 -2.6904,-0.9499 -5.6602,-0.4099 -8.4705,-0.5198 0.0301,10.8096 0.0499,21.6096 -0.0198,32.4198 2.2498,0.4604 4.6998,0.5304 6.6699,1.87 -7.8199,0.4604 -15.7,0.4 -23.5199,0.0499 1.8901,-1.48 4.3801,-1.3799 6.6197,-1.8397 -0.0096,-10.83 -0.0796,-21.6499 0.0403,-32.4802 -2.95,0.0301 -5.9998,-0.4198 -8.8699,0.4802 -3.38,1.9698 -4.93,5.8799 -7.9702,8.2599 0.43,-3.5799 1.3,-7.0798 1.9403,-10.62 z"
     style="fill:#1f1a18;fill-rule:evenodd"
     id="path1" />
  <path
     d="m 146.68,128.6899 c -9.14,8.3101 -9.4099,24.3803 -0.2599,32.8 8.7398,7.9302 21.45,9.0301 32.6999,8.0002 15.0199,-1.3201 28.55,-8.7301 40.8699,-16.9401 -11.2099,-3.9101 -23.1199,-6.2799 -35.03,-5.47 -7.99,0.65 -15.7498,2.9401 -23.22,5.7801 1.1602,-3.9101 2.7601,-7.6802 4.0201,-11.55 6.08,-0.4301 12.1799,-0.2801 18.26,0.0601 6.04,-3.4402 10.29,-9.2002 12.9999,-15.5101 -8.49,-2.5001 -17.1499,-4.79 -26.0498,-4.97 -8.6601,-0.4201 -17.78,1.84 -24.2901,7.7998 z m 44.3999,-81.3498 c -5.8198,1.7 -10.9899,5.6798 -13.9399,10.9999 -4.6701,8.6 -3.4501,20.02 3.1201,27.3299 C 186.53,92.68 195.71,96.3401 204.8101,97.94 207.3,86.3199 209.43,74.6301 212.31,63.0999 213.42,58.23 215.7501,53.76 217.02,48.94 208.7899,45.9001 199.57,44.69 191.0799,47.3401 Z M 243.2601,34.25 c -6.34,5.77 -9.3002,14.1401 -11.85,22.0901 3.2899,3.8999 6.3,8.1298 8.17,12.9099 0.54,1.3101 -0.54,2.5999 -0.7401,3.88 -1.94,-5.1701 -4.5799,-10.1199 -8.32,-14.21 -3.0299,13.1901 -5.9099,26.42 -8.4299,39.7099 15.41,-1.7699 31.18,-8.1799 40.61,-20.9899 6.3499,-8.39 9.1998,-19.2 8.4399,-29.6499 C 270.78,42.57 268.68,37.03 264.4899,33.43 258.4901,28.42 248.9101,28.9699 243.2601,34.25 Z M 218.2299,47.11 C 223.68,37.2301 232.61,28.85 244.03,26.8 c -12.46,5.6999 -19.0401,18.69 -22.8501,31.18 -4.9198,16.95 -7.1399,34.5401 -11.7499,51.5701 -3.4699,12.7899 -9.7999,26.3999 -22.6701,32.01 12.0201,2.0199 23.8502,5.0799 35.3702,9.11 5.5298,-3.5601 10.5698,-7.8101 15.87,-11.7 -9.72,-2.27 -19.2101,-5.4301 -28.6001,-8.79 -1.1501,-1.11 -2.1201,0.04 -3.1301,0.43 0.0502,-0.5301 0.15,-1.58 0.2002,-2.1101 -2.0501,1.4301 -3.97,2.9999 -5.9301,4.54 9.65,-11.99 12.6099,-27.4898 15.6401,-42.1801 3.24,-14.44 5.0199,-29.4698 11.6,-42.9199 3.3599,-7.1099 7.9599,-14.22 15.0899,-18 7.8299,-4.1001 18.62,-3.2899 24.8301,3.3499 3.7599,3.9402 5.36,9.4 5.7399,14.73 0.7699,12.4302 -3.2599,25.3103 -11.8001,34.5002 -10.19,11.19 -25.2,17.0799 -40.07,18.2698 -2.5599,9.7702 -6.98,19.1801 -14.18,26.4101 10.7802,3.97 21.6802,7.67 32.9202,10.1299 9.07,-6.5999 18.53,-13.5 29.77,-15.6999 9.5799,-1.73 20.73,0.36 27.18,8.1901 5.8198,6.6098 6.26,16.24 3.9798,24.37 -1.83,7.74 -7.7799,14.3399 -15.33,16.8599 -7.5099,2.7301 -15.77,2.0002 -23.4099,0.2299 -11.8599,-2.6699 -22.61,-8.5198 -33.7199,-13.2199 7.17,1.4201 13.7699,4.79 20.8698,6.5001 10.4602,2.6399 21.5601,4.2199 32.22,1.8799 5.6302,-1.3501 11.02,-4.3401 14.6101,-8.9501 5.94,-8.2199 4.8299,-20.6699 -2.4701,-27.7098 -5.2699,-4.9901 -12.8299,-7.0302 -19.9599,-6.37 -6.7499,0.4598 -13.07,3.2199 -18.87,6.55 -4.1601,2.2998 -7.74,5.5199 -12.02,7.6099 7.49,1.9001 15.23,2.3301 22.9201,2.8199 -0.4,0.7002 -0.8201,1.4001 -1.2501,2.09 -8.03,-0.2798 -15.98,-1.4099 -23.87,-2.8899 -5.28,3.96 -10.47,8.0501 -15.8,11.95 16.8599,5.11 34.4801,9.7699 52.24,7.6502 8.0699,-1.1801 17.24,-4.2001 21.1399,-12.0102 -1.58,10.6801 -12.42,17.0799 -22.4498,17.8101 -18.58,1.55 -36.2101,-5.54 -53.3602,-11.62 -13.5598,9.46 -28.8598,17.6899 -45.7098,18.54 -11.3601,0.6698 -24.1702,-0.83 -32.6101,-9.26 -9.7299,-9.2602 -9.0799,-26.4702 0.5899,-35.5402 7.1402,-6.66 17.36,-9.0198 26.9002,-8.4299 8.9099,0.32 17.5298,2.73 26.0198,5.25 2.7902,-7.77 4.7101,-15.7901 6.41,-23.8601 -9.4898,-1.6098 -19.0499,-5.4399 -25.6499,-12.67 -7.4301,-8.24 -8.74,-21.2697 -3.16,-30.8398 3.4001,-6.08 9.68,-10.1001 16.31,-11.8301 8.75,-2.12 18.1301,-1.08 26.3999,2.38 z"
     style="fill:#1f1a18;fill-rule:evenodd"
     id="path2" />
  <path
     d="m 28.398,293.6008 v 7.1414 h -2.5243 v -18.5831 c 1.9061,-0.0822 3.0568,-0.1256 3.4517,-0.1256 5.3581,0 8.037,1.8059 8.037,5.4221 0,4.1791 -2.3656,6.2708 -7.101,6.2708 -0.2835,0 -0.906,-0.0434 -1.8634,-0.1256 z m 0,-9.155 v 6.8683 c 1.0648,0.0822 1.6271,0.1256 1.683,0.1256 3.1213,0 4.6798,-1.2385 4.6798,-3.7199 0,-2.2652 -1.6659,-3.3999 -4.9931,-3.3999 -0.335,0 -0.7899,0.0434 -1.3697,0.1259 z m 23.194,16.2964 -1.275,-3.9238 h -6.8908 l -1.3655,3.9238 h -2.8076 l 7.4961,-18.8388 h 0.6697 l 6.9551,18.8388 z m -4.6239,-13.9536 -2.8722,8.159 h 5.4997 z m 13.0704,13.9536 v -18.5789 h 2.5243 v 16.2921 h 8.3206 v 2.2868 z m 27.2639,0 -1.275,-3.9238 h -6.8908 l -1.3654,3.9238 h -2.8077 l 7.4961,-18.8388 h 0.6697 l 6.9551,18.8388 z m -4.6239,-13.9536 -2.8722,8.159 h 5.4997 z m 24.8427,-3.9498 -0.8416,2.1699 c -0.8071,-0.5978 -2.0694,-0.8966 -3.7997,-0.8966 -1.6141,0 -2.9107,0.7016 -3.8898,2.1048 -0.9745,1.4074 -1.4638,3.2179 -1.4638,5.4309 0,2.1174 0.5022,3.8324 1.5026,5.1448 1.0004,1.3165 2.2925,1.9747 3.8769,1.9747 1.7215,0 3.0524,-0.6106 3.9797,-1.836 l 1.3826,1.94 c -1.4598,1.455 -3.3359,2.1827 -5.6329,2.1827 -2.4086,0 -4.3018,-0.8748 -5.6886,-2.6289 -1.3823,-1.7495 -2.0736,-4.0578 -2.0736,-6.929 0,-2.776 0.7385,-5.08 2.2152,-6.9162 1.477,-1.8363 3.3832,-2.7545 5.7274,-2.7545 2.005,0 3.572,0.3379 4.7056,1.0134 z m 9.8974,1.6112 v 5.1449 h 5.9505 v 2.1566 h -5.9505 v 6.7039 h 8.3462 v 2.2868 h -10.8706 v -18.5789 h 10.8706 v 2.2867 z m 14.1865,15.4347 0.919,-2.3386 c 0.4721,0.3464 1.0602,0.6367 1.7602,0.8705 0.704,0.2339 1.3309,0.3507 1.8848,0.3507 0.983,0 1.7729,-0.2727 2.3698,-0.8142 0.5969,-0.5414 0.8973,-1.2299 0.8973,-2.0656 0,-0.6281 -0.1675,-1.2084 -0.4979,-1.7452 -0.3308,-0.5372 -1.168,-1.1217 -2.5031,-1.7584 l -1.4896,-0.6973 c -1.2624,-0.5933 -2.1425,-1.2949 -2.6405,-2.1047 -0.5024,-0.8141 -0.7514,-1.7929 -0.7514,-2.9319 0,-1.3901 0.4895,-2.5421 1.4641,-3.456 0.9746,-0.9136 2.224,-1.3686 3.7566,-1.3686 2.0394,0 3.4605,0.3337 4.2588,1.0049 l -0.7427,2.2173 c -0.3347,-0.2469 -0.8501,-0.4893 -1.5369,-0.7189 -0.6913,-0.2296 -1.3267,-0.3464 -1.9148,-0.3464 -0.8588,0 -1.5327,0.2469 -2.0222,0.7362 -0.4938,0.4892 -0.7385,1.1216 -0.7385,1.8924 0,0.4722 0.0902,0.9051 0.2664,1.2948 0.1759,0.3901 0.4207,0.7147 0.734,0.9746 0.3133,0.2642 0.9616,0.6324 1.932,1.1044 l 1.5113,0.7276 c 1.2623,0.5976 2.1425,1.3164 2.6533,2.1478 0.5064,0.836 0.7599,1.8927 0.7599,3.1788 0,1.3989 -0.5581,2.5812 -1.6701,3.5555 -1.112,0.9746 -2.6019,1.4596 -4.465,1.4596 -1.6358,0 -3.0356,-0.3898 -4.1948,-1.1693 z m 47.2667,0.8575 v -8.9907 h -8.0371 v 8.9907 h -2.5244 v -18.5789 h 2.5244 v 7.4316 h 8.0371 v -7.4316 h 2.5246 v 18.5789 z m 9.1549,-9.4542 c 0,-2.6892 0.6697,-4.9368 2.0093,-6.747 1.3351,-1.8105 3.1426,-2.7156 5.4138,-2.7156 2.5589,0 4.5209,0.8317 5.8861,2.4991 1.361,1.6673 2.0438,3.9886 2.0438,6.9635 0,3.0532 -0.6828,5.444 -2.0522,7.172 -1.3655,1.7277 -3.3275,2.594 -5.8777,2.594 -2.3226,0 -4.1386,-0.9139 -5.4523,-2.7414 -1.3138,-1.8233 -1.9708,-4.1661 -1.9708,-7.0246 z m 2.6534,0 c 0,2.1309 0.4164,3.9065 1.2494,5.3357 0.8326,1.4289 2.0092,2.1436 3.5248,2.1436 1.713,0 3.0223,-0.654 3.9241,-1.9662 0.8972,-1.3079 1.348,-3.1484 1.348,-5.5131 0,-4.7854 -1.7561,-7.1759 -5.2721,-7.1759 -1.5586,0 -2.7436,0.641 -3.5549,1.9273 -0.8116,1.2861 -1.2193,3.0359 -1.2193,5.2486 z m 26.0403,-6.838 v 16.2922 h -2.5246 V 284.45 h -5.8733 v -2.2867 h 14.5289 v 2.2867 z m 14.4915,0 v 5.1449 h 5.9505 v 2.1566 h -5.9505 v 6.7039 h 8.3461 v 2.2868 h -10.8705 v -18.5789 h 10.8705 v 2.2867 z m 15.011,16.2922 v -18.5789 h 2.5244 v 16.2921 h 8.3206 v 2.2868 z m 15.9553,-0.8575 0.9189,-2.3386 c 0.4721,0.3464 1.0603,0.6367 1.7603,0.8705 0.7039,0.2339 1.3309,0.3507 1.8847,0.3507 0.983,0 1.773,-0.2727 2.3699,-0.8142 0.5968,-0.5414 0.8972,-1.2299 0.8972,-2.0656 0,-0.6281 -0.1674,-1.2084 -0.4979,-1.7452 -0.3308,-0.5372 -1.1679,-1.1217 -2.503,-1.7584 l -1.4897,-0.6973 c -1.2623,-0.5933 -2.1425,-1.2949 -2.6404,-2.1047 -0.5025,-0.8141 -0.7515,-1.7929 -0.7515,-2.9319 0,-1.3901 0.4896,-2.5421 1.4641,-3.456 0.9746,-0.9136 2.224,-1.3686 3.7567,-1.3686 2.0393,0 3.4604,0.3337 4.2588,1.0049 l -0.7428,2.2173 c -0.3347,-0.2469 -0.85,-0.4893 -1.5368,-0.7189 -0.6913,-0.2296 -1.3267,-0.3464 -1.9149,-0.3464 -0.8588,0 -1.5327,0.2469 -2.0222,0.7362 -0.4937,0.4892 -0.7385,1.1216 -0.7385,1.8924 0,0.4722 0.0902,0.9051 0.2664,1.2948 0.1759,0.3901 0.4207,0.7147 0.734,0.9746 0.3134,0.2642 0.9617,0.6324 1.932,1.1044 l 1.5113,0.7276 c 1.2623,0.5976 2.1425,1.3164 2.6534,2.1478 0.5064,0.836 0.7598,1.8927 0.7598,3.1788 0,1.3989 -0.5581,2.5812 -1.67,3.5555 -1.112,0.9746 -2.602,1.4596 -4.4651,1.4596 -1.6358,0 -3.0355,-0.3898 -4.1947,-1.1693 z m 42.7026,0.8575 -4.9071,-7.9773 c -0.5623,0 -1.4512,-0.0434 -2.6663,-0.1256 v 8.1029 h -2.5243 V 282.146 c 0.0944,0 0.7469,-0.0303 1.9578,-0.0952 1.2148,-0.0649 2.095,-0.0953 2.6489,-0.0953 4.435,0 6.6505,1.7799 6.6505,5.3354 0,1.1693 -0.3566,2.2218 -1.0693,3.1572 -0.7126,0.9355 -1.5585,1.5157 -2.5415,1.7453 l 5.3365,8.5488 z m -7.5734,-16.3225 v 6.063 c 0.6011,0.0822 1.1893,0.1256 1.7603,0.1256 1.5071,0 2.6019,-0.2469 3.2887,-0.7362 0.6871,-0.4938 1.0305,-1.3728 1.0305,-2.6376 0,-1.0437 -0.3692,-1.7929 -1.1035,-2.2518 -0.7382,-0.459 -1.9019,-0.6886 -3.4947,-0.6886 -0.249,0 -0.7428,0.0434 -1.4813,0.1256 z m 18.6002,0.0303 v 5.1449 h 5.9505 v 2.1566 h -5.9505 v 6.7039 h 8.3462 v 2.2868 h -10.8706 v -18.5789 h 10.8706 v 2.2867 z m 14.1865,15.4347 0.919,-2.3386 c 0.4721,0.3464 1.0602,0.6367 1.7603,0.8705 0.7039,0.2339 1.3308,0.3507 1.8847,0.3507 0.983,0 1.773,-0.2727 2.3698,-0.8142 0.5969,-0.5414 0.8973,-1.2299 0.8973,-2.0656 0,-0.6281 -0.1675,-1.2084 -0.4979,-1.7452 -0.3308,-0.5372 -1.1679,-1.1217 -2.503,-1.7584 l -1.4897,-0.6973 c -1.2623,-0.5933 -2.1425,-1.2949 -2.6404,-2.1047 -0.5025,-0.8141 -0.7515,-1.7929 -0.7515,-2.9319 0,-1.3901 0.4895,-2.5421 1.4641,-3.456 0.9746,-0.9136 2.224,-1.3686 3.7566,-1.3686 2.0394,0 3.4605,0.3337 4.2588,1.0049 l -0.7427,2.2173 c -0.3347,-0.2469 -0.8501,-0.4893 -1.5369,-0.7189 -0.6913,-0.2296 -1.3266,-0.3464 -1.9148,-0.3464 -0.8588,0 -1.5327,0.2469 -2.0222,0.7362 -0.4937,0.4892 -0.7385,1.1216 -0.7385,1.8924 0,0.4722 0.0902,0.9051 0.2664,1.2948 0.1759,0.3901 0.4207,0.7147 0.734,0.9746 0.3133,0.2642 0.9616,0.6324 1.932,1.1044 l 1.5113,0.7276 c 1.2623,0.5976 2.1425,1.3164 2.6533,2.1478 0.5064,0.836 0.7599,1.8927 0.7599,3.1788 0,1.3989 -0.5581,2.5812 -1.6701,3.5555 -1.1119,0.9746 -2.6019,1.4596 -4.465,1.4596 -1.6358,0 -3.0356,-0.3898 -4.1948,-1.1693 z M 346.17,291.288 c 0,-2.6892 0.6696,-4.9368 2.0092,-6.747 1.3351,-1.8105 3.1426,-2.7156 5.4138,-2.7156 2.5589,0 4.521,0.8317 5.8862,2.4991 1.3609,1.6673 2.0438,3.9886 2.0438,6.9635 0,3.0532 -0.6829,5.444 -2.0523,7.172 -1.3654,1.7277 -3.3275,2.594 -5.8777,2.594 -2.3226,0 -4.1385,-0.9139 -5.4523,-2.7414 -1.3137,-1.8233 -1.9707,-4.1661 -1.9707,-7.0246 z m 2.6533,0 c 0,2.1309 0.4165,3.9065 1.2494,5.3357 0.8327,1.4289 2.0093,2.1436 3.5248,2.1436 1.7131,0 3.0223,-0.654 3.9241,-1.9662 0.8973,-1.3079 1.348,-3.1484 1.348,-5.5131 0,-4.7854 -1.756,-7.1759 -5.2721,-7.1759 -1.5585,0 -2.7436,0.641 -3.5549,1.9273 -0.8115,1.2861 -1.2193,3.0359 -1.2193,5.2486 z m 29.5435,9.4542 -4.9071,-7.9773 c -0.5623,0 -1.4512,-0.0434 -2.6663,-0.1256 v 8.1029 h -2.5243 V 282.146 c 0.0944,0 0.7469,-0.0303 1.9578,-0.0952 1.2148,-0.0649 2.095,-0.0953 2.6489,-0.0953 4.435,0 6.6505,1.7799 6.6505,5.3354 0,1.1693 -0.3566,2.2218 -1.0693,3.1572 -0.7126,0.9355 -1.5585,1.5157 -2.5415,1.7453 l 5.3365,8.5488 z m -7.5734,-16.3225 v 6.063 c 0.6011,0.0822 1.1893,0.1256 1.7603,0.1256 1.5071,0 2.6019,-0.2469 3.2887,-0.7362 0.6871,-0.4938 1.0305,-1.3728 1.0305,-2.6376 0,-1.0437 -0.3692,-1.7929 -1.1035,-2.2518 -0.7382,-0.459 -1.9019,-0.6886 -3.4947,-0.6886 -0.249,0 -0.7428,0.0434 -1.4813,0.1256 z m 21.7431,0.0303 v 16.2922 h -2.5247 V 284.45 h -5.8732 v -2.2867 h 14.5288 v 2.2867 z m 11.1426,15.4347 0.9189,-2.3386 c 0.4721,0.3464 1.0603,0.6367 1.7603,0.8705 0.7039,0.2339 1.3309,0.3507 1.8847,0.3507 0.983,0 1.773,-0.2727 2.3699,-0.8142 0.5968,-0.5414 0.8972,-1.2299 0.8972,-2.0656 0,-0.6281 -0.1674,-1.2084 -0.4979,-1.7452 -0.3308,-0.5372 -1.1679,-1.1217 -2.503,-1.7584 l -1.4897,-0.6973 c -1.2623,-0.5933 -2.1425,-1.2949 -2.6404,-2.1047 -0.5025,-0.8141 -0.7515,-1.7929 -0.7515,-2.9319 0,-1.3901 0.4896,-2.5421 1.4641,-3.456 0.9746,-0.9136 2.224,-1.3686 3.7567,-1.3686 2.0393,0 3.4604,0.3337 4.2588,1.0049 l -0.7428,2.2173 c -0.3347,-0.2469 -0.85,-0.4893 -1.5368,-0.7189 -0.6913,-0.2296 -1.3267,-0.3464 -1.9149,-0.3464 -0.8588,0 -1.5327,0.2469 -2.0222,0.7362 -0.4937,0.4892 -0.7385,1.1216 -0.7385,1.8924 0,0.4722 0.0902,0.9051 0.2664,1.2948 0.1759,0.3901 0.4207,0.7147 0.734,0.9746 0.3134,0.2642 0.9617,0.6324 1.932,1.1044 l 1.5113,0.7276 c 1.2623,0.5976 2.1425,1.3164 2.6534,2.1478 0.5064,0.836 0.7598,1.8927 0.7598,3.1788 0,1.3989 -0.5581,2.5812 -1.67,3.5555 -1.112,0.9746 -2.602,1.4596 -4.4651,1.4596 -1.6358,0 -3.0355,-0.3898 -4.1947,-1.1693 z"
     style="fill:#1f1a18;fill-rule:evenodd"
     id="path3" />
</svg>
