<?xml version="1.0" encoding="UTF-8"?>
<svg id="Layer_1" data-name="Layer 1" xmlns="http://www.w3.org/2000/svg" viewBox="0 0 102.35 79.53">
  <defs>
    <style>
      .cls-1 {
        fill: #231f20;
      }

      .cls-1, .cls-2, .cls-3, .cls-4 {
        stroke-width: 0px;
      }

      .cls-2 {
        fill: #d3d2c2;
      }

      .cls-3 {
        fill: #be1e2d;
      }

      .cls-4 {
        fill: #fff;
      }
    </style>
  </defs>
  <path class="cls-4" d="m29.04,74.45v-2.69c0-1.99,1.52-3.1,3.36-3.1,1.6,0,3.21.79,3.21,2.66v.26h-1.49v-.12c0-1.1-.95-1.41-1.72-1.41s-1.8.42-1.8,1.63v2.69c0,1.01.87,1.59,1.86,1.59.77,0,1.66-.42,1.66-1.52v-.2h-2.17v-1.41h3.65v1.76c0,1.87-1.54,2.77-3.15,2.77-1.83,0-3.42-1.02-3.42-2.9h0Z"/>
  <path class="cls-4" d="m36.95,75.03v-3.86h1.44v3.5c0,.91.4,1.39,1.13,1.39.79,0,1.24-.49,1.24-1.52v-3.37h1.44v6.04h-1.39v-.74h-.04c-.4.58-1.03.86-1.7.86-1.36,0-2.12-.87-2.12-2.3h0Z"/>
  <path class="cls-4" d="m43.61,71.17h1.4v1h.02c.35-.64,1.25-1.12,1.97-1.12.15,0,.33,0,.48.03v1.32c-.19-.04-.34-.04-.54-.04-1.08,0-1.9.62-1.9,1.74v3.09h-1.44v-6.04h0Z"/>
  <path class="cls-4" d="m48.34,78.07l1.37-.48c.28.55.7.79,1.21.79.87,0,1.36-.55,1.36-1.4v-.64c-.39.53-.97.79-1.64.79-1.46,0-2.39-.82-2.39-2.37v-1.15c0-1.64,1.04-2.55,2.37-2.55.71,0,1.34.38,1.66.84v-.72h1.39v5.53c0,1.4-.79,2.83-2.88,2.83-.98,0-2.15-.47-2.45-1.46h0Zm3.94-3.28v-1.34c0-.73-.57-1.16-1.31-1.16-.6,0-1.26.32-1.26,1.19v1.33c0,.73.57,1.17,1.31,1.17.6,0,1.26-.32,1.26-1.19h0Z"/>
  <path class="cls-4" d="m54.8,75.5c0-1.17,1.06-1.86,2.23-1.86h1.6v-.55c0-.64-.42-.91-1.15-.91-.62,0-1.08.21-1.08.6v.21h-1.3v-.17c0-1.32,1.26-1.77,2.39-1.77,1.34,0,2.58.45,2.58,1.92v2.94c0,.27.03,1.17.11,1.3h-1.43c-.02-.09-.05-.46-.06-.55h-.02c-.53.55-.99.67-1.77.67-1.25,0-2.1-.68-2.1-1.83h0Zm3.83-.52v-.3h-1.41c-.61,0-1.01.21-1.01.74s.41.77,1.08.77c1.16,0,1.34-.57,1.34-1.21h0Z"/>
  <path class="cls-4" d="m61.29,74.98v-1.38c0-1.64,1.39-2.54,2.72-2.54,1.46,0,2.77.97,2.77,2.51v1.24c0,1.64-1.39,2.53-2.72,2.53-1.46,0-2.77-.82-2.77-2.37h0Zm4.03-.04v-1.5c0-.73-.57-1.16-1.31-1.16-.6,0-1.26.32-1.26,1.19v1.48c0,.73.57,1.17,1.31,1.17.6,0,1.26-.32,1.26-1.19h0Z"/>
  <path class="cls-4" d="m68.05,71.17h1.4v.74h.02c.4-.58,1.04-.86,1.71-.86,1.36,0,2.11.85,2.11,2.29v3.87h-1.44v-3.5c0-.91-.39-1.39-1.12-1.39-.79,0-1.25.48-1.25,1.51v3.38h-1.44v-6.04h0Z"/>
  <polygon class="cls-2" points="33.15 18.92 43.96 18.92 43.96 29.74 33.15 29.74 33.15 18.92 33.15 18.92"/>
  <polygon class="cls-1" points="33.15 12.62 43.96 12.62 43.96 17.12 33.15 17.12 33.15 12.62 33.15 12.62"/>
  <polygon class="cls-1" points="33.15 31.54 43.96 31.54 43.96 36.04 33.15 36.04 33.15 31.54 33.15 31.54"/>
  <polygon class="cls-1" points="58.38 0 69.19 0 69.19 10.81 58.38 10.81 58.38 0 58.38 0"/>
  <polygon class="cls-2" points="58.38 12.62 69.19 12.62 69.19 36.04 58.38 36.04 58.38 12.62 58.38 12.62"/>
  <polygon class="cls-3" points="33.15 0 56.58 0 56.58 36.04 45.77 36.04 45.77 10.81 33.15 10.81 33.15 0 33.15 0"/>
  <polygon class="cls-3" points="4.05 59.6 7.15 59.6 7.15 49.13 11.2 49.13 11.2 46.7 0 46.7 0 49.13 4.05 49.13 4.05 59.6 4.05 59.6"/>
  <path class="cls-3" d="m20.82,52.98c1.84,0,2.63-.77,2.63-1.99,0-1.3-.53-1.84-2.19-1.84h-1.5v3.83h1.06Zm3.77,6.62c-.79-1.13-3.12-4.48-3.12-4.48-.22.02-.53.02-.77.02h-.95v4.45h-3.12v-12.9h5.02c2.9,0,4.98,1.33,4.98,4.21,0,1.44-.69,2.7-2.08,3.49,0,0,3.7,4.99,3.85,5.2h-3.82Z"/>
  <polygon class="cls-3" points="33.19 59.61 36.29 59.61 36.29 46.71 33.19 46.71 33.19 59.61 33.19 59.61"/>
  <path class="cls-3" d="m46.26,57.18v-8.05h1.48c3.1,0,4.49,1.39,4.49,4.16,0,2.54-1.15,3.89-4.12,3.89h-1.84Zm-3.08,2.43h4.73c4.65,0,7.43-2.03,7.43-6.49s-3.07-6.41-7.54-6.41h-4.62v12.9h0Z"/>
  <polygon class="cls-3" points="60.7 59.6 69.58 59.6 69.58 57.18 63.8 57.18 63.8 54.26 68.77 54.26 68.77 51.99 63.8 51.99 63.8 49.13 69.16 49.13 69.16 46.7 60.7 46.7 60.7 59.6 60.7 59.6"/>
  <polygon class="cls-3" points="75.04 59.6 78.14 59.6 78.14 52.69 78.07 50.97 83.01 59.6 86.72 59.6 86.72 46.7 83.62 46.7 83.62 54.11 83.71 55.55 78.63 46.7 75.04 46.7 75.04 59.6 75.04 59.6"/>
  <polygon class="cls-3" points="95.19 59.6 98.3 59.6 98.3 49.13 102.35 49.13 102.35 46.7 91.14 46.7 91.14 49.13 95.19 49.13 95.19 59.6 95.19 59.6"/>
</svg>